<?xml version="1.0" standalone="no"?>
<!DOCTYPE svg PUBLIC "-//W3C//DTD SVG 1.1//EN" "http://www.w3.org/Graphics/SVG/1.1/DTD/svg11.dtd" >
<svg>
<metadata>
Created by FontForge 20090914 at Tue Apr 27 22:01:28 2021
 By www-data
Copyright (c) 2011, Sorkin Type Co (www.sorkintype.com)with Reserved Font Name "Sonsie One".
</metadata>
<defs>
<font id="SonsieOne-Regular" horiz-adv-x="1877" >
  <font-face 
    font-family="Sonsie One"
    font-weight="400"
    font-stretch="normal"
    units-per-em="2048"
    panose-1="2 0 0 0 0 0 0 0 0 0"
    ascent="1638"
    descent="-410"
    x-height="1040"
    cap-height="1536"
    bbox="-377 -600.002 3114 2050"
    underline-thickness="102"
    underline-position="-103"
    unicode-range="U+0001-U+FB02"
  />
<missing-glyph horiz-adv-x="1875" 
d="M173 -68v1938h1530v-1938h-1530zM525 1283c-22.667 -22.667 -34.001 -41.666 -34.001 -56.999s27.333 -56 82 -122s118 -136 190 -210c-143.333 -119.333 -222.666 -185.833 -237.999 -199.5s-34.833 -30.167 -58.5 -49.5s-41.167 -34.333 -52.5 -45
c-34 -30.667 -51 -56.834 -51 -78.501s21.5 -54 64.5 -97s71.667 -64.5 86 -64.5s26.833 4.66699 37.5 14c60.667 56 186 163.667 376 323l112.5 -151l59.5 -82l35 -45c32 -38.667 56.833 -58 74.5 -58s51.5 21.167 101.5 63.5s75 70 75 83s-11.333 32.333 -34 58
s-56.334 61.334 -101.001 107.001s-81 84.5 -109 116.5l-44 50c118 98.667 190.667 160.167 218 184.5l66.5 58l42.5 36c11.333 9.66699 23 20.5 35 32.5c24.667 24.667 37 44 37 58s-4.66699 28.167 -14 42.5s-19.166 26.5 -29.499 36.5l-40 37.5l-39.5 37
c-10 9.66699 -21.5 14.5 -34.5 14.5s-24.167 -4.66699 -33.5 -14c-86.667 -84.667 -209.667 -193 -369 -325c-150 191.333 -233.167 296.166 -249.5 314.499s-30.833 27.5 -43.5 27.5s-52 -32 -118 -96z" />
    <glyph glyph-name=".notdef" horiz-adv-x="1875" 
d="M173 -68v1938h1530v-1938h-1530zM525 1283c-22.667 -22.667 -34.001 -41.666 -34.001 -56.999s27.333 -56 82 -122s118 -136 190 -210c-143.333 -119.333 -222.666 -185.833 -237.999 -199.5s-34.833 -30.167 -58.5 -49.5s-41.167 -34.333 -52.5 -45
c-34 -30.667 -51 -56.834 -51 -78.501s21.5 -54 64.5 -97s71.667 -64.5 86 -64.5s26.833 4.66699 37.5 14c60.667 56 186 163.667 376 323l112.5 -151l59.5 -82l35 -45c32 -38.667 56.833 -58 74.5 -58s51.5 21.167 101.5 63.5s75 70 75 83s-11.333 32.333 -34 58
s-56.334 61.334 -101.001 107.001s-81 84.5 -109 116.5l-44 50c118 98.667 190.667 160.167 218 184.5l66.5 58l42.5 36c11.333 9.66699 23 20.5 35 32.5c24.667 24.667 37 44 37 58s-4.66699 28.167 -14 42.5s-19.166 26.5 -29.499 36.5l-40 37.5l-39.5 37
c-10 9.66699 -21.5 14.5 -34.5 14.5s-24.167 -4.66699 -33.5 -14c-86.667 -84.667 -209.667 -193 -369 -325c-150 191.333 -233.167 296.166 -249.5 314.499s-30.833 27.5 -43.5 27.5s-52 -32 -118 -96z" />
    <glyph glyph-name="uni0001" horiz-adv-x="0" 
 />
    <glyph glyph-name="uni0002" horiz-adv-x="0" 
 />
    <glyph glyph-name="uni0003" horiz-adv-x="0" 
 />
    <glyph glyph-name="uni0004" horiz-adv-x="0" 
 />
    <glyph glyph-name="uni0005" horiz-adv-x="0" 
 />
    <glyph glyph-name="uni0006" horiz-adv-x="0" 
 />
    <glyph glyph-name="uni0007" horiz-adv-x="0" 
 />
    <glyph glyph-name="uni0008" horiz-adv-x="0" 
 />
    <glyph glyph-name="uni0009" unicode="&#x9;" horiz-adv-x="0" 
 />
    <glyph glyph-name="uni0010" horiz-adv-x="0" 
 />
    <glyph glyph-name="uni0011" horiz-adv-x="0" 
 />
    <glyph glyph-name="uni0012" horiz-adv-x="0" 
 />
    <glyph glyph-name="uni0013" horiz-adv-x="0" 
 />
    <glyph glyph-name="uni0014" horiz-adv-x="0" 
 />
    <glyph glyph-name="uni0015" horiz-adv-x="0" 
 />
    <glyph glyph-name="uni0016" horiz-adv-x="0" 
 />
    <glyph glyph-name="uni0017" horiz-adv-x="0" 
 />
    <glyph glyph-name="uni0018" horiz-adv-x="0" 
 />
    <glyph glyph-name="uni0019" horiz-adv-x="0" 
 />
    <glyph glyph-name="space" unicode=" " horiz-adv-x="772" 
 />
    <glyph glyph-name="exclam" unicode="!" horiz-adv-x="1198" 
d="M756 557c-130.667 0 -219.5 0.666992 -266.5 2s-70.5 19 -70.5 53c0 72 34.667 242.333 104 511s107.666 425.167 114.999 469.5s16.333 72.5 27 84.5s35.334 20.167 74.001 24.5s120.5 10.333 245.5 18s212.333 11.5 262 11.5s74.5 -19 74.5 -57
c0 -11.333 -2 -23 -6 -35c-70.667 -192 -156 -379 -256 -561c-97.333 -176.667 -166.333 -328.667 -207 -456c-14 -43.333 -46 -65 -96 -65zM820 85c-38.667 -43.333 -89.502 -77.666 -152.502 -102.999s-131.667 -38 -206 -38s-137.166 19 -188.499 57s-77 84 -77 138
s19.833 103.167 59.5 147.5s90.834 79.166 153.501 104.499s131.167 38 205.5 38s137 -19.5 188 -58.5s76.5 -85.333 76.5 -139s-19.667 -102.5 -59 -146.5z" />
    <glyph glyph-name="quotedbl" unicode="&#x22;" horiz-adv-x="1329" 
d="M810 1644c0 -96 -22.334 -210.836 -67.001 -344.503s-95 -245.5 -151 -335.5c-16.667 -27.333 -31.5 -46.833 -44.5 -58.5s-28.167 -17.5 -45.5 -17.5c-44.667 0 -67 31.333 -67 94c0 39.333 5.66699 112.5 17 219.5s17.666 173.333 18.999 199s2.33301 48.334 3 68.001
s1.33398 35.834 2.00098 48.501c0.666992 32 3.83398 63.833 9.50098 95.5s20.5 58.834 44.5 81.501c41.333 38 98.333 57 171 57s109 -35.667 109 -107zM1310 1644c0 -96 -22.334 -210.836 -67.001 -344.503s-95 -245.5 -151 -335.5
c-16.667 -27.333 -31.5 -46.833 -44.5 -58.5s-28.167 -17.5 -45.5 -17.5c-44.667 0 -67 31.333 -67 94c0 39.333 5.66699 112.5 17 219.5s17.666 173.333 18.999 199s2.33301 48.334 3 68.001s1.33398 35.834 2.00098 48.501c0.666992 32 3.83398 63.833 9.50098 95.5
s20.5 58.834 44.5 81.501c41.333 38 98.333 57 171 57s109 -35.667 109 -107z" />
    <glyph glyph-name="numbersign" unicode="#" horiz-adv-x="1479" 
d="M418 939c-34 0 -50.9961 19.6748 -50.9961 59.0078c0 54.667 5.66699 88.334 17 101.001c20.667 24 47.834 37.833 81.501 41.5s76.5 5.5 128.5 5.5h21l17 63c10.667 41.333 26 105.166 46 191.499s32 137.166 36 152.499c6.66699 24.667 22.667 37 48 37
c31.333 0 59 -7.5 83 -22.5s38.833 -28.667 44.5 -41s8.5 -26.5 8.5 -42.5s-1 -31.167 -3 -45.5s-3.83301 -25.333 -5.5 -33s-5 -20.334 -10 -38.001l-10.5 -37.5c-4.66699 -18 -22.334 -81.333 -53.001 -190c66 -2 123.5 -3 172.5 -3s83.833 0.333008 104.5 1l19 71
c10.667 41.333 26 105.166 46 191.499s32 137.166 36 152.499c6.66699 24.667 22.667 37 48 37c31.333 0 59 -7.5 83 -22.5s38.833 -28.667 44.5 -41s8.5 -26.5 8.5 -42.5s-1 -31.167 -3 -45.5s-3.83301 -25.333 -5.5 -33s-5 -20.334 -10 -38.001l-10.5 -37.5l-52 -186
c59.333 2 102.333 3 129 3c34 0 51 -19.667 51 -59c0 -54.667 -5.66699 -88.334 -17 -101.001c-20.667 -24 -47.834 -37.833 -81.501 -41.5s-76.5 -5.5 -128.5 -5.5h-10l-60 -217c85.333 2.66699 132.666 4 141.999 4c34 0 51 -19.667 51 -59
c0 -54.667 -5.66699 -88.334 -17 -101.001c-20.667 -24 -47.834 -37.833 -81.501 -41.5s-76.5 -5.5 -128.5 -5.5h-22c-15.333 -54.667 -53.666 -210 -114.999 -466c-6.66699 -25.333 -22.667 -38 -48 -38c-10 0 -26.167 3.83301 -48.5 11.5s-39.833 15.5 -52.5 23.5
c-24 15.333 -36 40.333 -36 75c0 34 7 75.333 21 124l77 274c-98.667 3.33301 -183.334 5 -254.001 5h-22c-4 -16.667 -10.333 -40.334 -19 -71.001s-16.334 -59.167 -23.001 -85.5s-20.167 -83.333 -40.5 -171s-31.833 -136.834 -34.5 -147.501
c-6.66699 -25.333 -22.667 -38 -48 -38c-10 0 -26.167 3.83301 -48.5 11.5s-39.833 15.5 -52.5 23.5c-24 15.333 -36 40.333 -36 75c0 34 7.33301 76.333 22 127l76 270c-74.667 -2.66699 -117.334 -4 -128.001 -4c-34 0 -51 19.667 -51 59
c0 54.667 5.66699 88.334 17 101.001c20.667 24 47.834 37.833 81.501 41.5s76.5 5.5 128.5 5.5h9l60 217c-81.333 -2.66699 -128.333 -4 -141 -4zM908.004 717.008h68l63 227c-154.667 3.33301 -243.667 5 -267 5h-9l-64 -228c93.333 -2.66699 163 -4 209 -4z" />
    <glyph glyph-name="dollar" unicode="$" 
d="M1492 1710c0 -24 -4.83398 -52.834 -14.501 -86.501s-15.167 -53.167 -16.5 -58.5c165.333 -14 300.333 -43.333 405 -88c20 -8.66699 30 -26.667 30 -54s-11.833 -68.666 -35.5 -123.999s-52.334 -106.166 -86.001 -152.499s-62.167 -69.5 -85.5 -69.5
c-12 0 -22.333 4.66699 -31 14c-88 96 -176 170 -264 222l-122 -453c112 -84 177.333 -135.333 196 -154l62.5 -63c23 -23.333 40.5 -44.5 52.5 -63.5s24.333 -40.167 37 -63.5c23.333 -44 35 -96.167 35 -156.5s-16.167 -115.5 -48.5 -165.5s-77.833 -90.667 -136.5 -122
c-112.667 -59.333 -260 -95 -442 -107l-49 -176c-11.333 -40.667 -29.666 -61 -54.999 -61c-32.667 0 -49 20.667 -49 62c0 22.667 9.66699 79.334 29 170.001h-37c-72.667 0 -147.667 3.66699 -225 11l-22 -80.5l-18.5 -67c-4.33301 -16.333 -7.5 -27.833 -9.5 -34.5
c-11.333 -40.667 -29.666 -61 -54.999 -61c-32.667 0 -49 20.667 -49 62c0 24 11.333 88.667 34 194c-95.333 12 -181.666 27 -258.999 45s-127 32.667 -149 44s-33 29.666 -33 54.999s20.333 79.5 61 162.5s72.667 124.5 96 124.5c14 0 36.667 -10.667 68 -32
c134 -90 223 -146 267 -168l80 344c-160 130.667 -259.667 240.667 -299 330c-17.333 40.667 -26 81 -26 121c0 130 53.5 242.5 160.5 337.5s248.167 160.833 423.5 197.5c27.333 90 47.333 146.333 60 169c20 40 46 60 78 60c36.667 0 55 -21.333 55 -64
c0 -26.667 -10 -73.334 -30 -140.001c45.333 4 84.666 6 117.999 6s71.333 -0.666992 114 -2c22 69.333 39.333 116 52 140c20 40 46 60 78 60c36.667 0 55 -21.333 55 -64zM982.999 1196c0 -39.333 13.499 -77.667 40.499 -115s65.5 -77 115.5 -119
c42.667 166.667 79 303.667 109 411c-17.333 4 -42.166 6 -74.499 6s-66.833 -10.167 -103.5 -30.5s-62 -49.5 -76 -87.5l-7 -24c-2.66699 -17.333 -4 -31 -4 -41zM775.998 459.998l-80 -291.998c46 -12 84.167 -18 114.5 -18s55.5 2.66699 75.5 8s37.833 15.333 53.5 30
s23.5 34.167 23.5 58.5s-15.833 53.666 -47.5 87.999s-78.167 76.166 -139.5 125.499z" />
    <glyph glyph-name="percent" unicode="%" horiz-adv-x="2164" 
d="M328 1400c106.667 115.333 275.999 173.003 507.999 173.003c158.667 0 272.334 -35.667 341.001 -107c36.667 -38.667 55 -85.334 55 -140.001s-11.833 -104.834 -35.5 -150.501s-58.167 -86 -103.5 -121s-104.333 -62.667 -177 -83s-165.167 -30.5 -277.5 -30.5
s-205.333 23.5 -279 70.5s-110.5 109.167 -110.5 186.5s26.333 144.666 79 201.999zM544.999 1191c0 -41.333 10.167 -74.667 30.5 -100s60 -38 119 -38s114.833 27.333 167.5 82s79 121 79 199c0 63.333 -20 103.333 -60 120c-18 8 -40.667 12 -68 12
c-62 0 -122.167 -27.333 -180.5 -82s-87.5 -119 -87.5 -193zM2036 1485c0 -32.667 -22.333 -67.667 -67 -105l-1626 -1347c-34 -28 -62.667 -42 -86 -42s-40.833 5.83301 -52.5 17.5s-17.5 26.834 -17.5 45.501c0 31.333 22.333 65.666 67 102.999l1626 1347
c34 28 62.667 42 86 42s40.833 -5.83301 52.5 -17.5s17.5 -26.167 17.5 -43.5zM1056 415.002c106.667 115.333 275.999 173.002 507.999 173.002c158.667 0 272.334 -36 341.001 -108c36.667 -38 55 -84.333 55 -139s-11.833 -104.834 -35.5 -150.501
s-58.167 -86 -103.5 -121s-104.333 -62.667 -177 -83s-165.167 -30.5 -277.5 -30.5s-205.333 23.5 -279 70.5s-110.5 109.167 -110.5 186.5s26.333 144.666 79 201.999zM1273 206.004c0 -41.333 10.167 -74.666 30.5 -99.999s60 -38 119 -38s114.833 27.333 167.5 82
s79 121 79 199c0 63.333 -20 103.666 -60 120.999c-18 7.33301 -40.667 11 -68 11c-62 0 -122.167 -27.333 -180.5 -82s-87.5 -119 -87.5 -193z" />
    <glyph glyph-name="ampersand" unicode="&#x26;" horiz-adv-x="2177" 
d="M1636 1327c0 -90.667 -31.3301 -167.499 -93.9971 -230.499s-150 -118.167 -262 -165.5c118 -207.333 346.333 -442.333 685 -705c26 -20.667 39 -45 39 -73s-22.333 -51 -67 -69c-267.333 -106 -447 -159 -539 -159c-42 0 -84.833 17.667 -128.5 53
s-93.834 82.666 -150.501 141.999c-84 -48.667 -179.833 -87.5 -287.5 -116.5s-202.334 -43.5 -284.001 -43.5s-149.834 6.5 -204.501 19.5s-103.667 32.5 -147 58.5c-93.333 54.667 -140 138.334 -140 251.001c0 236.667 193.667 415 581 535
c-50.667 122 -76 227.333 -76 316s16.5 165.167 49.5 229.5s77.833 116.166 134.5 155.499c116 80.667 257.667 121 425 121c236 0 383.333 -65.333 442 -196c16 -36 24 -77 24 -123zM2088 748.001c-82.667 -64.667 -180.67 -124.001 -294.003 -178.001
c-18 -8.66699 -35 -13 -51 -13c-32.667 0 -49 12.667 -49 38c0 18 16 51.333 48 100c61.333 92.667 115.333 220.334 162 383.001c8.66699 30.667 28.334 46 59.001 46s59.834 -3.16699 87.501 -9.5s55.334 -15.5 83.001 -27.5s50.667 -29 69 -51s27.5 -48.5 27.5 -79.5
s-12.833 -65 -38.5 -102s-60.167 -72.5 -103.5 -106.5zM1012 238c-124 147.333 -225.668 294.333 -305.001 441c-101.333 -85.333 -152 -181.333 -152 -288c0 -123.333 81.667 -185 245 -185c66.667 0 137.334 10.667 212.001 32zM1213 1077c122.667 88 184 186.667 184 296
c0 90.667 -30 136 -90 136c-37.333 0 -67.5 -22.833 -90.5 -68.5s-34.5 -102.5 -34.5 -170.5s10.333 -132.333 31 -193z" />
    <glyph glyph-name="quotesingle" unicode="'" horiz-adv-x="819" 
d="M810 1644c0 -96 -22.334 -210.836 -67.001 -344.503s-95 -245.5 -151 -335.5c-16.667 -27.333 -31.5 -46.833 -44.5 -58.5s-28.167 -17.5 -45.5 -17.5c-44.667 0 -67 31.333 -67 94c0 39.333 5.66699 112.5 17 219.5s17.666 173.333 18.999 199s2.33301 48.334 3 68.001
s1.33398 35.834 2.00098 48.501c0.666992 32 3.83398 63.833 9.50098 95.5s20.5 58.834 44.5 81.501c41.333 38 98.333 57 171 57s109 -35.667 109 -107z" />
    <glyph glyph-name="parenleft" unicode="(" horiz-adv-x="1193" 
d="M1362 1598c-178.667 -120.667 -332.666 -283.667 -461.999 -489c-62 -99.333 -111.667 -209.166 -149 -329.499s-56 -240.5 -56 -360.5c0 -193.333 48 -376 144 -548c13.333 -23.333 35.5 -54.333 66.5 -93s46.5 -62 46.5 -70c0 -20.667 -10.833 -31 -32.5 -31
s-57.834 13 -108.501 39c-295.333 152 -443 391.667 -443 719c0 426 177 769.333 531 1030c108.667 80 233.667 155 375 225c78.667 38.667 133.167 58 163.5 58s45.5 -9.66699 45.5 -29c0 -22.667 -23 -50.334 -69 -83.001z" />
    <glyph glyph-name="parenright" unicode=")" horiz-adv-x="1193" 
d="M-8 -194c178 121.333 331.332 284.668 459.999 490.001c62.667 99.333 112.667 209.166 150 329.499s56 240.5 56 360.5c0 193.333 -48 376 -144 548c-13.333 23.333 -35.5 54.333 -66.5 93s-46.5 62 -46.5 70c0 20.667 10.833 31 32.5 31s57.834 -13 108.501 -39
c295.333 -152 443 -391.667 443 -719c0 -426 -177 -769.333 -531 -1030c-108.667 -80 -233.667 -155 -375 -225c-78.667 -38.667 -133.167 -58 -163.5 -58s-45.5 9.66699 -45.5 29c0 22.667 23 50.667 69 84z" />
    <glyph glyph-name="asterisk" unicode="*" horiz-adv-x="1315" 
d="M329 1256c-14 13.333 -20.998 30.667 -20.998 52s15.5 51.333 46.5 90s60.333 58 88 58s50.667 -5.66699 69 -17s41 -31.333 68 -60l74.5 -76l73 -68l50 -45c2 67.333 13.667 143.5 35 228.5s47 155.167 77 210.5c17.333 30 39.5 45 66.5 45s60.5 -14.167 100.5 -42.5
s60 -56.5 60 -84.5s-24.667 -81.667 -74 -161l-45.5 -75l-42.5 -72.5c-13.333 -23.667 -23 -40.167 -29 -49.5c56 23.333 119.667 42.666 191 57.999s124.5 23 159.5 23s56.167 -0.333008 63.5 -1c38 -2 57 -20.667 57 -56c0 -48 -17 -93.167 -51 -135.5
s-70.333 -63.5 -109 -63.5s-98.334 6.5 -179.001 19.5s-129.667 20.5 -147 22.5c38 -52 73.5 -116.833 106.5 -194.5s49.5 -134 49.5 -169s-15.667 -60.667 -47 -77s-61.333 -24.5 -90 -24.5s-48.5 0.833008 -59.5 2.5s-22.5 5.66699 -34.5 12s-20.667 15.833 -26 28.5
c-12.667 31.333 -19 77.666 -19 138.999s-2.33301 136.333 -7 225c-41.333 -56 -95 -114.667 -161 -176c-106 -99.333 -178 -149 -216 -149c-18.667 0 -35.834 15.667 -51.501 47s-23.5 64.333 -23.5 99s11.167 63.834 33.5 87.501s54.5 46.167 96.5 67.5l220 115
c-63.333 13.333 -129 35.833 -197 67.5s-119.667 64.834 -155 99.501z" />
    <glyph glyph-name="plus" unicode="+" horiz-adv-x="1479" 
d="M1250 501c-20.667 -13.333 -37.334 -20.501 -50.001 -21.501s-27.5 -1.83301 -44.5 -2.5s-30.5 -1 -40.5 -1h-108l-19 1h-20l-20 1c-14 0 -24.667 0.333008 -32 1l-44 1c-6.66699 0.666992 -16.667 1 -30 1l-5 -21c-10.667 -41.333 -25.667 -111.333 -45 -210
s-31 -155.667 -35 -171c-5.33301 -22.667 -28.666 -34.334 -69.999 -35.001l-120 -14c-14.667 0 -25 2.83301 -31 8.5s-9 20.334 -9 44.001s7.33301 61.167 22 112.5s40 148 76 290l-52 -1l-21 -1c-44 -0.666992 -94.333 -2.33398 -151 -5.00098l-44 -2
c-18 -0.666992 -38.667 -1 -62 -1h-10c-27.333 4.66699 -41 24.334 -41 59.001v21c0 9.33301 0.333008 16.333 1 21c0 73.333 33.333 113.666 100 120.999c32 3.33301 74 5 126 5l79 -1l19 -1h21c6.66699 -0.666992 19.667 -1.33398 39 -2.00098s35.333 -1 48 -1h2l14 56
c10.667 42.667 23 99.834 37 171.501s22.667 113.834 26 126.501c4.66699 21.333 28.334 33.333 71.001 36l116 7c28.667 0 43 -16 43 -48s-12.833 -93.5 -38.5 -184.5s-39 -138.167 -40 -141.5s-2.16699 -7.66602 -3.5 -12.999s-2.66602 -10 -3.99902 -14h45l20 1
c16 0 40 0.666992 72 2l41 1c6.66699 0.666992 16.667 1 30 1l56 3h16c36 1.33301 57 2 63 2l24 -5c9.33301 -4 17.666 -15 24.999 -33l2 -15v-27l-1 -11v-10l-2 -16c-2.66699 -27.333 -11.334 -51 -26.001 -71z" />
    <glyph glyph-name="comma" unicode="," horiz-adv-x="1198" 
d="M554 -32c-21.333 -3.33301 -41.998 -4.99805 -61.998 -4.99805c-94 0 -163.5 17 -208.5 51s-67.5 78.333 -67.5 133c0 75.333 37.833 141.166 113.5 197.499s162.667 84.5 261 84.5s174.333 -22 228 -66s80.5 -100 80.5 -168s-15.5 -136.5 -46.5 -205.5
s-70.667 -131.333 -119 -187s-104.166 -101.834 -167.499 -138.501s-121 -55 -173 -55s-78 15.667 -78 47c0 10 4.16699 19.5 12.5 28.5s28.166 24.167 59.499 45.5s63.666 54.5 96.999 99.5s56.666 91.167 69.999 138.5z" />
    <glyph glyph-name="hyphen" unicode="-" horiz-adv-x="1479" 
d="M295 475c-34 0 -51 19.667 -51 59c0 58.667 5.33301 96 16 112c21.333 30 48.833 46.833 82.5 50.5s76.5 5.5 128.5 5.5l418 -9l354 10c34 0 51 -19.667 51 -59c0 -58.667 -5.33301 -96 -16 -112c-21.333 -30 -48.833 -46.833 -82.5 -50.5s-76.5 -5.5 -128.5 -5.5l-418 9
z" />
    <glyph glyph-name="period" unicode="." horiz-adv-x="1198" 
d="M834 85c-38.667 -43.333 -89.502 -77.666 -152.502 -102.999s-131.667 -38 -206 -38s-137.166 19 -188.499 57s-77 84 -77 138s19.833 103.167 59.5 147.5s90.834 79.166 153.501 104.499s131.167 38 205.5 38s137 -19.5 188 -58.5s76.5 -85.333 76.5 -139
s-19.667 -102.5 -59 -146.5z" />
    <glyph glyph-name="slash" unicode="/" horiz-adv-x="1123" 
d="M170 -129l833.002 1699c22 43.333 48.333 65 79 65c19.333 0 36.166 -6.5 50.499 -19.5s21.5 -26 21.5 -39s-2 -23.5 -6 -31.5l-833 -1699c-22 -43.333 -48.333 -65 -79 -65c-18.667 0 -35.334 6.33301 -50.001 19s-22 25.5 -22 38.5s2 23.833 6 32.5z" />
    <glyph glyph-name="zero" unicode="0" 
d="M911 1309c42 0 63 -13.333 63 -40c0 -18 -19 -49 -57 -93c-76 -89.333 -134.833 -206.166 -176.5 -350.499s-62.5 -291.5 -62.5 -441.5c0 -192.667 50.667 -289 152 -289c70.667 0 138.667 49.5 204 148.5s117.833 230.5 157.5 394.5s59.5 335.667 59.5 515
c0 95.333 -22.833 167.666 -68.5 216.999s-100.5 74 -164.5 74c-35.333 0 -85.5 -7.66699 -150.5 -23s-101.5 -23 -109.5 -23c-30.667 0 -46 13.333 -46 40c0 18 13.167 38.167 39.5 60.5s61.166 43.5 104.499 63.5c103.333 48.667 213.833 73 331.5 73
s214.5 -16.333 290.5 -49s138 -78 186 -136c99.333 -118 149 -267 149 -447c0 -125.333 -17.167 -243.833 -51.5 -355.5s-81.833 -209.667 -142.5 -294s-131 -157.5 -211 -219.5c-163.333 -124.667 -348.333 -187 -555 -187c-212 0 -374.667 55 -488 165
c-110.667 106.667 -166 249.667 -166 429c0 116 18.333 222.333 55 319s86.834 177.667 150.501 243s139 116 226 152s180.5 54 280.5 54z" />
    <glyph glyph-name="one" unicode="1" horiz-adv-x="1186" 
d="M829 92l1.00195 -36.998c0 -20.667 -9.83301 -37 -29.5 -49s-41.5 -18 -65.5 -18c-78 0 -154.5 -2.66699 -229.5 -8s-129 -8 -162 -8s-56.333 0.666992 -70 2s-28.5 4.66602 -44.5 9.99902c-31.333 10.667 -47 35.667 -47 75s3 69.333 9 90
c61.333 220.667 146.333 445.334 255 674.001c100 209.333 150 331.333 150 366c0 17.333 -8 31.166 -24 41.499s-34.5 15.5 -55.5 15.5s-58.833 -9 -113.5 -27s-91.834 -27 -111.501 -27s-34.834 5.5 -45.501 16.5s-16 23.167 -16 36.5c0 26.667 19.333 53 58 79
c138 93.333 271 168.166 399 224.499s238.333 84.5 331 84.5c136.667 0 205 -61.333 205 -184c0 -60 -9.16699 -123.167 -27.5 -189.5s-53.5 -161.5 -105.5 -285.5c-92.667 -224 -176.667 -494 -252 -810c-6 -24.667 -9 -48.667 -9 -72z" />
    <glyph glyph-name="two" unicode="2" 
d="M366 129c-55.333 -80 -99.999 -119.999 -133.999 -119.999c-74 0 -119.333 17 -136 51c-8 14.667 -12 33 -12 55c0 57.333 61.667 144.666 185 261.999s298.333 248.666 525 393.999c164 104 269 179 315 225c48.667 48.667 77.5 87.834 86.5 117.501
s13.5 56.834 13.5 81.501c0 91.333 -65.333 137 -196 137c-131.333 0 -273.666 -28.667 -426.999 -86l-103 -38c-7.33301 -2.66699 -17 -4 -29 -4c-36 0 -54 16.333 -54 49c0 18.667 4.83301 36.167 14.5 52.5s27.5 37.166 53.5 62.499c185.333 178.667 423 268 713 268
c188 0 333 -40.667 435 -122c78 -62.667 117 -149.334 117 -260.001c0 -137.333 -62 -254.666 -186 -351.999c-108 -85.333 -251.667 -166.333 -431 -243l-246 -105c-197.333 -82 -347 -160.667 -449 -236c175.333 4 487.333 45.667 936 125
c147.333 26 234.666 39 261.999 39s48.166 -5.66699 62.499 -17s21.5 -30.833 21.5 -58.5s-12.667 -77.667 -38 -150s-59 -140.5 -101 -204.5s-79.833 -97.833 -113.5 -101.5s-72.167 -5.5 -115.5 -5.5c-112 0 -275 21 -489 63s-374 82.333 -480 121z" />
    <glyph glyph-name="three" unicode="3" 
d="M830 121c72 0 139.167 30.998 201.5 92.998s93.5 138.333 93.5 229c0 68 -31.167 129.333 -93.5 184s-144.166 93.667 -245.499 117s-152 51.666 -152 84.999c0 44 41 71.333 123 82c158 18.667 280.167 54 366.5 106s129.5 115.667 129.5 191c0 48 -23.5 90 -70.5 126
s-105.833 54 -176.5 54s-133.834 -6.83301 -189.501 -20.5s-107 -31.167 -154 -52.5s-74.5 -33.666 -82.5 -36.999s-13.333 -5.66602 -16 -6.99902c-30.667 -13.333 -53.667 -20 -69 -20s-28.166 4.83301 -38.499 14.5s-15.5 22.167 -15.5 37.5c0 50.667 60.667 112 182 184
c171.333 101.333 386.666 152 645.999 152c206.667 0 358.334 -51.667 455.001 -155c50 -53.333 75 -113 75 -179s-15.333 -123.833 -46 -173.5s-73 -92.5 -127 -128.5c-107.333 -71.333 -240.666 -122 -399.999 -152c185.333 -23.333 315 -75.666 389 -156.999
c59.333 -64 89 -147.667 89 -251c0 -76 -24.167 -145 -72.5 -207s-113.5 -112.667 -195.5 -152c-169.333 -82.667 -374 -124 -614 -124c-178.667 0 -323.334 12.333 -434.001 37s-191.667 53 -243 85c-16 10 -27 19.167 -33 27.5s-9 22.333 -9 42s7.5 55.5 22.5 107.5
s34.333 101 58 147s45.5 69 65.5 69c23.333 0 61.666 -30.333 114.999 -91c152.667 -175.333 308 -263 466 -263z" />
    <glyph glyph-name="four" unicode="4" 
d="M1568 656c149.333 -2.66699 225.999 -3.99609 229.999 -3.99609c26 0 39 -14 39 -42c0 -22.667 -5.33301 -48.334 -16 -77.001c-6 -16.667 -25.667 -26.834 -59 -30.501s-116.333 -9.83398 -249 -18.501c-41.333 -135.333 -63.333 -245.333 -66 -330
c-0.666992 -14.667 -2.16699 -34.5 -4.5 -59.5s-3.5 -44.667 -3.5 -59s-9.83301 -27.5 -29.5 -39.5s-41.5 -18 -65.5 -18l-398 -6c-70 0 -105 28.667 -105 86c0 100 42.667 230.333 128 391c-260.667 -15.333 -439.5 -23 -536.5 -23s-158.833 5.5 -185.5 16.5
s-58 34.167 -94 69.5s-54 65 -54 89c0 7.33301 4.66699 17.166 14 29.499s36.5 45 81.5 98s86.667 104.333 125 154s80.5 108.167 126.5 175.5c98.667 146 169.334 301 212.001 465c10.667 40 25.5 67.667 44.5 83s47.5 23 85.5 23l552 16c48 0 72 -17.333 72 -52
c0 -16 -5.33301 -35.667 -16 -59c-4.66699 -10 -74 -80.333 -208 -211c-395.333 -384 -593 -590.833 -593 -620.5s129.667 -44.5 389 -44.5h103l54 90l53 88l41 71c28 50 44.667 86.667 50 110c10 44.667 38.667 67 86 67l161 -2c44.667 0 76 -8.83301 94 -26.5
s27 -49 27 -94s-28.333 -146.833 -85 -305.5z" />
    <glyph glyph-name="five" unicode="5" 
d="M1661 790c50 -61.333 75.002 -134.332 75.002 -218.999s-17.333 -159.167 -52 -223.5s-81.334 -119.666 -140.001 -165.999s-126.667 -86.5 -204 -120.5c-152 -67.333 -318.333 -101 -499 -101s-326.334 12.333 -437.001 37s-191.667 53 -243 85
c-16 10 -27 19.167 -33 27.5s-9 22.333 -9 42s7.5 55.5 22.5 107.5s34.333 101 58 147s45.5 69 65.5 69c13.333 0 33.333 -11.5 60 -34.5l92 -83.5c34.667 -32.667 72.334 -65.334 113.001 -98.001c98 -78.667 195.667 -118 293 -118c73.333 0 138.5 17 195.5 51
s100 77.333 129 130s43.5 108.667 43.5 168c0 80.667 -40.167 144.667 -120.5 192s-190.833 71 -331.5 71c-45.333 0 -103.833 -3 -175.5 -9s-109.5 -9 -113.5 -9c-22.667 0 -45 12.5 -67 37.5s-33 45.5 -33 61.5s5 39.667 15 71s25 73.666 45 126.999l59.5 156.5l74.5 192
l74 191.5c6.66699 16.667 26.667 36.667 60 60s57.5 35 72.5 35s51.167 -2.33301 108.5 -7c179.333 -16 324.5 -24 435.5 -24s189.167 3.16699 234.5 9.5s105.333 19.166 180 38.499c23.333 0 44 -6.5 62 -19.5s27 -28.833 27 -47.5c0 -106 -9.5 -192.167 -28.5 -258.5
s-42.333 -113.166 -70 -140.499s-67.5 -41 -119.5 -41s-158 16.833 -318 50.5s-314.333 71.5 -463 113.5l-219 -480c169.333 65.333 335.666 98 498.999 98c295.333 0 489.333 -56.333 582 -169z" />
    <glyph glyph-name="six" unicode="6" 
d="M1775 1598c0 -31.333 -19.998 -49.335 -59.998 -54.002c-188.667 -23.333 -354.334 -80 -497.001 -170s-252.5 -205.667 -329.5 -347s-115.5 -298.666 -115.5 -471.999c0 -92 18.667 -178 56 -258c18.667 -40 44.667 -72.5 78 -97.5s74.5 -37.5 123.5 -37.5
s96.167 19.833 141.5 59.5s80.666 92.334 105.999 158.001s38 134.5 38 206.5c0 149.333 -45 224 -135 224c-19.333 0 -43 -4.16699 -71 -12.5s-46.667 -12.5 -56 -12.5c-48 0 -72 18.667 -72 56c0 30 13.333 59 40 87c92 95.333 218.667 143 380 143
c122 0 221.5 -34.667 298.5 -104s115.5 -160.333 115.5 -273s-22.833 -214.167 -68.5 -304.5s-106.5 -166.5 -182.5 -228.5s-164.333 -111 -265 -147s-207.167 -54 -319.5 -54s-215 13 -308 39s-173.167 65 -240.5 117c-140.667 106.667 -211 268.334 -211 485.001
c0 123.333 23.333 240.666 70 351.999s111 209.333 193 294s177.167 158 285.5 220s226.333 109.167 354 141.5s245 48.5 352 48.5s183.667 -3.5 230 -10.5s69.5 -23.167 69.5 -48.5z" />
    <glyph glyph-name="seven" unicode="7" horiz-adv-x="1614" 
d="M394 -22c-60 0 -89.9961 31.333 -89.9961 94s24.833 137.667 74.5 225s113.5 175 191.5 263s166.667 178.667 266 272c184.667 174 372.334 328.667 563.001 464c-55.333 7.33301 -121.5 11 -198.5 11s-156.833 -8.83301 -239.5 -26.5s-154.334 -39.167 -215.001 -64.5
s-116 -50.666 -166 -75.999c-118.667 -61.333 -191.5 -92 -218.5 -92s-47.833 6.66699 -62.5 20s-22 29.666 -22 48.999c0 132 24.167 244.833 72.5 338.5s103.166 155.5 164.499 185.5c27.333 13.333 68.666 20 123.999 20c163.333 0 437.666 -73 822.999 -219
c52 52 92.333 89 121 111s54.167 33 76.5 33s49.666 -14.167 81.999 -42.5s48.5 -55 48.5 -80s-12.667 -59.5 -38 -103.5s-59 -93.5 -101 -148.5l-140.5 -179.5c-51.667 -64.667 -104.834 -135.167 -159.501 -211.5s-106 -153.5 -154 -231.5
c-109.333 -177.333 -179 -349.666 -209 -516.999c-5.33301 -30.667 -19.666 -51.334 -42.999 -62.001c-46.667 -21.333 -230 -32 -550 -32z" />
    <glyph glyph-name="eight" unicode="8" 
d="M838 1590c138 54 291.505 81.001 460.505 81.001s296.833 -30 383.5 -90s130 -141.333 130 -244c0 -53.333 -14.5 -105.5 -43.5 -156.5s-65.833 -92 -110.5 -123s-89.334 -46.5 -134.001 -46.5c-18.667 0 -34 5 -46 15s-18 22.833 -18 38.5s4.5 29.5 13.5 41.5
s19.833 23.667 32.5 35s25.334 24 38.001 38c30.667 34 46 80.333 46 139s-20.333 104.167 -61 136.5s-99.167 48.5 -175.5 48.5s-142.833 -19.833 -199.5 -59.5s-85 -90.5 -85 -152.5c0 -64 44 -129.667 132 -197c39.333 -30 82.666 -61 129.999 -93
s94.666 -66 141.999 -102s90.666 -73.667 129.999 -113c88 -86.667 132 -184 132 -292c0 -220.667 -121.667 -376 -365 -466c-144 -52.667 -318 -79 -522 -79c-274 0 -472 63.333 -594 190c-60 62.667 -90 135.667 -90 219c0 191.333 172 334.666 516 429.999
c-68.667 54 -122.167 109 -160.5 165s-57.5 119 -57.5 189s16.667 135 50 195s77.666 110.167 132.999 150.5s119.666 74.5 192.999 102.5zM535.005 341.001c0 -65.333 28.334 -118.833 85.001 -160.5s127.167 -62.5 211.5 -62.5s156 22.5 215 67.5s88.5 99.5 88.5 163.5
c0 33.333 -6.5 60.166 -19.5 80.499s-23.833 36.5 -32.5 48.5s-21.334 25.5 -38.001 40.5l-42.5 38c-11.667 10.333 -28.5 23.5 -50.5 39.5l-52 37c-56.667 37.333 -95 63.333 -115 78c-166.667 -93.333 -250 -216.666 -250 -369.999z" />
    <glyph glyph-name="nine" unicode="9" 
d="M239 1c0 31.333 19.998 49.334 59.998 54.001c188.667 23.333 354.334 80 497.001 170s252.5 205.667 329.5 347s115.5 298.666 115.5 471.999c0 92 -18.667 178 -56 258c-18.667 40 -44.667 72.5 -78 97.5s-74.5 37.5 -123.5 37.5s-96.167 -19.833 -141.5 -59.5
s-80.666 -92.334 -105.999 -158.001s-38 -134.5 -38 -206.5c0 -149.333 45 -224 135 -224c19.333 0 43 4.16699 71 12.5s46.667 12.5 56 12.5c48 0 72 -18.667 72 -56c0 -30 -13.333 -59 -40 -87c-92 -95.333 -218.667 -143 -380 -143c-122 0 -221.5 34.667 -298.5 104
s-115.5 160.333 -115.5 273s22.833 214.167 68.5 304.5s106.5 166.5 182.5 228.5s164.333 111 265 147s207.167 54 319.5 54s215 -13 308 -39s173.167 -64.667 240.5 -116c140.667 -107.333 211 -269.333 211 -486c0 -123.333 -23.333 -240.666 -70 -351.999
s-111 -209.333 -193 -294s-177.167 -158 -285.5 -220s-226.333 -109.167 -354 -141.5s-245 -48.5 -352 -48.5s-183.667 3.5 -230 10.5s-69.5 23.167 -69.5 48.5z" />
    <glyph glyph-name="colon" unicode=":" horiz-adv-x="1198" 
d="M820 85c-38.667 -43.333 -89.502 -77.666 -152.502 -102.999s-131.667 -38 -206 -38s-137.166 19 -188.499 57s-77 84 -77 138s19.833 103.167 59.5 147.5s90.834 79.166 153.501 104.499s131.167 38 205.5 38s137 -19.5 188 -58.5s76.5 -85.333 76.5 -139
s-19.667 -102.5 -59 -146.5zM1012 785c-38.667 -43.333 -89.502 -77.666 -152.502 -102.999s-131.667 -38 -206 -38s-137.166 19 -188.499 57s-77 84 -77 138s19.833 103.167 59.5 147.5s90.834 79.166 153.501 104.499s131.167 38 205.5 38s137 -19.5 188 -58.5
s76.5 -85.333 76.5 -139s-19.667 -102.5 -59 -146.5z" />
    <glyph glyph-name="semicolon" unicode=";" horiz-adv-x="1198" 
d="M549 -32c-21.333 -3.33301 -41.998 -4.99805 -61.998 -4.99805c-94 0 -163.5 17 -208.5 51s-67.5 78.333 -67.5 133c0 75.333 37.833 141.166 113.5 197.499s162.667 84.5 261 84.5s174.333 -22 228 -66s80.5 -100 80.5 -168s-15.5 -136.5 -46.5 -205.5
s-70.667 -131.333 -119 -187s-104.166 -101.834 -167.499 -138.501s-121 -55 -173 -55s-78 15.667 -78 47c0 10 4.16699 19.5 12.5 28.5s28.166 24.167 59.499 45.5s63.666 54.5 96.999 99.5s56.666 91.167 69.999 138.5zM992.002 785.002
c-38.667 -43.333 -89.502 -77.666 -152.502 -102.999s-131.667 -38 -206 -38s-137.166 19 -188.499 57s-77 84 -77 138s19.833 103.167 59.5 147.5s90.834 79.166 153.501 104.499s131.167 38 205.5 38s137 -19.5 188 -58.5s76.5 -85.333 76.5 -139
s-19.667 -102.5 -59 -146.5z" />
    <glyph glyph-name="less" unicode="&#x3c;" horiz-adv-x="1479" 
d="M1099 241c20 -10.667 29.999 -30.165 29.999 -58.498s-17.5 -61 -52.5 -98s-66.167 -55.5 -93.5 -55.5c-6 0 -12 2 -18 6c-260.667 175.333 -483.667 319.666 -669 432.999c-19.333 11.333 -29 41.5 -29 90.5s34.333 90.833 103 125.5c157.333 80 318 167.167 482 261.5
l263.5 151.5c11.667 6.66699 19.834 10 24.501 10c16.667 0 37.5 -19.667 62.5 -59s37.5 -69.333 37.5 -90c0 -44.667 -17.667 -75.334 -53 -92.001c-198 -94 -406 -200 -624 -318c183.333 -110.667 362 -213 536 -307z" />
    <glyph glyph-name="equal" unicode="=" horiz-adv-x="1479" 
d="M267 275c-34 0 -51 19.667 -51 59c0 58.667 5.33301 96 16 112c21.333 30 48.833 46.833 82.5 50.5s76.5 5.5 128.5 5.5l418 -9l354 10c34 0 51 -19.667 51 -59c0 -58.667 -5.33301 -96 -16 -112c-21.333 -30 -48.833 -46.833 -82.5 -50.5s-76.5 -5.5 -128.5 -5.5l-418 9
zM371 735c-34 0 -51 19.667 -51 59c0 58.667 5.33301 96 16 112c21.333 30 48.833 46.833 82.5 50.5s76.5 5.5 128.5 5.5l418 -9l354 10c34 0 51 -19.667 51 -59c0 -58.667 -5.33301 -96 -16 -112c-21.333 -30 -48.833 -46.833 -82.5 -50.5s-76.5 -5.5 -128.5 -5.5l-418 9z
" />
    <glyph glyph-name="greater" unicode="&#x3e;" horiz-adv-x="1479" 
d="M423 875c-20 10.667 -29.999 30.165 -29.999 58.498s17.5 61 52.5 98s66.167 55.5 93.5 55.5c6 0 12 -2 18 -6c260.667 -175.333 483.667 -319.666 669 -432.999c19.333 -11.333 29 -41.5 29 -90.5s-34.333 -90.833 -103 -125.5c-157.333 -80 -318 -167.167 -482 -261.5
l-263.5 -151.5c-11.667 -6.66699 -19.834 -10 -24.501 -10c-16.667 0 -37.5 19.667 -62.5 59s-37.5 69.333 -37.5 90c0 44.667 17.667 75.334 53 92.001c198 94 406 200 624 318c-183.333 110.667 -362 213 -536 307z" />
    <glyph glyph-name="question" unicode="?" horiz-adv-x="1534" 
d="M394 1209c-15.333 -8.66699 -38.0039 -12.9971 -68.0039 -12.9971s-45 12.667 -45 38c0 49.333 26.833 129.833 80.5 241.5s97.334 176.667 131.001 195s96.834 34.5 189.501 48.5s185.834 21 279.501 21s180.167 -7.16699 259.5 -21.5s151.5 -36.166 216.5 -65.499
s116.167 -69.666 153.5 -120.999s56 -108.333 56 -171s-12.5 -119.334 -37.5 -170.001s-58.667 -95.834 -101 -135.501s-89.666 -77.167 -141.999 -112.5s-108.166 -69.666 -167.499 -102.999l-169 -96c-127.333 -71.333 -219 -141.333 -275 -210
c-8 -9.33301 -22.167 -14 -42.5 -14s-53.333 16.667 -99 50s-68.5 66.666 -68.5 99.999s18.5 73.166 55.5 119.499s81.833 92.333 134.5 138l157 134.5c126.667 107.333 190 181.666 190 222.999c0 22 -11.5 39.833 -34.5 53.5s-55.167 20.5 -96.5 20.5
c-127.333 0 -231.833 -12.833 -313.5 -38.5s-162.834 -62.834 -243.501 -111.501zM887.996 85.0029c-38.667 -43.333 -89.502 -77.666 -152.502 -102.999s-131.667 -38 -206 -38s-137.166 19 -188.499 57s-77 84 -77 138s19.833 103.167 59.5 147.5
s90.834 79.166 153.501 104.499s131.167 38 205.5 38s137 -19.5 188 -58.5s76.5 -85.333 76.5 -139s-19.667 -102.5 -59 -146.5z" />
    <glyph glyph-name="at" unicode="@" horiz-adv-x="2961" 
d="M1844 1061l458 -20.9961c17.333 0 30.333 -5.16699 39 -15.5s13 -28.5 13 -54.5s-12.667 -76.833 -38 -152.5s-53 -148.834 -83 -219.501c-80.667 -191.333 -121 -317 -121 -377c0 -29.333 8.66699 -51.166 26 -65.499s46.666 -21.5 88 -21.5
c134.667 0 243.667 49.833 327 149.5s125 234.5 125 404.5c0 196.667 -91.5 349.5 -274.5 458.5s-450.5 163.5 -802.5 163.5c-482.667 0 -842.334 -127 -1079 -381c-143.333 -154 -215 -335.333 -215 -544c0 -100 18.333 -189.167 55 -267.5s86.5 -143.5 149.5 -195.5
s139.833 -94.667 230.5 -128c170.667 -63.333 376.334 -95 617.001 -95s475.667 21.167 705 63.5s431 102.5 605 180.5l34 -85c-182 -93.333 -391 -164.666 -627 -213.999s-475.667 -74 -719 -74c-614 0 -992.333 165 -1135 495c-40 91.333 -60 203.666 -60 336.999
s33.167 265.333 99.5 396s161 244.667 284 342s278.333 174 466 230s397.5 84 629.5 84s438 -31.5 618 -94.5s319.333 -151.667 418 -266s148 -245.5 148 -393.5c0 -302.667 -121 -513.334 -363 -632.001c-146 -72 -330 -108 -552 -108
c-117.333 0 -211.666 11.167 -282.999 33.5s-120.333 63.166 -147 122.499c-38.667 -39.333 -94.334 -75.166 -167.001 -107.499s-149.667 -48.5 -231 -48.5s-148.5 7.16699 -201.5 21.5s-101.833 36.166 -146.5 65.499s-80.167 69.666 -106.5 120.999
s-39.5 110.833 -39.5 178.5s11 135.334 33 203.001s55.5 132.167 100.5 193.5s98.5 115.666 160.5 162.999s136.333 85 223 113s179.667 42 279 42c158.667 0 279.667 -37.333 363 -112c0.666992 5.33301 1 13.666 1 24.999l-1 37c0 33.333 32.333 50 97 50zM1314 214.004
c125.333 0 230 95.998 314 287.998c38.667 88 58 159.333 58 214s-9.16699 92.334 -27.5 113.001s-54.333 31 -108 31s-111.667 -24.833 -174 -74.5s-112.5 -112.167 -150.5 -187.5s-57 -143.166 -57 -203.499s13.333 -105.5 40 -135.5s61.667 -45 105 -45z" />
    <glyph glyph-name="A" unicode="A" horiz-adv-x="1880" 
d="M1183 -40c-222 0 -333 73.666 -333 220.999c0 84 53 251.833 159 503.5s159 426.167 159 523.5c0 54.667 -20.167 93.5 -60.5 116.5s-98.666 34.5 -174.999 34.5s-153.833 -6.66699 -232.5 -20s-129.167 -20 -151.5 -20s-33.5 10 -33.5 30c0 26 47 60.333 141 103
c180.667 82.667 379.667 124 597 124c172 0 300.833 -31 386.5 -93s128.5 -162.667 128.5 -302c0 -82.667 -14.667 -186.167 -44 -310.5s-58.5 -241.166 -87.5 -350.499s-43.5 -184.333 -43.5 -225s7.66699 -69 23 -85c19.333 -20 56.666 -30 111.999 -30
c34 0 53.167 -3.66699 57.5 -11s6.5 -15 6.5 -23c0 -30.667 -14 -55.667 -42 -75c-106 -74 -295 -111 -567 -111zM601 683.999l255.999 5.99902c46.667 0 70 -13.667 70 -41c0 -19.333 -11 -34.666 -33 -45.999c-77.333 -39.333 -210.666 -64.333 -399.999 -75
c-54 -106.667 -81 -200.334 -81 -281.001c0 -36 4.66699 -69.167 14 -99.5s14 -52.166 14 -65.499c0 -35.333 -22.333 -59.166 -67 -71.499s-110.167 -18.5 -196.5 -18.5s-143.166 7.83301 -170.499 23.5s-41 43.5 -41 83.5c0 74.667 21.833 157 65.5 247
s99.5 176.167 167.5 258.5s143.333 163.166 226 242.499s163 147.666 241 204.999c173.333 128.667 291.333 193 354 193c28.667 0 43 -8.66699 43 -26s-14 -36.666 -42 -57.999c-59.333 -43.333 -130.333 -109.333 -213 -198s-156.334 -181.667 -221.001 -279h14z" />
    <glyph glyph-name="B" unicode="B" horiz-adv-x="2046" 
d="M1287 -40c-195.333 0 -374.66 34.6719 -537.993 104.005c-34 -34 -76.167 -56.5 -126.5 -67.5s-117.333 -16.5 -201 -16.5s-164.834 9.66699 -243.501 29s-141.167 43 -187.5 71s-69.5 55.333 -69.5 82c0 15.333 6.66699 27.666 20 36.999s28.666 14 45.999 14
c61.333 0 106.833 9.83301 136.5 29.5s58.334 56.167 86.001 109.5s54.5 114.833 80.5 184.5l72.5 195.5c22.333 60.667 47.5 122 75.5 184c62 135.333 139.667 225.333 233 270c44.667 21.333 103 37.833 175 49.5s128.5 17.5 169.5 17.5s67.667 -0.5 80 -1.5
s24.833 -3.16699 37.5 -6.5c25.333 -6.66699 38 -20.667 38 -42c0 -14.667 -2.83301 -28.167 -8.5 -40.5s-20.834 -38.5 -45.501 -78.5s-57.334 -123.667 -98.001 -251c162.667 10 287 43.833 373 101.5s129 131.5 129 221.5c0 122 -103.333 191.333 -310 208
c-42 3.33301 -103.333 5 -184 5s-170.334 -9.5 -269.001 -28.5s-175.834 -39.833 -231.501 -62.5l-150.5 -62.5c-44.667 -19 -73.334 -28.5 -86.001 -28.5c-34.667 0 -52 11.5 -52 34.5s21.667 50.5 65 82.5s103.166 63.667 179.499 95s160.833 60.333 253.5 87
c209.333 60 425.666 90 648.999 90s392.833 -34.833 508.5 -104.5s173.5 -161.834 173.5 -276.501s-57.5 -210 -172.5 -286s-272.833 -118 -473.5 -126c128.667 -1.33301 247 -32.333 355 -93c52 -28.667 94.333 -66.334 127 -113.001s49 -100.667 49 -162
s-12.833 -118.833 -38.5 -172.5s-59.667 -97.834 -102 -132.501s-92.833 -63.334 -151.5 -86.001c-107.333 -42.667 -231.666 -64 -372.999 -64zM991.006 745.005l-74.998 -254.502c-37.333 -127.667 -63.333 -213 -78 -256s-22.334 -65.167 -23.001 -66.5
c21.333 -2.66699 55.5 -4 102.5 -4s99.667 6.5 158 19.5s110.666 32.833 156.999 59.5s82.666 62.667 108.999 108s39.5 100.333 39.5 165s-37.667 118.334 -113 161.001s-167.666 65.334 -276.999 68.001z" />
    <glyph glyph-name="C" unicode="C" 
d="M861 322c63.333 -76 162.67 -113.999 298.003 -113.999c126.667 0 258 21.333 394 64c44.667 14 77.667 21 99 21c38.667 0 58 -11 58 -33c0 -32 -25.333 -66.167 -76 -102.5s-114.667 -68.833 -192 -97.5s-164.833 -52.5 -262.5 -71.5s-190.5 -28.5 -278.5 -28.5
c-156 0 -293.333 24.333 -412 73s-210.667 118.167 -276 208.5s-98 189 -98 296s18 206 54 297s84.833 173.167 146.5 246.5s133.667 141.333 216 204s169.166 115 260.499 157c195.333 89.333 382.666 134 561.999 134s318.666 -36.833 417.999 -110.5
s149 -163.834 149 -270.501c0 -116 -34.333 -217.667 -103 -305c-32.667 -42.667 -76.167 -76.667 -130.5 -102s-115.5 -38 -183.5 -38c-45.333 0 -84 6.33301 -116 19c-60.667 24 -91 58.333 -91 103c0 15.333 17.5 58.666 52.5 129.999l105.5 220.5
c35.333 75.667 53 127.667 53 156s-12 47.833 -36 58.5s-58.167 16 -102.5 16s-94.5 -16.833 -150.5 -50.5s-110 -79.667 -162 -138s-99.667 -123.166 -143 -194.499s-78 -148.5 -104 -231.5s-39 -157.5 -39 -223.5s7.5 -122.333 22.5 -169s37.5 -88 67.5 -124z" />
    <glyph glyph-name="D" unicode="D" horiz-adv-x="2046" 
d="M1041 1360c-84.667 0 -174.834 -8.16797 -270.501 -24.501s-176.167 -34.5 -241.5 -54.5l-178 -54.5c-53.333 -16.333 -85.333 -24.5 -96 -24.5c-36.667 0 -55 12.833 -55 38.5s20 51.834 60 78.501c128.667 86 274.5 150.333 437.5 193s319 64 468 64
s271 -12.333 366 -37s173.5 -58.334 235.5 -101.001s113 -94.667 153 -156c74.667 -114 112 -256.333 112 -427c0 -180 -49.333 -345.667 -148 -497c-108.667 -166 -252.334 -281.333 -431.001 -346c-97.333 -34.667 -201.666 -52 -312.999 -52c-177.333 0 -316 28 -416 84
c-28 -27.333 -62 -44.833 -102 -52.5s-95.333 -11.5 -166 -11.5s-138.167 5.66699 -202.5 17s-120.5 25.833 -168.5 43.5s-87.333 37.334 -118 59.001s-46 41.167 -46 58.5s6.83301 30.833 20.5 40.5s29.167 14.5 46.5 14.5c60 0 104.167 9.5 132.5 28.5
s57.333 54.833 87 107.5s57.167 112.667 82.5 180l71.5 194c22.333 62 47.833 124.667 76.5 188c62 139.333 139.667 231 233 275c46 21.333 104.667 37.833 176 49.5s143 17.5 215 17.5s108 -16.667 108 -50c0 -25.333 -15.167 -62 -45.5 -110s-62.833 -122.333 -97.5 -223
s-73.167 -220.667 -115.5 -360s-75.166 -241.333 -98.499 -306l-17 -44c20.667 -2 53 -3 97 -3s93.167 9.33301 147.5 28s101.5 44.167 141.5 76.5s76.167 70.5 108.5 114.5s59 90.833 80 140.5s38.5 102.167 52.5 157.5c26 102 39 211.333 39 328
c0 238.667 -140.333 358 -421 358z" />
    <glyph glyph-name="E" unicode="E" 
d="M1386 919c25.333 0 37.999 -19.5039 37.999 -58.5039s-12.667 -72.5 -38 -100.5s-52.833 -43 -82.5 -45s-60.334 -5.33301 -92.001 -10s-67.667 -11.167 -108 -19.5s-77.166 -19.5 -110.499 -33.5s-64.333 -30.333 -93 -49c-62.667 -40 -94 -94.667 -94 -164
c0 -46 11.5 -86.167 34.5 -120.5s53.167 -60.833 90.5 -79.5c72 -36 151.667 -54 239 -54c134 0 305.333 28.667 514 86c12 3.33301 22.333 5 31 5c25.333 0 38 -12.667 38 -38c0 -46.667 -47.5 -92 -142.5 -136s-210.833 -78.667 -347.5 -104s-265.834 -38 -387.501 -38
s-230.5 7.66699 -326.5 23s-181 38.5 -255 69.5s-131.5 72.333 -172.5 124s-61.5 111.167 -61.5 178.5s20.167 127.833 60.5 181.5s93.5 98 159.5 133s142.667 64.5 230 88.5c164.667 44 346.334 66 545.001 66c-141.333 7.33301 -246.833 19.333 -316.5 36
s-124.667 32.834 -165 48.501s-74.166 33.5 -101.499 53.5c-62.667 45.333 -94 102 -94 170s25.5 130.833 76.5 188.5s118.5 104.834 202.5 141.501c174 76 376 114 606 114c312.667 0 527.334 -35 644.001 -105c25.333 -15.333 38 -37.833 38 -67.5
s-21.833 -78.5 -65.5 -146.5s-79 -115 -106 -141s-52 -39 -75 -39s-43.833 8.33301 -62.5 25s-33.334 37.334 -44.001 62.001c-72.667 163.333 -184.667 245 -336 245c-88 0 -162.167 -23.833 -222.5 -71.5s-90.5 -105.667 -90.5 -174s34.833 -127.166 104.5 -176.499
s154.5 -74 254.5 -74z" />
    <glyph glyph-name="F" unicode="F" 
d="M1468 843c96 0 143.999 -22.001 143.999 -66.001c0 -28 -16 -78.5 -48 -151.5s-58.667 -125.167 -80 -156.5s-42.333 -47 -63 -47s-45.334 8.5 -74.001 25.5s-57.834 35.667 -87.501 56s-67.5 39.833 -113.5 58.5s-91.333 29.334 -136 32.001
c-66.667 -238.667 -103.834 -370.667 -111.501 -396s-19.167 -51 -34.5 -77s-33.666 -47.333 -54.999 -64s-43.166 -30.334 -65.499 -41.001s-49.5 -18.667 -81.5 -24c-151.333 -23.333 -298 -17.666 -440 17.001c-79.333 19.333 -142.666 43.166 -189.999 71.499
s-71 55.833 -71 82.5c2 15.333 9.16699 27.5 21.5 36.5s26.833 13.5 43.5 13.5c61.333 0 106.5 9.83301 135.5 29.5s56.5 56 82.5 109s50.5 112.167 73.5 177.5l63.5 180c19.333 54.667 41.666 110.334 66.999 167.001c55.333 122 126 203.667 212 245s216.333 62 391 62
c104 0 156 -17.333 156 -52c0 -13.333 -6.33301 -32.333 -19 -57c-50 -94 -96 -209 -138 -345c56.667 30 122.834 56.5 198.501 79.5s148.834 34.5 219.501 34.5zM1773 1051c-96.667 84.667 -214.501 153.166 -353.501 205.499s-279.167 78.5 -420.5 78.5
c-84.667 0 -186.667 -11.167 -306 -33.5s-207.666 -46.333 -264.999 -72s-95 -38.5 -113 -38.5c-22 0 -33 10.5 -33 31.5s18.333 46.5 55 76.5s90.167 61 160.5 93s149.833 62 238.5 90c202.667 62.667 424.667 94 666 94c157.333 0 289 -6.66699 395 -20
c196.667 -23.333 295 -60.666 295 -111.999c-2 -27.333 -15.333 -72.666 -40 -135.999s-54 -123.833 -88 -181.5s-62 -89.834 -84 -96.501c-14 -4 -29.833 -6 -47.5 -6s-37.5 9 -59.5 27z" />
    <glyph glyph-name="G" unicode="G" horiz-adv-x="2046" 
d="M1557 1373c0 43.333 -56.3359 65.0039 -169.003 65.0039c-48 0 -101.833 -15.167 -161.5 -45.5s-115.167 -72.5 -166.5 -126.5s-97.333 -115 -138 -183c-88.667 -146.667 -133 -297.167 -133 -451.5s30.833 -274.5 92.5 -360.5s155.167 -129 280.5 -129
c10.667 0 18.667 0.333008 24 1c26.667 68 50.834 138.667 72.501 212s32.5 118.166 32.5 134.499s-9.33301 29.833 -28 40.5s-39.334 18 -62.001 22c-60 10.667 -90 30.334 -90 59.001c0 37.333 48 66 144 86s210.5 30 343.5 30s220.833 -6.16699 263.5 -18.5
s64 -32.5 64 -60.5c0 -19.333 -11.667 -52 -35 -98s-61.666 -157.333 -114.999 -334s-92 -283.334 -116 -320.001c-39.333 -60.667 -99.166 -106.167 -179.499 -136.5s-174.5 -45.5 -282.5 -45.5c-198 0 -297 21 -297 63c0 28 25 56.333 75 85
c57.333 33.333 100.333 70.333 129 111c12 18 23.667 38.667 35 62c-91.333 -23.333 -197.333 -35 -318 -35s-226.167 13.167 -316.5 39.5s-162.166 64.166 -215.499 113.499c-103.333 95.333 -155 224.666 -155 387.999c0 96 19 190 57 282s89.333 175.333 154 250
s140 143.667 226 207s176.667 116.666 272 159.999c202 90.667 401.667 136 599 136s344.5 -29.667 441.5 -89s145.5 -142.333 145.5 -249c0 -62 -27.667 -120 -83 -174c-62.667 -61.333 -161 -92 -295 -92c-45.333 0 -84 6.33301 -116 19c-60.667 24 -91 58.333 -91 103
c0 10 18.667 53 56 129s56 126 56 150z" />
    <glyph glyph-name="H" unicode="H" horiz-adv-x="2046" 
d="M434 1227l-118 -24.001c-14.667 0 -25.667 2 -33 6s-11 12.333 -11 25c0 30 30.667 70.167 92 120.5s146 96.5 254 138.5s205.333 63 292 63s148.5 -15 185.5 -45s55.5 -82.167 55.5 -156.5s-15.333 -158.833 -46 -253.5s-74.667 -212 -132 -352l174 5
c46.667 0 70 -13.667 70 -41c0 -19.333 -11 -34.666 -33 -45.999c-57.333 -29.333 -147.666 -51.333 -270.999 -66c-46.667 -116.667 -82.5 -213.667 -107.5 -291s-37.5 -140.333 -37.5 -189l3 -66c0 -20.667 -11.333 -37 -34 -49s-46.334 -18 -71.001 -18l-401 -6
c-74 0 -119 12.667 -135 38c-7.33301 12.667 -11 32.167 -11 58.5s5.66699 64 17 113s47.5 145.333 108.5 289l167 401.5c50.333 124 75.5 205.833 75.5 245.5s-4.33301 66.167 -13 79.5s-22 20 -40 20zM1640 -12.001l-370.998 -6c-74 0 -119 12.667 -135 38
c-7.33301 12.667 -11 28.667 -11 48c0 62.667 24.333 172.834 73 330.501l158.5 499.5c57 175.333 90.167 292.333 99.5 351s14 110.667 14 156s10.167 74.166 30.5 86.499s60 18.5 119 18.5s130.167 3 213.5 9s139.166 9 167.499 9s49.333 -7.83301 63 -23.5
s20.5 -35.5 20.5 -59.5c0 -117.333 -40 -285 -120 -503l-100 -276c-80.667 -221.333 -121 -404 -121 -548l4 -63c0 -20.667 -11.333 -37 -34 -49s-46.334 -18 -71.001 -18z" />
    <glyph glyph-name="I" unicode="I" horiz-adv-x="1366" 
d="M466 594c-162 100 -243.001 229.333 -243.001 388c0 70.667 17.667 136.667 53 198s82 113.333 140 156s124 79.334 198 110.001c146 60 300 90 462 90c100.667 0 169.334 -21.333 206.001 -64c32 -38 48 -87.5 48 -148.5s-14.5 -140.333 -43.5 -238
s-74.667 -233.667 -137 -408s-109.5 -311.333 -141.5 -411s-82 -172.334 -150 -218.001s-162.833 -68.5 -284.5 -68.5s-235.667 15.167 -342 45.5s-159.5 65.166 -159.5 104.499c0 30 22.333 47.333 67 52c66 8 113.833 22.667 143.5 44s57.5 59.333 83.5 114
s59.333 139.334 100 254.001zM647.999 1221c0 16 -4.83105 29 -14.498 39s-21.834 15 -36.501 15s-30.334 -5.5 -47.001 -16.5s-34 -27.833 -52 -50.5c-44.667 -54 -67 -128.667 -67 -224s25.667 -184.333 77 -267c93.333 277.333 140 445.333 140 504z" />
    <glyph glyph-name="J" unicode="J" horiz-adv-x="1366" 
d="M681 -340c-116 -113.333 -272.671 -170 -470.004 -170c-95.333 0 -174 23.333 -236 70s-93 110.167 -93 190.5s14.333 152.833 43 217.5s68 122.667 118 174c96 98.667 216.333 179.667 361 243c16 50 48.667 144.333 98 283c98.667 277.333 148 445.666 148 504.999
c0 21.333 -3.66699 36.5 -11 45.5s-24.833 13.5 -52.5 13.5s-97.167 -24 -208.5 -72c-31.333 -13.333 -62.166 -20 -92.499 -20s-45.5 13.667 -45.5 41c0 18 11 37 33 57c94.667 82 215.334 152.167 362.001 210.5s278.334 87.5 395.001 87.5s195.834 -12.667 237.501 -38
s62.5 -69.666 62.5 -132.999s-18.667 -157.833 -56 -283.5s-92.833 -291.667 -166.5 -498s-125.5 -355 -155.5 -446s-67.667 -178.667 -113 -263s-98 -155.833 -158 -214.5zM129.996 -367c16.667 0 35.333 26.998 56 80.998c30 80 87.333 255.333 172 526
c-77.333 -65.333 -143.333 -141.166 -198 -227.499s-82 -171.166 -82 -254.499s17.333 -125 52 -125z" />
    <glyph glyph-name="K" unicode="K" horiz-adv-x="2216" 
d="M464 1227l-117.999 -23.998c-14.667 0 -25.667 2 -33 6s-11 13.5 -11 28.5s8.5 33.167 25.5 54.5s35.833 39.333 56.5 54c76.667 54.667 167.667 103.334 273 146.001s200.5 64 285.5 64s146 -15 183 -45s55.5 -88.333 55.5 -175
c0 -98.667 -48.667 -259.334 -146 -482.001l-121 -276c-97.333 -220.667 -146 -373 -146 -457l3 -66c0 -20.667 -11.333 -37 -34 -49s-46.334 -18 -71.001 -18l-401 -6c-74 0 -119 12.667 -135 38c-7.33301 12.667 -11 32.167 -11 58.5s4.83301 60.666 14.5 102.999
s36.5 114.666 80.5 216.999s88 198.166 132 287.499c114 232.667 171 382.334 171 449.001c0 34.667 -4.33301 58.667 -13 72s-22 20 -40 20zM1740 1516l408 22.9971c30 0 45 -13 45 -39s-17 -94 -51 -204s-68.833 -192.667 -104.5 -248s-74.667 -101 -117 -137
s-92.833 -66.333 -151.5 -91c-98 -42 -225.333 -73 -382 -93c18 1.33301 45.5 2 82.5 2s70.333 -0.833008 100 -2.5s60.5 -4.66699 92.5 -9s59 -10.833 81 -19.5s42.333 -20 61 -34c36.667 -26.667 55 -67.667 55 -123c0 -14 -3 -38.667 -9 -74s-9 -70.666 -9 -105.999
s3.83301 -64.5 11.5 -87.5s19.167 -40.167 34.5 -51.5c26.667 -18.667 64.667 -28 114 -28s74 -16.667 74 -50c0 -44 -39.667 -84.667 -119 -122c-87.333 -41.333 -224.666 -62 -411.999 -62c-176 0 -288.667 32.667 -338 98c-21.333 29.333 -32 68 -32 116
s12.833 119 38.5 213s38.5 152.833 38.5 176.5s-3.5 44.334 -10.5 62.001s-16 31.167 -27 40.5s-23.333 16.833 -37 22.5s-27.334 9.83398 -41.001 12.501s-26.167 5 -37.5 7c-24.667 5.33301 -37 14.666 -37 27.999c0 29.333 21 52 63 68
c166 58.667 287.333 139.334 364 242.001c39.333 52.667 70.833 108.667 94.5 168s44.5 131 62.5 215c12 58 43.667 87 95 87z" />
    <glyph glyph-name="L" unicode="L" 
d="M510 -8l-399.004 -9.99902c-66 0 -99 22.667 -99 68c0 20.667 8.83301 38.667 26.5 54s40.834 32.833 69.501 52.5s54.667 45.667 78 78s49.166 87 77.499 164s51.5 152.167 69.5 225.5c57.333 232.667 98.5 384.167 123.5 454.5s44 121.666 57 153.999
s27.333 62.166 43 89.499s30.834 51.333 45.501 72s32 39.167 52 55.5s39.167 30 57.5 41s40.833 20.667 67.5 29s52.334 14.833 77.001 19.5s55.334 8.33398 92.001 11.001c55.333 4 129 6 221 6s160.333 -4.33301 205 -13s67 -27 67 -55
c0 -22.667 -25.667 -49.667 -77 -81c-57.333 -35.333 -108 -92.666 -152 -171.999c-47.333 -86.667 -84.333 -167.834 -111 -243.501l-63 -182.5l-56 -170l-56 -168c-62.667 -179.333 -148.334 -292.666 -257.001 -339.999c168 8.66699 307 38.334 417 89.001
c60 27.333 111.5 53 154.5 77s91.167 59.667 144.5 107c70 62.667 132.333 122.5 187 179.5l89 92.5c17.333 18 38.333 27 63 27s44.667 -6 60 -18s23 -27.667 23 -47c0 -76.667 -24.667 -194.334 -74 -353.001c-17.333 -54.667 -34.666 -99.334 -51.999 -134.001
s-39.666 -65.667 -66.999 -93c-52 -52 -135.667 -78 -251 -78z" />
    <glyph glyph-name="M" unicode="M" horiz-adv-x="3073" 
d="M444 1227l-117.997 -24.001c-14.667 0 -25.667 2 -33 6s-11 13.667 -11 29c0 24 30 62.167 90 114.5s144.333 99.333 253 141s204.834 62.5 288.501 62.5s140.834 -17.167 171.501 -51.5s46 -90.5 46 -168.5c0 -10 -1.33301 -27 -4 -51c242 194.667 464.333 292 667 292
c95.333 0 167.666 -21.667 216.999 -65s74 -104.666 74 -183.999v-9c220.667 172 418 258 592 258c98.667 0 176.334 -23.167 233 -69.5c56.667 -46.333 85 -108.666 85 -186.999s-17.167 -168.166 -51.5 -269.499s-71.833 -192 -112.5 -272
c-109.333 -215.333 -164 -358 -164 -428c0 -44.667 13.333 -79.834 40 -105.501s54.667 -41 84 -46s48.5 -8.66699 57.5 -11s19.167 -5.83301 30.5 -10.5c21.333 -8 32 -21.667 32 -41c0 -47.333 -51.5 -88.666 -154.5 -123.999s-229.833 -53 -380.5 -53
c-200 0 -300 74.333 -300 223c0 66 16.667 148.5 50 247.5s70 190.833 110 275.5c106 226 159 377 159 453c0 28 -8.16699 50.667 -24.5 68s-41.833 26 -76.5 26c-60.667 0 -137.667 -24 -231 -72c-26 -101.333 -76.333 -240.833 -151 -418.5s-128 -319.334 -160 -425.001
s-50 -196.5 -54 -272.5c-1.33301 -22 -7.5 -40.333 -18.5 -55s-25.167 -22 -42.5 -22l-406 -6c-71.333 0 -115 12 -131 36c-7.33301 11.333 -11 28 -11 50s7.66699 65 23 129s45.166 153.167 89.499 267.5s86.5 213.833 126.5 298.5c100 214 150 347.333 150 400
c0 60.667 -36.667 91 -110 91s-161.333 -28.667 -264 -86c-22.667 -86 -64.834 -204.5 -126.501 -355.5s-115.334 -288.5 -161.001 -412.5s-68.5 -217 -68.5 -279l3 -66c0 -20.667 -11.333 -37 -34 -49s-46.334 -18 -71.001 -18l-371 -6c-74 0 -119 12.667 -135 38
c-7.33301 12.667 -11 32.167 -11 58.5s5.66699 64.166 17 113.499s47.5 145.833 108.5 289.5l167 400.5c50.333 123.333 75.5 205 75.5 245s-4.33301 66.667 -13 80s-22 20 -40 20z" />
    <glyph glyph-name="N" unicode="N" horiz-adv-x="2218" 
d="M444 1227l-117.999 -24.001c-14.667 0 -25.667 2 -33 6s-11 12.333 -11 25c0 30.667 31 71 93 121s146.833 96 254.5 138s204.667 63 291 63s148 -15 185 -45s55.5 -88.333 55.5 -175l-3 -45c132.667 102.667 251.667 176 357 220s208.5 66 309.5 66
s178.833 -21.167 233.5 -63.5s82 -103.5 82 -183.5c0 -82 -38.667 -213.333 -116 -394l-96 -222c-77.333 -178.667 -116 -295 -116 -349c0 -96 47.667 -152.333 143 -169c51.333 -8.66699 81 -18.167 89 -28.5s12 -20.5 12 -30.5c0 -47.333 -51.5 -88.666 -154.5 -123.999
s-218.167 -53 -345.5 -53c-250.667 0 -376 74.333 -376 223c0 104 36 241 108 411l90 209c72 163.333 108 277.5 108 342.5s-50.333 97.5 -151 97.5c-58.667 0 -124.667 -20.667 -198 -62c-32.667 -128.667 -103 -320 -211 -574c-98.667 -230.667 -148 -392.667 -148 -486
l3 -66c0 -20.667 -11.333 -37 -34 -49s-46.334 -18 -71.001 -18l-401 -6c-74 0 -119 12.667 -135 38c-7.33301 12.667 -11 32.167 -11 58.5s5.66699 64 17 113s47.5 145.333 108.5 289l167 401.5c50.333 124 75.5 205.833 75.5 245.5s-4.33301 66.167 -13 79.5
s-22 20 -40 20z" />
    <glyph glyph-name="O" unicode="O" horiz-adv-x="2048" 
d="M1041 1087c-110.667 -90 -194.999 -223.666 -252.999 -400.999c-30.667 -96 -46 -193.333 -46 -292c0 -172.667 56.333 -259 169 -259c57.333 0 116.666 23.667 177.999 71s116.5 108.833 165.5 184.5s89.333 165.5 121 269.5s47.5 208 47.5 312
c0 146.667 -26 251 -78 313s-139.333 93 -262 93c-68 0 -141.333 -7.33301 -220 -22s-145.167 -30.834 -199.5 -48.501l-146.5 -48.5c-43.333 -14.667 -68.333 -22 -75 -22c-24.667 0 -37 10 -37 30c0 16 16.5 36.833 49.5 62.5s78.833 52.667 137.5 81
s123.667 54.833 195 79.5c166 57.333 328.333 86 487 86c304.667 0 520 -88.667 646 -266c74 -104.667 111 -234 111 -388c0 -116.667 -20.333 -226.167 -61 -328.5s-97.334 -191.833 -170.001 -268.5s-158 -142.667 -256 -198c-198 -111.333 -422.333 -167 -673 -167
c-490.667 0 -736 167.667 -736 503c0 94 20.333 184.167 61 270.5s94.167 161.333 160.5 225s140.833 119.5 223.5 167.5c168 96 336.667 144 506 144c26.667 0 45.834 -4.83301 57.501 -14.5s17.5 -19.5 17.5 -29.5s-1.5 -18.5 -4.5 -25.5s-8.83301 -15.167 -17.5 -24.5
l-23 -24z" />
    <glyph glyph-name="P" unicode="P" horiz-adv-x="2046" 
d="M1141 1099c-40.667 -65.333 -107.335 -245.662 -200.002 -540.995c22 -1.33301 54.667 -2 98 -2c133.333 0 245.833 45.667 337.5 137s137.5 210 137.5 356c0 213.333 -128.333 320 -385 320c-101.333 0 -199.166 -7.33301 -293.499 -22s-168.833 -30.667 -223.5 -48
l-151 -48c-46 -14.667 -76.333 -22 -91 -22c-33.333 0 -50 12 -50 36s22.833 48.5 68.5 73.5s97.834 49.333 156.501 73s131.334 48.5 218.001 74.5c196.667 60 409.667 90 639 90c302.667 0 508.667 -67.333 618 -202c59.333 -72.667 89 -160.334 89 -263.001
c0 -194.667 -81 -355.334 -243 -482.001c-138 -108 -317.333 -176.667 -538 -206c-64.667 -8.66699 -138.5 -13 -221.5 -13s-151.833 5.66699 -206.5 17l-65.5 -206c-15.667 -47.333 -33.167 -85.333 -52.5 -114s-39.833 -51.334 -61.5 -68.001
s-49.167 -29.334 -82.5 -38.001c-52.667 -14 -122.834 -21 -210.501 -21s-170.834 9.66699 -249.501 29s-141.167 43 -187.5 71s-69.5 55.333 -69.5 82c0 15.333 6.66699 27.666 20 36.999s28.666 14 45.999 14c61.333 0 106.833 9.83301 136.5 29.5
s58.334 56.167 86.001 109.5s55.334 115.5 83.001 186.5l77.5 198c24 61 51.333 123.167 82 186.5c67.333 138.667 147 229.667 239 273c44.667 21.333 103 37.833 175 49.5s128.5 17.5 169.5 17.5s67.667 -0.5 80 -1.5s24.833 -3.16699 37.5 -6.5
c25.333 -6.66699 38 -20.667 38 -42c0 -14.667 -2.83301 -28.167 -8.5 -40.5s-19.5 -36.833 -41.5 -73.5z" />
    <glyph glyph-name="Q" unicode="Q" horiz-adv-x="2048" 
d="M690 150c209.333 -160 521.002 -240 935.002 -240c136 0 259.333 19.333 370 58c28 9.33301 50.333 14 67 14c35.333 0 53 -17 53 -51c0 -26.667 -20.333 -71 -61 -133c-134.667 -205.333 -287.667 -308 -459 -308c-88 0 -172.333 18.667 -253 56
c-116.667 52.667 -240.334 138 -371.001 256s-224.334 234 -281.001 348zM1041 1087c-110.667 -90 -194.999 -223.666 -252.999 -400.999c-30.667 -96 -46 -193.333 -46 -292c0 -172.667 56.333 -259 169 -259c57.333 0 116.666 23.667 177.999 71
s116.5 108.833 165.5 184.5s89.333 165.5 121 269.5s47.5 208 47.5 312c0 146.667 -26 251 -78 313s-139.333 93 -262 93c-68 0 -141.333 -7.33301 -220 -22s-145.167 -30.834 -199.5 -48.501l-146.5 -48.5c-43.333 -14.667 -68.333 -22 -75 -22c-24.667 0 -37 10 -37 30
c0 16 16.5 36.833 49.5 62.5s78.833 52.667 137.5 81s123.667 54.833 195 79.5c166 57.333 328.333 86 487 86c304.667 0 520 -88.667 646 -266c74 -104.667 111 -234 111 -388c0 -116.667 -20.333 -226.167 -61 -328.5s-97.334 -191.833 -170.001 -268.5
s-158 -142.667 -256 -198c-198 -111.333 -422.333 -167 -673 -167c-490.667 0 -736 167.667 -736 503c0 94 20.333 184.167 61 270.5s94.167 161.333 160.5 225s140.833 119.5 223.5 167.5c168 96 336.667 144 506 144c26.667 0 45.834 -4.83301 57.501 -14.5
s17.5 -19.5 17.5 -29.5s-1.5 -18.5 -4.5 -25.5s-8.83301 -15.167 -17.5 -24.5l-23 -24z" />
    <glyph glyph-name="R" unicode="R" horiz-adv-x="2218" 
d="M993 624l-48.998 -0.999023c-44 -128 -80 -238.833 -108 -332.5s-50.5 -154.667 -67.5 -183s-35.333 -51 -55 -68s-44.834 -29.833 -75.501 -38.5c-50.667 -14 -119.334 -21 -206.001 -21s-169.834 9.66699 -249.501 29s-143.167 43.166 -190.5 71.499
s-71 55.833 -71 82.5c0 15.333 6.5 27.5 19.5 36.5s28.167 13.5 45.5 13.5c61.333 0 106.5 9.83301 135.5 29.5s56.5 55.834 82.5 108.501s51.833 113.667 77.5 183l72 193c22.333 59.333 48.166 120 77.499 182c62.667 133.333 140.334 222.333 233.001 267
c44.667 21.333 104 37.833 178 49.5s131.667 17.5 173 17.5s68.333 -0.5 81 -1.5s25.334 -3.16699 38.001 -6.5c26 -6.66699 39 -21.334 39 -44.001c0 -14 -2.66699 -27 -8 -39s-21.5 -40.833 -48.5 -86.5s-73.167 -160.5 -138.5 -344.5c354 41.333 531 170.666 531 387.999
c0 73.333 -23 128.333 -69 165c-47.333 36.667 -95.333 59 -144 67c-72.667 12 -152.5 18 -239.5 18s-177.833 -8.16699 -272.5 -24.5s-168.167 -34.333 -220.5 -54l-140 -54c-41 -16.333 -67.167 -24.5 -78.5 -24.5c-35.333 0 -53 11.667 -53 35c0 29.333 19 56 57 80
c132 84.667 283 149 453 193s383 66 639 66c131.333 0 241 -13.5 329 -40.5s155.5 -55.333 202.5 -85s85.5 -68.834 115.5 -117.501s45 -102 45 -160s-11 -109.167 -33 -153.5s-52.167 -82.333 -90.5 -114s-86.833 -60.167 -145.5 -85.5
c-101.333 -43.333 -238.333 -78.666 -411 -105.999c132 0 236.333 -22.667 313 -68s115 -109.333 115 -192l-18 -178c0 -48 24.333 -75.333 73 -82c20.667 -3.33301 41.334 -6 62.001 -8c48.667 -4 73 -22.667 73 -56c0 -45.333 -56.5 -85 -169.5 -119
s-236.833 -51 -371.5 -51c-254 0 -381 74.333 -381 223c0 36 11 87.333 33 154s33 111.334 33 134.001c0 42 -17.333 78 -52 108s-91.334 45 -170.001 45z" />
    <glyph glyph-name="S" unicode="S" 
d="M118 78c-16.667 8 -25.001 24.668 -25.001 50.001s20.333 79.5 61 162.5s72.667 124.5 96 124.5c13.333 0 34 -9.16699 62 -27.5l97.5 -66.5c37 -26 77.167 -51.667 120.5 -77c105.333 -62.667 207.666 -94 306.999 -94c49.333 0 84.666 10 105.999 30s32 40.167 32 60.5
s-11.333 43.333 -34 69s-52.167 52.167 -88.5 79.5l-120.5 86.5c-44 30.333 -88 62.5 -132 96.5s-84 68 -120 102c-82 77.333 -123 152.666 -123 225.999c0 52 13.833 99 41.5 141s63 76 106 102s91.833 47.667 146.5 65c98 32 199 48 303 48c28.667 0 50 -4.33301 64 -13
s21 -18.667 21 -30s-5 -28.5 -15 -51.5s-15 -43.5 -15 -61.5s12.167 -41 36.5 -69s55.833 -56.667 94.5 -86l128 -94c46.667 -33.333 93.334 -68.666 140.001 -105.999s89.334 -75.333 128.001 -114c87.333 -87.333 131 -171.833 131 -253.5
s-21.167 -149.834 -63.5 -204.501s-101.166 -97 -176.499 -127s-158 -51.833 -248 -65.5s-199.667 -20.5 -329 -20.5s-271.833 13.5 -427.5 40.5s-257.167 52.833 -304.5 77.5zM1774 1057c-87.333 104 -195.499 181.499 -324.499 232.499s-263.5 76.5 -403.5 76.5
c-256.667 0 -504 -48.333 -742 -145c-32 -12.667 -54.667 -19 -68 -19c-26.667 0 -40 12.667 -40 38c0 20.667 17.833 45.334 53.5 74.001s87 58.167 154 88.5s142.833 58.5 227.5 84.5c193.333 59.333 400.666 89 621.999 89c327.333 0 574.333 -46 741 -138
c9.33301 -5.33301 13.5 -21.166 12.5 -47.499s-13.167 -66.833 -36.5 -121.5s-51.5 -105.334 -84.5 -152.001s-61.167 -70 -84.5 -70c-6 6.66699 -15 10 -27 10z" />
    <glyph glyph-name="T" unicode="T" horiz-adv-x="1707" 
d="M1239 216l202.001 19c59.333 0 89 -15.833 89 -47.5s-19.333 -59.167 -58 -82.5c-94.667 -56.667 -196 -95 -304 -115s-213.167 -30 -315.5 -30s-175.333 1.83301 -219 5.5s-87 11.167 -130 22.5s-78.167 26.666 -105.5 45.999c-59.333 42.667 -89 108.334 -89 197.001
c0 154 93 347.667 279 581c140.667 176 260 278.667 358 308c51.333 15.333 111.166 23 179.499 23s102.5 -26 102.5 -78c0 -17.333 -5 -38 -15 -62c-38 -78 -71.333 -170.167 -100 -276.5s-43 -201.833 -43 -286.5c0 -149.333 56.333 -224 169 -224zM224.001 1039
c-34 0 -51 19.667 -51 59c0 43.333 13 102.666 39 177.999c50.667 143.333 105 223 163 239c16 6 64.333 9 145 9l676 -16c33.333 0 130.5 10 291.5 30s245.5 30 253.5 30c86 0 129 -29.333 129 -88c0 -26 -9.16699 -67.167 -27.5 -123.5s-42.5 -109.5 -72.5 -159.5
s-57.667 -75 -83 -75c-15.333 0 -50 12.333 -104 37c-163.333 74.667 -295 112 -395 112s-215.667 -9.66699 -347 -29s-229 -42.166 -293 -68.499s-120 -50.5 -168 -72.5c-89.333 -41.333 -141.333 -62 -156 -62z" />
    <glyph glyph-name="U" unicode="U" horiz-adv-x="2223" 
d="M1702 1527l313.999 -4.00098c37.333 0 71 -10.833 101 -32.5s45 -49.167 45 -82.5s-8.33301 -69.333 -25 -108c-84 -190 -156.667 -377 -218 -561s-92 -315.333 -92 -394c0 -32.667 7.66699 -59.167 23 -79.5s34.166 -34.333 56.499 -42s44.5 -14.167 66.5 -19.5
c52.667 -11.333 79 -28.333 79 -51c0 -35.333 -37.667 -68.666 -113 -99.999s-158.666 -54.666 -249.999 -69.999s-171 -23 -239 -23c-189.333 0 -284 77 -284 231c0 13.333 0.333008 23.666 1 30.999c-64.667 -72 -149 -133.667 -253 -185s-204.333 -77 -301 -77
c-200.667 0 -325.667 73 -375 219c-14.667 43.333 -22 96.5 -22 159.5s12.833 137.5 38.5 223.5s54 161.333 85 226l102.5 210c54 108 81 173 81 195c0 44 -40.667 72.667 -122 86c-21.333 3.33301 -38 10.166 -50 20.499s-18 23.5 -18 39.5s10.167 33.333 30.5 52
s50.833 36.5 91.5 53.5s88.334 32.167 143.001 45.5c121.333 30.667 264 46 428 46c122 0 183 -37.333 183 -112c0 -13.333 -20 -62.166 -60 -146.499l-131.5 -276.5c-47.667 -100 -91.5 -209 -131.5 -327s-60 -206.5 -60 -265.5s11.5 -97.167 34.5 -114.5
s49.833 -26 80.5 -26s55 1.16699 73 3.5s35.833 5.83301 53.5 10.5s32 8.66699 43 12s25 8 42 14l28.5 10c30 145.333 101.333 352 214 620c106 253.333 159 412.333 159 477c0 74.667 49.333 112 148 112z" />
    <glyph glyph-name="V" unicode="V" horiz-adv-x="2052" 
d="M1718 1515l442.998 10.9971c22.667 0 34 -6.33301 34 -19c0 -60.667 -23.667 -151.667 -71 -273s-105 -236.166 -173 -344.499s-141.667 -208.333 -221 -300s-164.5 -177.334 -255.5 -257.001s-180.5 -147.167 -268.5 -202.5c-189.333 -120 -352.333 -180 -489 -180
c-81.333 0 -159 35.333 -233 106s-133.167 163.167 -177.5 277.5s-66.5 232.833 -66.5 355.5c0 100 22.667 209.333 68 328c15.333 41.333 30 78 44 110s21 53.833 21 65.5s-4 21.834 -12 30.501s-21 16 -39 22c-24 8.66699 -52.333 15.334 -85 20.001
c-56 9.33301 -84 29.333 -84 60c0 27.333 32.833 57.333 98.5 90s156 61.167 271 85.5s224.167 36.5 327.5 36.5s178.833 -6.5 226.5 -19.5s71.5 -37.167 71.5 -72.5c0 -15.333 -5.33301 -32.333 -16 -51c-123.333 -208.667 -207.166 -380 -251.499 -514
s-66.5 -279 -66.5 -435c0 -52 7.33301 -104 22 -156s33.334 -78 56.001 -78c30 0 71.167 23.833 123.5 71.5s109.166 113.667 170.499 198s121.833 177.666 181.5 279.999s114.834 214.833 165.501 337.5s88.667 239.334 114 350.001
c2.66699 10.667 5.16699 19.334 7.5 26.001s9 14.5 20 23.5s25.5 14.833 43.5 17.5z" />
    <glyph glyph-name="W" unicode="W" horiz-adv-x="2899" 
d="M2592 1515l402.998 10.998c22.667 0 34 -6.66699 34 -20c0 -32.667 -9.66699 -82 -29 -148c-55.333 -193.333 -144.666 -380.666 -268 -561.999c-160.667 -236 -358.334 -438 -593 -606c-107.333 -77.333 -212.166 -136.666 -314.499 -177.999s-194.5 -62 -276.5 -62
c-123.333 0 -209.666 93.333 -258.999 280c-111.333 -87.333 -220.333 -155.833 -327 -205.5s-201.167 -74.5 -283.5 -74.5s-160.5 35.333 -234.5 106s-133.167 163.167 -177.5 277.5s-66.5 232.833 -66.5 355.5c0 101.333 22.667 210.333 68 327
c15.333 40.667 30 77.167 44 109.5s21 54.333 21 66s-4 21.834 -12 30.501s-21 16 -39 22c-24 8.66699 -52.333 15.334 -85 20.001c-56 9.33301 -84 29.333 -84 60c0 27.333 32.833 57.333 98.5 90s156 61.167 271 85.5s224.167 36.5 327.5 36.5s178.833 -6.5 226.5 -19.5
s71.5 -37.167 71.5 -72.5c0 -15.333 -5.33301 -32.333 -16 -51c-124 -206 -208 -376 -252 -510s-66 -280 -66 -438c0 -52 7.33301 -104 22 -156s33.334 -78 56.001 -78c30 0 69 22.333 117 67s99.833 107 155.5 187s110.167 169.667 163.5 269
c120.667 224 207 455.333 259 694c7.33301 39.333 31 61.666 71 66.999l423 11c22.667 0 34 -7.66699 34 -23c-30 -144 -93 -310.667 -189 -500l-110 -219c-80.667 -162 -121 -284.333 -121 -367c0 -90.667 10.667 -147.334 32 -170.001c10 -10.667 26.667 -16 50 -16
s59.166 17.833 107.499 53.5s102.5 89.667 162.5 162s120 156.833 180 253.5c138 221.333 249.333 477.333 334 768c13.333 44.667 37 67 71 67z" />
    <glyph glyph-name="X" unicode="X" horiz-adv-x="1881" 
d="M212 1267c-40 0 -60.002 14.666 -60.002 43.999c0 24.667 17.167 52.167 51.5 82.5s79.833 59.166 136.5 86.499s127 50.166 211 68.499s172.333 27.5 265 27.5s167.167 -26.5 223.5 -79.5s105.5 -144.667 147.5 -275s103.833 -292.833 185.5 -487.5
s147.5 -338.334 197.5 -431.001c30.667 -56 83 -91.333 157 -106c7.33301 -1.33301 18.5 -3.16602 33.5 -5.49902s25.667 -4.16602 32 -5.49902s14.5 -3.83301 24.5 -7.5s17 -7.83398 21 -12.501c11.333 -12 17 -28 17 -48c0 -40 -45.833 -76.333 -137.5 -109
s-206.5 -49 -344.5 -49c-146.667 0 -254.334 18 -323.001 54c-69.333 36 -123.333 84.667 -162 146c-22 36 -44 86.333 -66 151s-53.333 151.334 -94 260.001c-219.333 -289.333 -381.333 -472 -486 -548c-44.667 -32.667 -80.167 -49 -106.5 -49s-51.666 19.667 -75.999 59
s-43.333 81.333 -57 126s-20.5 78.334 -20.5 101.001c0 52.667 19.333 87.334 58 104.001c138.667 58.667 255.334 114 350.001 166s188.667 115.667 282 191l-178 452c-15.333 40 -35.166 67 -59.499 81s-60.5 21 -108.5 21zM1377 947.999
c-35.333 0 -52.998 19.002 -52.998 57.002c0 15.333 14.333 48.5 43 99.5s74.334 114.167 137.001 189.5s128.667 139.166 198 191.499s127.166 78.5 173.499 78.5s82.166 -30.833 107.499 -92.5s38 -147.167 38 -256.5c0 -53.333 -21 -83.666 -63 -90.999
c-105.333 -18.667 -196 -39.334 -272 -62.001s-161.333 -56.334 -256 -101.001c-18.667 -8.66699 -36.334 -13 -53.001 -13z" />
    <glyph glyph-name="Y" unicode="Y" horiz-adv-x="2048" 
d="M1704 1526l270 -2.99902c36 0 68.833 -8.66699 98.5 -26s44.5 -39.666 44.5 -66.999c0 -12 -5 -28 -15 -48c-43.333 -86.667 -118.166 -304.5 -224.499 -653.5s-172.333 -556 -198 -621s-55 -127.167 -88 -186.5s-66.833 -110.833 -101.5 -154.5
s-72.334 -81.667 -113.001 -114s-81.167 -58.833 -121.5 -79.5s-84.5 -37 -132.5 -49c-86.667 -22.667 -185.334 -34 -296.001 -34c-66 0 -99 17.667 -99 53c0 21.333 19.167 51.5 57.5 90.5s60.5 62.5 66.5 70.5c80.667 104 169.667 276.667 267 518
c-68 -50 -148.167 -91.667 -240.5 -125s-174.5 -50 -246.5 -50s-130.667 6.66699 -176 20s-86.666 33 -123.999 59c-82 57.333 -123 144.333 -123 261c0 56 13 127 39 213s54.5 164.333 85.5 235l92.5 207c30.667 67.333 47.834 106.666 51.501 117.999s5.5 22.333 5.5 33
c0 44 -40.667 72.667 -122 86c-21.333 3.33301 -38 10.166 -50 20.499s-18 24.666 -18 42.999s15 39 45 62s72 44.167 126 63.5c123.333 45.333 287.333 68 492 68c122 0 183 -36.333 183 -109c0 -53.333 -57.167 -208.166 -171.5 -464.499s-171.5 -431.5 -171.5 -525.5
c0 -89.333 56.667 -134 170 -134c60 0 126.333 11.667 199 35c126 332.667 239.667 709 341 1129c5.33301 24 23.166 39.833 53.499 47.5s78.5 11.5 144.5 11.5z" />
    <glyph glyph-name="Z" unicode="Z" 
d="M1697 456c44.667 0 67 -18.3311 67 -54.998c0 -41.333 -14.833 -98.666 -44.5 -171.999s-55.834 -128.333 -78.501 -165s-56 -63.167 -100 -79.5s-111.5 -24.5 -202.5 -24.5s-197.333 11.333 -319 34s-228.5 54 -320.5 94c-52 -46.667 -94.167 -79.334 -126.5 -98.001
s-68.666 -28 -108.999 -28s-107.166 12.667 -200.499 38s-159.333 47.166 -198 65.499s-63 32.666 -73 42.999s-15 24.5 -15 42.5c0 66.667 142 214 426 442l369 297c306 246 485.333 424 538 534c38.667 82 87.334 123 146.001 123c61.333 0 149.333 -29 264 -87
c48.667 -25.333 91 -55.833 127 -91.5s54 -69.834 54 -102.501c-0.666992 0 -1 -3.33301 -1 -10c-6.66699 -46.667 -39.334 -108.167 -98.001 -184.5s-129.667 -154.5 -213 -234.5s-173.666 -161.667 -270.999 -245c-186 -157.333 -349.667 -283.666 -491 -378.999
c109.333 3.33301 219.166 18 329.499 44s199.666 53.667 267.999 83l181.5 80c52.667 24 83 36 91 36zM744 1509c266.667 0 400.002 -35.667 400.002 -107c0 -29.333 -12 -52 -36 -68s-69 -31.333 -135 -46s-138.833 -37.5 -218.5 -68.5s-140.834 -58.833 -183.501 -83.5
c-104 -60 -174.667 -90 -212 -90s-56 29.333 -56 88c0 41.333 8.16699 87.5 24.5 138.5s40.666 97.833 72.999 140.5s67.833 68 106.5 76c66 13.333 145 20 237 20z" />
    <glyph glyph-name="bracketleft" unicode="[" horiz-adv-x="1193" 
d="M207 -231c-25.333 0 -37.9961 21.6641 -37.9961 64.9971c0 86.667 35.167 253.834 105.5 501.501s146.333 501.834 228 762.501s129.167 425.667 142.5 495s47.666 104 102.999 104l306 -10l333 10c23.333 0 35 -22.667 35 -68c0 -68.667 -31.667 -103 -95 -103
c-44.667 0 -97.334 3.33301 -158.001 10s-100.334 10 -119.001 10l-60 -1c-54.667 -146 -129.334 -390.667 -224.001 -734s-171.667 -639.666 -231 -888.999c29.333 -1.33301 60.5 -2 93.5 -2s82.5 3.33301 148.5 10s115.667 10 149 10c23.333 0 35 -22.667 35 -68
c0 -68.667 -31.667 -103 -95 -103l-327 10z" />
    <glyph glyph-name="backslash" unicode="\" horiz-adv-x="1041" 
d="M465 1570l333 -1699c1.33301 -8 2 -18 2 -30s-6.16699 -25 -18.5 -39s-28.833 -21 -49.5 -21s-38.167 6.16699 -52.5 18.5s-23.166 27.833 -26.499 46.5l-333 1699c-1.33301 8 -2 17.833 -2 29.5s6.16699 24.667 18.5 39s28.833 21.5 49.5 21.5
s38.167 -6.16699 52.5 -18.5s23.166 -27.833 26.499 -46.5z" />
    <glyph glyph-name="bracketright" unicode="]" horiz-adv-x="1192" 
d="M1213 1697c25.333 0 37.9961 -21.6641 37.9961 -64.9971c0 -86.667 -35.167 -253.834 -105.5 -501.501s-146.333 -501.834 -228 -762.501s-129.167 -425.667 -142.5 -495s-47.666 -104 -102.999 -104l-306 10l-333 -10c-23.333 0 -35 22.667 -35 68
c0 68.667 31.667 103 95 103c44.667 0 97.334 -3.33301 158.001 -10s100.334 -10 119.001 -10l60 1c54.667 146 129.334 390.667 224.001 734s171.667 639.666 231 888.999c-29.333 1.33301 -60.5 2 -93.5 2s-82.5 -3.33301 -148.5 -10s-115.667 -10 -149 -10
c-23.333 0 -35 22.667 -35 68c0 68.667 31.667 103 95 103l327 -10z" />
    <glyph glyph-name="asciicircum" unicode="^" horiz-adv-x="1479" 
d="M1008 72c-70 251.333 -136.332 477.666 -198.999 678.999c-192 -268 -337.667 -493 -437 -675c-15.333 -28 -44 -42 -86 -42c-22.667 0 -49.5 14.167 -80.5 42.5s-46.5 51.833 -46.5 70.5c0 6 1.66699 11.667 5 17c208.667 286 391.667 552.333 549 799
c38 60 76 90 114 90c21.333 0 42.166 -3.83301 62.499 -11.5s32.5 -17.5 36.5 -29.5l209 -578c66 -175.333 99 -264.666 99 -267.999c0 -26 -19.833 -54.5 -59.5 -85.5s-70.5 -46.5 -92.5 -46.5c-41.333 0 -66 12.667 -74 38z" />
    <glyph glyph-name="underscore" unicode="_" horiz-adv-x="1125" 
d="M-312 -183h1391c20.667 0 36.667 -7.5 48 -22.5s17 -32.833 17 -53.5s-5.66699 -38.5 -17 -53.5s-27.333 -22.5 -48 -22.5h-1391c-20 0 -35.833 7.5 -47.5 22.5s-17.5 32.833 -17.5 53.5s5.83301 38.5 17.5 53.5s27.5 22.5 47.5 22.5z" />
    <glyph glyph-name="grave" unicode="`" horiz-adv-x="1229" 
d="M485 1716c79.333 -44.667 158.499 -102.332 237.499 -172.999s141.333 -135.167 187 -193.5s68.5 -96.833 68.5 -115.5s-4.16699 -32 -12.5 -40s-16.333 -12 -24 -12s-65 22.833 -172 68.5s-236.5 94.5 -388.5 146.5c-87.333 29.333 -131 72.666 -131 129.999
c0 44 22.333 87.667 67 131s88.334 65 131.001 65c16 0 28.333 -2.33301 37 -7z" />
    <glyph glyph-name="a" unicode="a" 
d="M787 214c125.333 0 230 95.998 314 287.998c38.667 88 58 159.333 58 214s-9.16699 92.334 -27.5 113.001s-54.333 31 -108 31s-111.667 -24.833 -174 -74.5s-112.5 -112.167 -150.5 -187.5s-57 -143.166 -57 -203.499s13.333 -105.5 40 -135.5s61.667 -45 105 -45z
M1307 1061l457.998 -21.001c17.333 0 30.333 -5.16699 39 -15.5s13 -21.833 13 -34.5c0 -48.667 -20.167 -126.167 -60.5 -232.5l-121 -316c-40.333 -104.333 -60.5 -173.333 -60.5 -207s5.16699 -55.167 15.5 -64.5s30.166 -14 59.499 -14s82.833 14.167 160.5 42.5
s130.334 49.833 158.001 64.5s48.834 22 63.501 22c26 0 39 -11.667 39 -35c0 -49.333 -100 -114 -300 -194c-67.333 -27.333 -148.5 -50.166 -243.5 -68.499s-191.5 -27.5 -289.5 -27.5c-163.333 0 -261.666 52 -294.999 156c-104 -104 -244 -156 -420 -156
c-120.667 0 -222.667 29 -306 87c-90.667 63.333 -136 163 -136 299c0 143.333 42.333 275.333 127 396c92.667 134 216.667 226.333 372 277c86 28 178.333 42 277 42c151.333 0 269 -37.333 353 -112c0.666992 4 1 10.333 1 19l-1 43c0 33.333 32.333 50 97 50z" />
    <glyph glyph-name="b" unicode="b" 
d="M599 78c-194.667 -66 -318.832 -98.9951 -372.499 -98.9951s-97 11.167 -130 33.5s-49.5 50.166 -49.5 83.499c0 25.333 43.667 159.333 131 402c165.333 462 248 760.333 248 895l-1 38c0 33.333 32.333 50 97 50h261l201 3c17.333 0 30.333 -5.16699 39 -15.5
s13 -21.833 13 -34.5c0 -62 -61.333 -256 -184 -582l1 1c58 66 128.167 117.167 210.5 153.5s171.166 54.5 266.499 54.5c278 0 417 -130 417 -390c0 -100 -24.667 -196.333 -74 -289s-116.333 -173.334 -201 -242.001c218.667 19.333 389.667 62.666 513 129.999
c18 10 33.667 15 47 15c26 0 39 -10.5 39 -31.5s-11.667 -40.167 -35 -57.5c-87.333 -60.667 -222 -114.334 -404 -161.001s-377.333 -70.334 -586 -71.001c-33.333 -2.66699 -70 -4 -110 -4s-95.167 10.5 -165.5 31.5s-127.5 49.833 -171.5 86.5zM1050 807.005
c-125.333 0 -230 -95.998 -314 -287.998c-38.667 -88 -58 -159.333 -58 -214s9.16699 -92.334 27.5 -113.001s54.333 -31 108 -31s111.667 24.833 174 74.5s112.5 112.167 150.5 187.5s57 143.166 57 203.499s-13.333 105.5 -40 135.5s-61.667 45 -105 45z" />
    <glyph glyph-name="c" unicode="c" horiz-adv-x="1537" 
d="M692 653c-30.667 -82 -46.002 -157.328 -46.002 -225.995s7 -119.834 21 -153.501s35 -59.5 63 -77.5c95.333 -60 284 -63.333 566 -10c134 25.333 231.5 48.166 292.5 68.499s96.833 30.5 107.5 30.5c23.333 0 35 -11.333 35 -34s-17.667 -45.667 -53 -69
c-93.333 -60.667 -225 -112.834 -395 -156.501s-359.833 -65.5 -569.5 -65.5s-368.834 37.333 -477.501 112s-163 178 -163 310c0 82 17.167 159.333 51.5 232s81.333 135.834 141 189.501s129.167 100.167 208.5 139.5c158.667 78.667 338.667 118 540 118
c234.667 0 399.334 -27 494.001 -81c10.667 -8.66699 16 -24.834 16 -48.501s-10.333 -62.834 -31 -117.501s-47.834 -105.334 -81.501 -152.001s-64.5 -70 -92.5 -70s-50.333 15 -67 45l-42 73.5c-11.333 19 -27 41.5 -47 67.5s-38.833 45.667 -56.5 59
s-39.167 25 -64.5 35s-56.166 15 -92.499 15s-72.666 -10.833 -108.999 -32.5s-66.166 -49.667 -89.499 -84s-43 -73.5 -59 -117.5z" />
    <glyph glyph-name="d" unicode="d" 
d="M2026 285c30 0 45.001 -13.6689 45.001 -41.002c0 -19.333 -14 -39.333 -42 -60c-74.667 -54.667 -186.167 -105.667 -334.5 -153s-277.833 -71 -388.5 -71s-192.167 11.5 -244.5 34.5s-88.5 63.5 -108.5 121.5c-38.667 -39.333 -94.334 -75.166 -167.001 -107.499
s-149.5 -48.5 -230.5 -48.5s-147.167 7.16699 -198.5 21.5s-98 36.166 -140 65.499s-75.167 69.5 -99.5 120.5s-36.5 110.5 -36.5 178.5s10.333 135.667 31 203s52.5 131.833 95.5 193.5s94.5 116.167 154.5 163.5s132.833 85 218.5 113s177.834 42 276.501 42
c162 0 296.667 -40.333 404 -121c37.333 237.333 56 392.333 56 465l-1 29c0 33.333 32.333 50 97 50l448 -21c16 0 28.667 -4.83301 38 -14.5s14 -20.5 14 -32.5c0 -104 -55 -317.167 -165 -639.5s-165 -499.166 -165 -530.499s4.5 -53.666 13.5 -66.999
s27.833 -20 56.5 -20s78 12 148 36s122.667 45 158 63s57.666 27 66.999 27zM787.001 213.998c125.333 0 230 95.998 314 287.998c48 92 72 173.333 72 244c0 38.667 -9.16699 68.334 -27.5 89.001s-54.666 31 -108.999 31s-113.833 -25.333 -178.5 -76
s-116.834 -114.167 -156.501 -190.5s-59.5 -144.666 -59.5 -204.999s13.333 -105.5 40 -135.5s61.667 -45 105 -45z" />
    <glyph glyph-name="e" unicode="e" horiz-adv-x="1537" 
d="M1696 285c23.333 0 35.002 -10.834 35.002 -32.501s-15.833 -41.667 -47.5 -60s-70.834 -38 -117.501 -59s-111 -45.833 -193 -74.5c-188.667 -66 -401.667 -99 -639 -99c-450.667 0 -676 138.667 -676 416c0 135.333 42.833 255.5 128.5 360.5s200.5 185.333 344.5 241
s301 83.5 471 83.5s294.5 -26.333 373.5 -79s118.5 -125 118.5 -217c0 -94.667 -37.833 -172 -113.5 -232s-176.167 -104.667 -301.5 -134c-126 -29.333 -270.333 -50 -433 -62c10.667 -103.333 84.667 -167.666 222 -192.999c35.333 -6 72.666 -9 111.999 -9
c156 0 381 47 675 141c18 6 31.667 9 41 9zM647.002 446.999c116 32 207.667 80.999 275 146.999s101 145.667 101 239c0 24.667 -8 44.334 -24 59.001s-40.167 22 -72.5 22s-66 -14 -101 -42s-64.5 -64.667 -88.5 -110c-50.667 -94 -80.667 -199 -90 -315z" />
    <glyph glyph-name="f" unicode="f" horiz-adv-x="1366" 
d="M590 -391c-0.666992 -14 -6.33398 -26.1689 -17.001 -36.502s-20.667 -15.5 -30 -15.5s-77.5 2.66699 -204.5 8s-223.167 8 -288.5 8c-9.33301 0 -17.333 3.5 -24 10.5s-10 14.5 -10 22.5c14.667 166.667 47.334 361.667 98.001 585
c-37.333 20.667 -66.666 39 -87.999 55c-34 22.667 -51 45.667 -51 69s14.333 35 43 35c12 0 26.833 -4 44.5 -12s43.834 -19 78.501 -33c98 396.667 207 694.334 327 893.001c68 112 144.667 193.5 230 244.5s185.666 76.5 300.999 76.5s204.333 -31 267 -93
s94 -153.667 94 -275c0 -206.667 -59.167 -397.5 -177.5 -572.5s-274.833 -306.833 -469.5 -395.5c20.667 -2 39 -3 55 -3c276 0 514.333 33 715 99c11.333 4 23.333 6 36 6c27.333 0 41 -11.667 41 -35c0 -17.333 -10.333 -32.666 -31 -45.999
c-82.667 -49.333 -200.834 -90.5 -354.501 -123.5s-329.5 -52.167 -527.5 -57.5c-29.333 -160.667 -48.333 -298.667 -57 -414zM694 263.998c135.333 91.333 246.999 225.001 334.999 401.001s132 354.667 132 536c0 66 -6.33301 111.833 -19 137.5s-29.167 38.5 -49.5 38.5
s-36.666 -5.83301 -48.999 -17.5s-27 -35.5 -44 -71.5s-35 -80.667 -54 -134s-53.167 -155.833 -102.5 -307.5s-99 -345.834 -149 -582.501z" />
    <glyph glyph-name="g" unicode="g" 
d="M28 -340c0 40.667 32.165 80 96.498 118s147.5 71 249.5 99c184.667 50.667 377 89.667 577 117l65 187c-71.333 -52.667 -151.333 -94 -240 -124s-169 -45 -241 -45s-132.667 6.16699 -182 18.5s-95 31.833 -137 58.5c-90 57.333 -135 151.833 -135 283.5
s35.333 250.167 106 355.5s166.5 187.166 287.5 245.499s258.167 87.5 411.5 87.5s272 -33.333 356 -100c60.667 18.667 131.167 35.167 211.5 49.5s143.333 21.5 189 21.5s84.334 -11 116.001 -33s47.5 -47.167 47.5 -75.5s-9.83301 -71.166 -29.5 -128.499l-101.5 -287
c-48 -134 -93.667 -268.667 -137 -404c134.667 36.667 278 91 430 163c25.333 12 45 18 59 18c29.333 0 44 -11.667 44 -35c0 -18 -12 -35.667 -36 -53c-110 -82.667 -289.667 -158.667 -539 -228l-27 -89c-18.667 -62.667 -52.667 -118.167 -102 -166.5
s-105.666 -86.833 -168.999 -115.5s-136 -52 -218 -70c-142.667 -32 -303.667 -48 -483 -48c-312.667 0 -469 60 -469 180zM976.998 305c52 42 97.501 107.331 136.501 195.998s58.5 160.334 58.5 215.001s-9.16699 92.334 -27.5 113.001s-54.333 31 -108 31
s-112.667 -23.167 -177 -69.5s-116.666 -105.5 -156.999 -177.5s-60.5 -138 -60.5 -198s13.167 -103.5 39.5 -130.5s55.666 -40.5 87.999 -40.5s56.666 1 72.999 3s37.5 7.83301 63.5 17.5s49.667 23.167 71 40.5zM862.999 -253.002l47 133
c-298 -47.333 -447 -115 -447 -203c0 -26 12.5 -46.833 37.5 -62.5s56.5 -23.5 94.5 -23.5c142 0 231.333 52 268 156z" />
    <glyph glyph-name="h" unicode="h" horiz-adv-x="1880" 
d="M522 1481l458.001 3c15.333 0 27.833 -4.83301 37.5 -14.5s14.5 -25.5 14.5 -47.5s-13.667 -86.5 -41 -193.5s-58 -211.833 -92 -314.5c87.333 37.333 184 71.166 290 101.499s201.333 45.5 286 45.5c64 0 122.333 -17.667 175 -53c58.667 -39.333 88 -99 88 -179
c0 -79.333 -31 -186.333 -93 -321s-93 -220.667 -93 -258c0 -54.667 26.333 -82 79 -82c104 0 221.667 33.667 353 101c20 10.667 36.333 16 49 16c27.333 0 41 -12.167 41 -36.5s-15.167 -46 -45.5 -65s-68.5 -39.333 -114.5 -61s-103.667 -45.5 -173 -71.5
c-162 -60.667 -335 -91 -519 -91s-276 45.333 -276 136c0 58.667 33.5 163.5 100.5 314.5s100.5 252.833 100.5 305.5c0 63.333 -46.333 95 -139 95c-51.333 0 -102 -8 -152 -24c-110 -322.667 -189 -575.667 -237 -759c-3.33301 -12.667 -10.833 -22 -22.5 -28
s-21.834 -9 -30.501 -9l-515 -11c-7.33301 0 -15.5 4.5 -24.5 13.5s-13.5 20.167 -13.5 33.5s21.5 80.333 64.5 201l142 393c51.667 141.333 99 288.333 142 441s64.5 266.334 64.5 341.001l-1 28c0 33.333 32.333 50 97 50z" />
    <glyph glyph-name="i" unicode="i" horiz-adv-x="1027" 
d="M1032 1410c0 -71.333 -39.499 -133.5 -118.499 -186.5s-162.333 -79.5 -250 -79.5s-155.834 17.833 -204.501 53.5s-73 79.167 -73 130.5s18.667 98 56 140s85.833 75 145.5 99s124.5 36 194.5 36s129.167 -18.5 177.5 -55.5s72.5 -82.833 72.5 -137.5zM751.001 169
c45.333 0 106.834 10.835 184.501 32.502s134.167 41 169.5 58s60 25.5 74 25.5c28 0 42 -14 42 -42c0 -12.667 -10.333 -27 -31 -43c-68 -50.667 -190.333 -103.334 -367 -158.001s-334.334 -82 -473.001 -82c-86 0 -158 13.667 -216 41s-87 69 -87 125
c0 34 29 117.333 87 250c109.333 251.333 164 440.666 164 567.999l-1 38c0 33.333 32.333 50 97 50l494 11c17.333 0 30.333 -5.16699 39 -15.5s13 -21.833 13 -34.5c0 -46 -21 -121.833 -63 -227.5l-126 -311.5c-42 -102 -63 -175 -63 -219s21 -66 63 -66z" />
    <glyph glyph-name="j" unicode="j" horiz-adv-x="1025" 
d="M1174 285c30 0 45 -13.668 45 -41.001c0 -37.333 -84.667 -84 -254 -140c-105.333 -35.333 -215.666 -62.666 -330.999 -81.999c-15.333 -56 -36 -123.667 -62 -203c-38.667 -116.667 -96.334 -200.667 -173.001 -252s-181.5 -77 -314.5 -77s-239.167 16.667 -318.5 50
c-51.333 21.333 -77 47.166 -77 77.499s17.333 45.5 52 45.5l68 -4c50.667 0 100.667 52.667 150 158c29.333 64 68 170 116 318c96 298.667 172.667 579.334 230 842.001c4 20 10.5 34.167 19.5 42.5s27.5 12.5 55.5 12.5l486 11c17.333 0 31.5 -4.33301 42.5 -13
s16.5 -20.167 16.5 -34.5s-7 -39.166 -21 -74.499l-42.5 -111c-14.333 -38.667 -28.333 -79.334 -42 -122.001l-33.5 -103.5c-8.66699 -26.333 -19.667 -63.833 -33 -112.5l-26 -95.5l-27.5 -106l-24.5 -94.5c153.333 9.33301 286.333 35.333 399 78
c54 20.667 87.333 31 100 31zM1038 1410c0 -71.333 -39.499 -133.5 -118.499 -186.5s-162.333 -79.5 -250 -79.5s-155.834 17.833 -204.501 53.5s-73 79.167 -73 130.5s18.667 98 56 140s85.833 75 145.5 99s124.5 36 194.5 36s129.167 -18.5 177.5 -55.5
s72.5 -82.833 72.5 -137.5z" />
    <glyph glyph-name="k" unicode="k" horiz-adv-x="1704" 
d="M1264 1032l391 11.0029c17.333 0 30.333 -5.16699 39 -15.5s13 -21.833 13 -34.5c0 -48 -15.833 -94.5 -47.5 -139.5s-72.167 -84.5 -121.5 -118.5s-107 -65.667 -173 -95c-118.667 -52.667 -247.334 -93.334 -386.001 -122.001c94.667 14 177.334 21 248.001 21
c169.333 0 254 -53 254 -159c0 -16.667 -4.33301 -41.5 -13 -74.5s-13 -59.5 -13 -79.5c0 -42.667 21.333 -64 64 -64c31.333 0 76.5 11.5 135.5 34.5s104.5 43.5 136.5 61.5s53.5 27 64.5 27s20.833 -3.5 29.5 -10.5s13 -19.333 13 -37s-14.333 -36.834 -43 -57.501
c-97.333 -68.667 -214 -122.5 -350 -161.5s-257.833 -58.5 -365.5 -58.5s-180.5 10.833 -218.5 32.5s-57 57.5 -57 107.5c0 25.333 7 64.166 21 116.499s21 93.833 21 124.5c0 88.667 -53 137.667 -159 147c-80 -218.667 -122.667 -372 -128 -460
c-1.33301 -24.667 -19 -37 -53 -37l-515 -11c-7.33301 0 -15.5 4.5 -24.5 13.5s-13.5 20.167 -13.5 33.5s21.5 80.333 64.5 201l142 393c51.667 141.333 99 288.333 142 441s64.5 266.334 64.5 341.001l-1 28c0 33.333 32.333 50 97 50l458 3
c15.333 0 27.833 -4.83301 37.5 -14.5s14.5 -20.167 14.5 -31.5c0 -57.333 -28.667 -179 -86 -365s-112 -349.333 -164 -490c120 31.333 214.333 80.666 283 147.999s103 138.333 103 213l-1 38c0 33.333 32.333 50 97 50z" />
    <glyph glyph-name="l" unicode="l" horiz-adv-x="1023" 
d="M532 1473l489.999 10.9971c17.333 0 30.333 -5.16699 39 -15.5s13 -21.833 13 -34.5c0 -70 -63.833 -272 -191.5 -606s-191.5 -530.667 -191.5 -590c0 -24.667 5 -43.167 15 -55.5s27.667 -18.5 53 -18.5c79.333 0 202.333 36.667 369 110
c16.667 7.33301 32.667 11 48 11c27.333 0 41 -10.667 41 -32c0 -18 -13.667 -36.667 -41 -56s-65 -40.666 -113 -63.999s-106.333 -48.666 -175 -75.999s-146.5 -50.333 -233.5 -69s-178.167 -28 -273.5 -28s-171.666 12.833 -228.999 38.5s-86 72.834 -86 141.501
c0 48 61.667 236.333 185 565c46 122.667 88.333 250.167 127 382.5s58 231.5 58 297.5l-1 38c0 33.333 32.333 50 97 50z" />
    <glyph glyph-name="m" unicode="m" horiz-adv-x="2558" 
d="M383 1029l473.998 11c17.333 0 30.333 -5.16699 39 -15.5s13 -23 13 -38s-3.66699 -39.167 -11 -72.5c178 98 333 147 465 147c57.333 0 110.5 -14.333 159.5 -43s80.833 -71 95.5 -127c217.333 113.333 397.333 170 540 170c62.667 0 118 -17.667 166 -53
c51.333 -38.667 77 -93.167 77 -163.5s-12.167 -144.333 -36.5 -222s-48.666 -150.167 -73 -217.5c-24.333 -67.333 -36.5 -114.833 -36.5 -142.5s7 -48.5 21 -62.5s32.667 -21 56 -21c86 0 192.667 30 320 90c24 10.667 42.333 16 55 16c30 0 45 -12 45 -36
c0 -21.333 -12.833 -41.5 -38.5 -60.5s-62.834 -39.833 -111.5 -62.5c-48.667 -22.667 -108.834 -47 -180.5 -73c-71.667 -26 -155.834 -48 -252.5 -66c-96.667 -18 -182.834 -27 -258.501 -27s-132.167 12.667 -169.5 38s-56 58 -56 98s12.833 100 38.5 180l77.5 237.5
c26 78.333 39 135.333 39 171s-8.66699 61.334 -26 77.001s-43.166 23.5 -77.499 23.5s-72.166 -5.33301 -113.499 -16c-10.667 -114 -55 -287.667 -133 -521c-32.667 -98 -51 -159.333 -55 -184s-6.66699 -38.834 -8 -42.501s-3.66602 -8.5 -6.99902 -14.5
c-6 -10.667 -18.667 -16 -38 -16c-96 0 -190.833 -1.83301 -284.5 -5.5s-154 -5.5 -181 -5.5s-40.5 15.667 -40.5 47s10.333 78 31 140s43.667 123.667 69 185c66 162.667 99 284 99 364c0 59.333 -38.667 89 -116 89c-32.667 0 -63.667 -5.33301 -93 -16
c-26 -88.667 -70.833 -229 -134.5 -421l-107.5 -324c-10.667 -35.333 -29.667 -53 -57 -53l-514 -11c-7.33301 0 -15.5 4.5 -24.5 13.5s-13.5 19.667 -13.5 32s14.167 56 42.5 131l93.5 242c34 86.333 65.167 181.333 93.5 285s42.5 189.5 42.5 257.5l-1 38
c0 33.333 32.333 50 97 50z" />
    <glyph glyph-name="n" unicode="n" horiz-adv-x="1880" 
d="M2037 285c24.667 0 36.9971 -11.5 36.9971 -34.5s-12.167 -43.167 -36.5 -60.5s-60.166 -37.166 -107.499 -59.499s-106.166 -46.833 -176.499 -73.5s-151.666 -49.5 -243.999 -68.5s-180.5 -28.5 -264.5 -28.5c-198 0 -297 45.333 -297 136
c0 58.667 33.5 163.5 100.5 314.5s100.5 252.833 100.5 305.5c0 59.333 -46.333 89 -139 89c-42 0 -89.667 -5.33301 -143 -16c-25.333 -89.333 -70.5 -231.333 -135.5 -426s-101.667 -305.334 -110 -332.001s-26.166 -40 -53.499 -40l-515 -11
c-7.33301 0 -15.5 4.5 -24.5 13.5s-13.5 19.667 -13.5 32s14.167 56 42.5 131l94 242c34.333 86.333 65.666 181.333 93.999 285s42.5 189.5 42.5 257.5l-1 38c0 33.333 32.333 50 97 50l474 11c17.333 0 30.333 -5.16699 39 -15.5s13 -23 13 -38
s-3.66699 -39.167 -11 -72.5c234.667 98 427.334 147 578.001 147c64 0 122.333 -17.667 175 -53c58.667 -39.333 88 -99 88 -179c0 -82 -31 -189.333 -93 -322s-93 -214.667 -93 -246c0 -62 24.667 -93 74 -93c31.333 0 84.833 11.833 160.5 35.5s131.667 43.167 168 58.5
s63.166 23 80.499 23z" />
    <glyph glyph-name="o" unicode="o" horiz-adv-x="1707" 
d="M251 67c-125.333 75.333 -188.001 189.669 -188.001 343.002c0 80 16.5 155.167 49.5 225.5s78.333 131.166 136 182.499s124.834 95.333 201.501 132c153.333 74 329 111 527 111c389.333 0 599.666 -123.333 630.999 -370c46.667 -15.333 94.834 -23 144.501 -23
s91.167 3.66699 124.5 11s64.833 18.333 94.5 33s50.834 22 63.501 22c25.333 0 38 -12.333 38 -37s-19.667 -50.334 -59 -77.001c-74 -50.667 -172 -76 -294 -76c-46 0 -83.333 2.33301 -112 7c-21.333 -168 -108 -307.667 -260 -419
c-72.667 -53.333 -161.834 -95.333 -267.501 -126s-215 -46 -328 -46s-209.833 8.83301 -290.5 26.5s-151 44.5 -211 80.5zM613.999 322.003c0 -123.333 44.999 -185.002 134.999 -185.002c57.333 0 110.833 31.333 160.5 94s88.334 140.334 116.001 233.001
s41.5 187.167 41.5 283.5s-33.667 144.5 -101 144.5c-58.667 0 -115.5 -27.667 -170.5 -83s-99 -127.166 -132 -215.499s-49.5 -178.833 -49.5 -271.5z" />
    <glyph glyph-name="p" unicode="p" 
d="M362 1029l453.997 11.002c17.333 0 30.333 -5.16699 39 -15.5s13 -22 13 -35s-2.33301 -35.333 -7 -67s-7 -54.834 -7 -69.501c122.667 138.667 286.334 208 491.001 208c124.667 0 222.834 -31.833 294.501 -95.5s107.5 -153.834 107.5 -270.501
c0 -226.667 -89 -412 -267 -556c206.667 14.667 365.334 53 476.001 115c36.667 20.667 63.667 31 81 31c22.667 0 34 -12.333 34 -37c0 -17.333 -12.333 -35 -37 -53c-113.333 -79.333 -259.166 -138 -437.499 -176s-370.166 -57 -575.499 -57
c-25.333 -1.33301 -44.333 -2 -57 -2c-70.667 0 -141.334 10.667 -212.001 32s-129.334 51.333 -176.001 90c-46 -140.667 -69 -303 -69 -487l1 -29c0 -33.333 -32.333 -50 -97 -50l-465 -12c-16 0 -28.667 4.83301 -38 14.5s-14 20.5 -14 32.5
c0 114 62.333 335.167 187 663.5s187 548.166 187 659.499l-4 83c0 24.667 6.16699 42.834 18.5 54.501s38.833 17.5 79.5 17.5zM1050 807.002c-125.333 0 -230 -95.998 -314 -287.998c-38.667 -88 -58 -159.333 -58 -214s9.16699 -92.334 27.5 -113.001s54.333 -31 108 -31
s111.667 24.833 174 74.5s112.5 112.167 150.5 187.5s57 143.166 57 203.499s-13.333 105.5 -40 135.5s-61.667 45 -105 45z" />
    <glyph glyph-name="q" unicode="q" 
d="M1299 -485l-474 -11c-17.333 0 -30.333 5.16699 -39 15.5s-13 21.833 -13 34.5c0 54.667 62 241.667 186 561c-38.667 -38.667 -95.5 -74.167 -170.5 -106.5s-152.833 -48.5 -233.5 -48.5s-146.667 7.16699 -198 21.5s-98 36.166 -140 65.499s-75.167 69.5 -99.5 120.5
s-36.5 110.5 -36.5 178.5s10.333 135.667 31 203s52.5 131.833 95.5 193.5s94.5 116.167 154.5 163.5s132.833 85 218.5 113s177.834 42 276.501 42c148.667 0 276.334 -41.333 383.001 -124c65.333 21.333 153.166 42.5 263.499 63.5s183.166 31.5 218.499 31.5
s61.666 -6.83301 78.999 -20.5s26 -32.667 26 -57s-13.833 -73.333 -41.5 -147l-117 -305.5l-124.5 -332h14c80.667 0 160.5 11 239.5 33s135.667 41.167 170 57.5s56.833 24.5 67.5 24.5c24 0 36 -11 36 -33s-15.167 -44.667 -45.5 -68s-100.666 -53.166 -210.999 -89.499
s-217.833 -61.833 -322.5 -76.5c-64.667 -196 -97 -334.333 -97 -415l1 -38c0 -33.333 -32.333 -50 -97 -50zM787 214c127.333 0 231.665 92.998 312.998 278.998c40.667 92.667 61 175 61 247c0 34.667 -9.66699 63.334 -29 86.001s-55.666 34 -108.999 34
s-111.166 -24.833 -173.499 -74.5s-112.5 -112.167 -150.5 -187.5s-57 -143.166 -57 -203.499s13.333 -105.5 40 -135.5s61.667 -45 105 -45z" />
    <glyph glyph-name="r" unicode="r" horiz-adv-x="1365" 
d="M384 1029l474.002 11c17.333 0 30.333 -5.16699 39 -15.5s13 -19.833 13 -28.5s-2.33301 -23 -7 -43s-10.667 -44.167 -18 -72.5l-14 -54.5c52 62 117 116.667 195 164s146.667 71 206 71c126 0 189 -27.167 189 -81.5s-17 -119.333 -51 -195s-66 -125.5 -96 -149.5
c-14.667 -10.667 -32.5 -16 -53.5 -16s-40.5 6.66699 -58.5 20c-80.667 60 -168.667 90 -264 90c-36.667 0 -68.667 -2.66699 -96 -8c-26 -89.333 -67.333 -220.5 -124 -393.5s-88 -269.5 -94 -289.5c-10 -31.333 -28.667 -47 -56 -47
c-96.667 0 -200.334 -5.16699 -311.001 -15.5s-174.167 -15.5 -190.5 -15.5s-29 4.5 -38 13.5s-13.5 19.667 -13.5 32s14.167 57 42.5 134l94 248.5c34.333 88.667 65.666 186 93.999 292s42.5 193 42.5 261l-1 38c0 33.333 32.333 50 97 50z" />
    <glyph glyph-name="s" unicode="s" horiz-adv-x="1534" 
d="M726 -39c-16.667 -0.666992 -41.3271 -0.994141 -73.9941 -0.994141c-153.333 0 -297.833 14.333 -433.5 43s-215.834 62 -240.501 100c-8 12 -12 27 -12 45s21.333 46.833 64 86.5s72 59.5 88 59.5s32.5 -5.83301 49.5 -17.5s35.833 -25.834 56.5 -42.501
s43.667 -33.334 69 -50.001c60.667 -40 133.667 -60 219 -60c34 0 61.5 8.66699 82.5 26s31.5 39.166 31.5 65.499s-8.83301 49.166 -26.5 68.499s-40.667 36.166 -69 50.499s-59.5 28.666 -93.5 42.999s-68.167 30 -102.5 47s-65.833 35.5 -94.5 55.5
c-63.333 44.667 -95 100.167 -95 166.5s20.167 123.833 60.5 172.5s91.166 87.667 152.499 117s130.666 54 207.999 74c136 34 264.5 51 385.5 51s233.667 -6.16699 338 -18.5s176.166 -30.5 215.499 -54.5c10.667 -6 16 -21.833 16 -47.5s-9 -62.334 -27 -110.001
s-40.833 -91.667 -68.5 -132s-52.5 -60.5 -74.5 -60.5c-8.66699 0 -16 3.66699 -22 11c-63.333 76 -124.833 134.5 -184.5 175.5s-124.5 61.5 -194.5 61.5c-53.333 0 -91.5 -10.833 -114.5 -32.5s-34.5 -44.167 -34.5 -67.5s12.833 -45.666 38.5 -66.999
s57.667 -40.666 96 -57.999s80 -37.5 125 -60.5s86.667 -46.333 125 -70s70.333 -53.334 96 -89.001s38.5 -80.5 38.5 -134.5s-19.667 -106.667 -59 -158c165.333 33.333 294.666 74.333 387.999 123c16 8.66699 29.667 13 41 13c25.333 0 38 -12.667 38 -38
c0 -21.333 -13 -40.833 -39 -58.5s-69 -39 -129 -64s-131.333 -50.167 -214 -75.5c-192.667 -58.667 -399.334 -88 -620.001 -88z" />
    <glyph glyph-name="t" unicode="t" horiz-adv-x="1197" 
d="M994 1018l262.998 33.998c49.333 0 74 -19.333 74 -58s-23.333 -62.834 -70 -72.501s-152 -22.5 -316 -38.5c-22.667 -59.333 -56.667 -141.666 -102 -246.999c-92.667 -216 -139 -345.667 -139 -389c0 -47.333 29.333 -71 88 -71c189.333 0 359.333 31.667 510 95
c22 9.33301 39.333 14 52 14c24.667 0 37 -11 37 -33s-16 -43.667 -48 -65c-98 -64.667 -245.667 -118.667 -443 -162s-379.333 -65 -546 -65c-94.667 0 -167 14.833 -217 44.5s-75 70.5 -75 122.5c0 52.667 34.667 151 104 295c78 161.333 134 303 168 425
c-41.333 -2 -70 -3 -86 -3c-39.333 0 -59 16 -59 48c0 23.333 6.33301 39 19 47s25.834 13.667 39.501 17s25.334 5.5 35.001 6.5s23.167 2.16699 40.5 3.5s30 2.33301 38 3c8.66699 50.667 13 98.334 13 143.001l-1 38c0 30 38 50.333 114 61c25.333 3.33301 105 20 239 50
s216 45 246 45c48 0 72 -16.667 72 -50c0 -57.333 -16.667 -136.666 -50 -237.999z" />
    <glyph glyph-name="u" unicode="u" horiz-adv-x="1880" 
d="M405 1029l451.997 11c17.333 0 30.333 -5.16699 39 -15.5s13 -25.666 13 -45.999s-18.5 -73 -55.5 -158s-74.167 -175.333 -111.5 -271s-56 -165.5 -56 -209.5c0 -82.667 44 -124 132 -124c42 0 88 5.33301 138 16c16 56.667 42.667 131.667 80 225
c94.667 234 151.667 412 171 534c3.33301 24.667 21 37 53 37c96.667 0 198.334 2 305.001 6s168.167 6 184.5 6s29 -4.5 38 -13.5s13.5 -17.5 13.5 -25.5c0 -32 -20.667 -99.667 -62 -203l-124 -320.5c-41.333 -110.333 -62 -190.833 -62 -241.5s22.5 -76 67.5 -76
s107.333 12.167 187 36.5s135.334 45.166 167.001 62.499s52.167 26 61.5 26c25.333 0 38 -12 38 -36s-17.833 -46.833 -53.5 -68.5s-78.667 -43.667 -129 -66s-110.833 -45.833 -181.5 -70.5c-162.667 -56 -328.334 -84 -497.001 -84s-263.667 45.333 -285 136
c-64.667 -26.667 -117.667 -47.5 -159 -62.5s-98.666 -31 -171.999 -48s-140.666 -25.5 -201.999 -25.5c-196 0 -294 80 -294 240c0 55.333 10.667 122.5 32 201.5s45 150.5 71 214.5c68.667 170 103 275.5 103 316.5s6 67.333 18 79s38.667 17.5 80 17.5z" />
    <glyph glyph-name="v" unicode="v" horiz-adv-x="1705" 
d="M340 1029l528.997 11c22 0 33 -14.667 33 -44c0 -16 -6 -32 -18 -48c-59.333 -76.667 -107.166 -163.667 -143.499 -261s-54.5 -192.333 -54.5 -285c0 -48 10 -90 30 -126s44.333 -54 73 -54c51.333 0 109.833 42.667 175.5 128s123.334 185.333 173.001 300
s81.834 217.334 96.501 308.001c4 24.667 10 42 18 52s24.333 15 49 15l391 11c24 0 36 -9.33301 36 -28v-14c0 -81.333 -33 -182 -99 -302c20 -3.33301 44 -5 72 -5c104.667 0 200 24 286 72c18.667 10.667 34.334 16 47.001 16c26.667 0 40 -12.167 40 -36.5
s-14.333 -47.5 -43 -69.5c-96 -73.333 -225.333 -110 -388 -110c-38 0 -69 2 -93 6c-4.66699 -8 -12.334 -19.333 -23.001 -34c-70.667 -98.667 -172.5 -195.667 -305.5 -291s-266.167 -171.333 -399.5 -228s-242.333 -85 -327 -85c-62 0 -125.667 23 -191 69
c-130.667 91.333 -196 231.333 -196 420c0 80.667 15.167 176.667 45.5 288s64.5 200.666 102.5 267.999c21.333 37.333 49.333 56.333 84 57z" />
    <glyph glyph-name="w" unicode="w" horiz-adv-x="2514" 
d="M353 1029l529.005 10.999c26 0 39 -13 39 -39c0 -15.333 -8 -33 -24 -53c-57.333 -72 -105.5 -153.667 -144.5 -245s-58.5 -184.333 -58.5 -279c0 -99.333 15.667 -161.666 47 -186.999c13.333 -10.667 30.333 -16 51 -16c43.333 0 84.166 17 122.499 51s71 77 98 129
s51.5 112 73.5 180c36.667 117.333 63.334 244.333 80.001 381c1.33301 16 7.16602 31.167 17.499 45.5s26.833 21.5 49.5 21.5l529 11c26 0 39 -11 39 -33c0 -17.333 -8 -37 -24 -59c-135.333 -188 -203 -369.667 -203 -545c0 -114.667 33.667 -172 101 -172
c51.333 0 99 21.667 143 65s80.333 100 109 170c61.333 148.667 92 314 92 496c0 38.667 22.333 61 67 67c14.667 2 75.834 4.33301 183.5 7c107.667 2.66699 176.834 4 207.5 4c30.667 0 46 -14 46 -42c0 -100 -27.667 -200.667 -83 -302c30.667 -6 61.667 -9 93 -9
c104.667 0 200 24 286 72c18.667 10.667 34.334 16 47 16c26.667 0 40 -12.167 40 -36.5s-14.333 -47.5 -43 -69.5c-96 -73.333 -225.333 -110 -388 -110c-43.333 0 -82 3.33301 -116 10l-45 -61c-78 -103.333 -172.833 -199.166 -284.5 -287.499
s-225.334 -158 -341.001 -209s-218.5 -76.5 -308.5 -76.5c-58 0 -114.833 25.333 -170.5 76s-100.5 115 -134.5 193c-102 -84 -205.333 -151.5 -310 -202.5s-196.334 -76.5 -275.001 -76.5c-110 0 -200.333 47.667 -271 143s-106 220 -106 374
c0 65.333 13.833 153.666 41.5 264.999s60.167 197.666 97.5 258.999c15.333 24.667 29.666 41.334 42.999 50.001s32.666 13 57.999 13z" />
    <glyph glyph-name="x" unicode="x" horiz-adv-x="1705" 
d="M1050 884c28.667 -58 50.6641 -110.335 65.9971 -157.002c108 106 201.833 189.833 281.5 251.5s143.834 92.5 192.501 92.5c34.667 0 65.5 -27.833 92.5 -83.5s40.5 -119.5 40.5 -191.5c0 -13.333 -5.16699 -28.166 -15.5 -44.499s-25.5 -26.666 -45.5 -30.999
s-62 -6.5 -126 -6.5s-123.5 -8.83301 -178.5 -26.5s-117.167 -52.834 -186.5 -105.501c71.333 -189.333 132.666 -315.666 183.999 -378.999c26 -33.333 60.333 -50 103 -50s98.334 11.333 167.001 34s121 44.667 157 66s61 32 75 32c28 0 42 -12.333 42 -37
c0 -16.667 -14.333 -37.667 -43 -63c-96.667 -84.667 -203.667 -145.334 -321 -182.001s-248.333 -55 -393 -55c-212 0 -353.333 44.667 -424 134c-40 49.333 -78 116.333 -114 201c-105.333 -100 -199 -179 -281 -237s-152 -87 -210 -87c-42.667 0 -78.5 27.5 -107.5 82.5
s-43.5 111.833 -43.5 170.5s15 89.334 45 92.001c17.333 2 48.833 3.66699 94.5 5s92.5 3.66602 140.5 6.99902c116.667 8 219 45.333 307 112l-32.5 100c-15 46.667 -26.5 81.334 -34.5 104.001c-42 118.667 -81 187.334 -117 206.001c-17.333 9.33301 -42.333 14 -75 14
s-64.667 -3 -96 -9s-50.666 -9 -57.999 -9c-25.333 0 -38 12 -38 36s26.667 50.833 80 80.5s125.833 55.5 217.5 77.5s170.5 33 236.5 33s114.667 -1.5 146 -4.5s59.333 -8.33301 84 -16s46.334 -15.667 65.001 -24s35.667 -20 51 -35s28.333 -29.333 39 -43
s21.667 -31.834 33 -54.501z" />
    <glyph glyph-name="y" unicode="y" 
d="M2034 285c24.667 0 37.001 -11.3271 37.001 -33.9941c0 -44.667 -85.333 -102.667 -256 -174c-106.667 -44.667 -224 -80.667 -352 -108l-43 -118.5c-12.667 -34.333 -35.834 -72.833 -69.501 -115.5s-73.334 -78.334 -119.001 -107.001s-94.667 -52.834 -147 -72.501
s-111.166 -34.834 -176.499 -45.501c-118 -20 -256.167 -30 -414.5 -30s-280.166 17.667 -365.499 53s-128 86.333 -128 153c0 38.667 16.667 73.667 50 105s76.833 57.666 130.5 78.999s122.167 40.666 205.5 57.999c142 28.667 320.333 52.334 535 71.001
c18 59.333 31 109 39 149c-194 -72 -372 -108 -534 -108c-216.667 0 -325 71.667 -325 215c0 100.667 30.167 225.167 90.5 373.5s90.5 252.5 90.5 312.5l-1 38c0 33.333 32.333 50 97 50l233 -4l211 15c17.333 0 30.333 -5.16699 39 -15.5s13 -28.333 13 -54
s-9.83301 -70.334 -29.5 -134.001s-41.167 -123.167 -64.5 -178.5c-63.333 -148.667 -95 -248.667 -95 -300c0 -29.333 10.667 -51.666 32 -66.999s49.333 -23 84 -23c73.333 0 141.666 20.333 204.999 61c71.333 192.667 137 407 197 643c6 24.667 23.667 37 53 37
c96.667 0 200.334 5.16699 311.001 15.5s174.167 15.5 190.5 15.5s29.166 -4 38.499 -12s14 -15.667 14 -23c0 -28.667 -99.667 -329 -299 -901c98.667 23.333 190.5 51.166 275.5 83.499s143 56.666 174 72.999s55.5 24.5 73.5 24.5zM835.001 -252.994
c19.333 48.667 35.999 94.667 49.999 138c-300 -38 -450 -107.333 -450 -208c0 -26 13.5 -50.5 40.5 -73.5s54.167 -34.5 81.5 -34.5c60.667 0 117.334 15.5 170.001 46.5s88.667 74.833 108 131.5z" />
    <glyph glyph-name="z" unicode="z" horiz-adv-x="1705" 
d="M1065 946c52.667 72.667 91.1689 109 115.502 109s78 -6.5 161 -19.5s166.667 -32.333 251 -58s126.5 -51.834 126.5 -78.501c0 -32.667 -25.667 -75.667 -77 -129c-111.333 -118 -331.333 -294.667 -660 -530l-94 -68c112 -8 220 -12 324 -12
c214.667 0 398 31.667 550 95c48.667 20 81.667 30 99 30c25.333 0 38 -11 38 -33c0 -31.333 -66.333 -82 -199 -152c-58 -30.667 -130.333 -60 -217 -88s-164.5 -42 -233.5 -42s-135.333 4.66699 -199 14s-113.834 19.333 -150.501 30s-69.334 20.667 -98.001 30
s-45.334 14 -50.001 14s-16.667 -7.66699 -36 -23c-58 -46 -102.833 -69 -134.5 -69s-102.5 10.833 -212.5 32.5s-202.667 41.834 -278 60.501s-113 52.667 -113 102c0 20.667 9.33301 40.167 28 58.5s52.834 42 102.501 71l169.5 96.5
c175.333 96.667 383.666 232 624.999 406c-32.667 2 -73.167 3 -121.5 3s-101.833 -7 -160.5 -21s-108.667 -31.167 -150 -51.5s-78.666 -40.833 -111.999 -61.5c-79.333 -48 -126.166 -72 -140.499 -72s-26 5.33301 -35 16s-13.5 26 -13.5 46s22.167 80.5 66.5 181.5
s77.666 162 99.999 183s44.333 33.667 66 38s53 6.5 94 6.5s138.667 -25.167 293 -75.5s234.5 -75.5 240.5 -75.5s17.667 12 35 36z" />
    <glyph glyph-name="braceleft" unicode="{" horiz-adv-x="1193" 
d="M853 -231l-327.001 10.0029c-96 0 -165.167 10.833 -207.5 32.5s-63.5 55.667 -63.5 102s15.5 116.333 46.5 210l93 284c31 95.667 46.5 160.834 46.5 195.501s-8.16699 55.5 -24.5 62.5s-45.333 10.5 -87 10.5s-69.334 3.66699 -83.001 11s-20.5 22.333 -20.5 45
s4.5 41.167 13.5 55.5s28.167 24.666 57.5 30.999s59.333 10.666 90 12.999s60 10.666 88 24.999s45.667 35.166 53 62.499c36.667 138.667 63.334 244.5 80.001 317.5s31.334 132.5 44.001 178.5s23 80.167 31 102.5s19 46.166 33 71.499s27.5 43 40.5 53
s30.167 20 51.5 30c31.333 14.667 84 22 158 22l408 3c23.333 0 35 -22.667 35 -68c0 -68.667 -31.667 -103 -95 -103l-143 20c-78.667 0 -131.834 -31.667 -159.501 -95s-69.5 -236 -125.5 -518c-3.33301 -14.667 -5.66602 -26 -6.99902 -34c-18 -88 -142 -134 -372 -138
c57.333 -1.33301 111 -9.66602 161 -24.999c96 -28.667 144 -68 144 -118c0 -28 -30.333 -130.667 -91 -308s-91 -278 -91 -302c0 -64.667 40 -97 120 -97l163 29c23.333 0 35 -22.667 35 -68c0 -68.667 -31.667 -103 -95 -103z" />
    <glyph glyph-name="bar" unicode="|" horiz-adv-x="980" 
d="M141 -509l622 2154c12.667 43.333 39 65 79 65c21.333 0 38 -6.33301 50 -19s18 -26.334 18 -41.001s-0.666992 -24.667 -2 -30l-622 -2154c-12.667 -43.333 -39 -65 -79 -65c-20 0 -36.667 6.33301 -50 19s-20 25.834 -20 39.501s1.33301 24.167 4 31.5z" />
    <glyph glyph-name="braceright" unicode="}" horiz-adv-x="1193" 
d="M466 1697l327.001 -10.0029c96 0 165.167 -10.833 207.5 -32.5s63.5 -55.667 63.5 -102s-15.5 -116.333 -46.5 -210l-93 -284c-31 -95.667 -46.5 -160.834 -46.5 -195.501s8.16699 -55.5 24.5 -62.5s45.333 -10.5 87 -10.5s69.334 -3.66699 83.001 -11
s20.5 -22.333 20.5 -45s-4.5 -41.167 -13.5 -55.5s-28.167 -24.666 -57.5 -30.999s-59.333 -10.666 -90 -12.999s-60 -10.666 -88 -24.999s-45.667 -35.166 -53 -62.499c-36.667 -138.667 -63.334 -244.5 -80.001 -317.5s-31.334 -132.5 -44.001 -178.5
s-23 -80.167 -31 -102.5s-19 -46.166 -33 -71.499s-27.5 -43 -40.5 -53s-30.167 -20 -51.5 -30c-31.333 -14.667 -84 -22 -158 -22l-408 -3c-23.333 0 -35 22.667 -35 68c0 68.667 31.667 103 95 103l143 -20c78.667 0 131.834 31.667 159.501 95s69.5 236 125.5 518
c3.33301 14.667 5.66602 26 6.99902 34c18 88 142 134 372 138c-57.333 1.33301 -111 9.66602 -161 24.999c-96 28.667 -144 68 -144 118c0 28 30.333 130.667 91 308s91 278 91 302c0 64.667 -40 97 -120 97l-163 -29c-23.333 0 -35 22.667 -35 68
c0 68.667 31.667 103 95 103z" />
    <glyph glyph-name="asciitilde" unicode="~" horiz-adv-x="1479" 
d="M1267 547c-100.667 -68 -209 -101.998 -325 -101.998c-46.667 0 -98.5 8.83301 -155.5 26.5s-111.167 35.334 -162.5 53.001s-90 26.5 -116 26.5s-66.833 -14.333 -122.5 -43s-94 -43 -115 -43s-40.167 14.167 -57.5 42.5s-26 51.166 -26 68.499c0 29.333 21 58 63 86
c100.667 68 209 102 325 102c46.667 0 98.667 -8.66699 156 -26s111.666 -34.833 162.999 -52.5s89.833 -26.5 115.5 -26.5s66.334 14.167 122.001 42.5s94.667 42.5 117 42.5s41.5 -13.833 57.5 -41.5s24 -53.334 24 -77.001s-21 -49.834 -63 -78.501z" />
    <glyph glyph-name="nonbreakingspace" unicode="&#xa0;" horiz-adv-x="772" 
 />
    <glyph glyph-name="exclamdown" unicode="&#xa1;" horiz-adv-x="1198" 
d="M532 663c130.667 0 219.5 -0.666992 266.5 -2s70.5 -19 70.5 -53c0 -72 -34.667 -242.333 -104 -511s-107.666 -425.167 -114.999 -469.5s-16.333 -72.5 -27 -84.5s-35.334 -20.167 -74.001 -24.5s-120.5 -10.333 -245.5 -18s-212.333 -11.5 -262 -11.5
s-74.5 19 -74.5 57c0 11.333 2 23 6 35c70.667 192 156 379 256 561c97.333 176.667 166.333 328.667 207 456c14 43.333 46 65 96 65zM467 1134c39.333 44 90.502 78.666 153.502 103.999s131.667 38 206 38s137.166 -19 188.499 -57s77 -84 77 -138
s-19.833 -103.167 -59.5 -147.5s-90.834 -79.166 -153.501 -104.499s-131.167 -38 -205.5 -38s-137 19.5 -188 58.5s-76.5 85.333 -76.5 139s19.333 102.167 58 145.5z" />
    <glyph glyph-name="cent" unicode="&#xa2;" horiz-adv-x="1744" 
d="M1079 1193c20 40 45.999 60 77.999 60c36.667 0 55 -21.333 55 -64c0 -18 -9 -61.333 -27 -130c152.667 -6.66699 278 -31 376 -73c20.667 -8.66699 31 -21.667 31 -39c0 -70.667 -13.833 -140.667 -41.5 -210s-51.834 -104 -72.501 -104
c-11.333 0 -21.333 5.66699 -30 17c-84 115.333 -188 189.333 -312 222l-205 -755c67.333 6.66699 143.666 41 228.999 103c71.333 51.333 148 112.333 230 183c10.667 9.33301 22.667 14 36 14c28 0 42 -12 42 -36c0 -28 -8.5 -91.667 -25.5 -191
s-34.833 -154.666 -53.5 -165.999c-64.667 -39.333 -231.667 -60.333 -501 -63l-51 -184c-11.333 -40.667 -29.666 -61 -54.999 -61c-32.667 0 -49 20.667 -49 62c0 22 10.333 83 31 183c-314.667 8 -510.667 92.333 -588 253c-23.333 50 -35 106 -35 168
c0 98.667 24.5 190 73.5 274s114.833 154.333 197.5 211c172.667 119.333 378.334 183.666 617.001 192.999c20.667 64.667 37.334 109 50.001 133zM803.999 153c55.333 262.667 113.332 505.665 173.999 728.998c-45.333 -9.33301 -86 -31.166 -122 -65.499
s-64.167 -75 -84.5 -122s-35.666 -95.667 -45.999 -146s-15.5 -100.333 -15.5 -150s8 -96.667 24 -141s39.333 -79.166 70 -104.499z" />
    <glyph glyph-name="sterling" unicode="&#xa3;" 
d="M1310 -20l-853.001 22.0039c-51.333 0 -104.5 -3.33301 -159.5 -10s-101.5 -10 -139.5 -10c-66 0 -99 22.667 -99 68c0 20.667 8.83301 38.667 26.5 54s40.834 32.833 69.501 52.5s50.667 40.167 66 61.5c53.333 73.333 94.666 198.666 123.999 375.999
c-102.667 -7.33301 -174.334 -11 -215.001 -11c-32.667 0 -49 21.833 -49 65.5s9 77.167 27 100.5s42.667 35.833 74 37.5s67.333 2.5 108 2.5h85c20.667 136 39.167 234.667 55.5 296s35.5 113.166 57.5 155.499s45.5 78.833 70.5 109.5s54.667 58.167 89 82.5
s66.666 44.333 96.999 60s66.333 29 108 40s78 19.333 109 25s68.5 9.83398 112.5 12.501c62.667 4.66699 134.5 7 215.5 7s167.833 -8.33301 260.5 -25s160 -38 202 -64c10.667 -6 16 -21.833 16 -47.5s-9 -65.334 -27 -119.001s-40.833 -103.834 -68.5 -150.501
s-52.5 -70 -74.5 -70c-9.33301 0 -16.666 3.66699 -21.999 11c-82.667 112 -145 188.667 -187 230s-86.667 62 -134 62c-61.333 0 -115.666 -57 -162.999 -171c-28.667 -68 -55.834 -153.833 -81.501 -257.5s-39.834 -160.167 -42.501 -169.5
c232 19.333 359.667 29.333 383 30s35 -24.333 35 -75c0 -56.667 -14.667 -93.667 -44 -111c-24.667 -14 -67.834 -21 -129.501 -21s-158.5 0.666992 -290.5 2c-20 -68 -36.333 -121.333 -49 -160c-62 -180.667 -148.667 -294.334 -260 -341.001
c170.667 5.33301 308.334 25.333 413.001 60c114.667 38.667 210.334 88 287.001 148c70.667 55.333 155.667 134.666 255 237.999c18.667 20 40.834 30 66.501 30s45.334 -6.16699 59.001 -18.5s20.5 -34.166 20.5 -65.499c0 -62 -12 -144 -36 -246
s-62.833 -176.833 -116.5 -224.5s-137.5 -71.5 -251.5 -71.5z" />
    <glyph glyph-name="currency" unicode="&#xa4;" 
d="M431 598c0 157.333 42.335 294.669 127.002 412.002c-61.333 38.667 -118 79.334 -170 122.001c-16.667 12.667 -25 29 -25 49s14.333 48 43 84s56 54 82 54c12.667 0 24 -3.66699 34 -11c51.333 -40 110.666 -92.333 177.999 -157c106 75.333 229.833 113 371.5 113
s255.5 -37.667 341.5 -113c76 57.333 151.333 109.666 226 156.999c12 7.33301 26.167 11 42.5 11s33.833 -13.5 52.5 -40.5s28 -53.5 28 -79.5s-14.333 -48.333 -43 -67c-74.667 -48 -143.334 -88.333 -206.001 -121c24.667 -58.667 37 -123.334 37 -194.001
c0 -161.333 -45.667 -300.333 -137 -417c60.667 -39.333 119 -81 175 -125c16.667 -13.333 25 -30 25 -50s-14.333 -47.833 -43 -83.5s-56 -53.5 -82 -53.5c-12.667 0 -24 3.66699 -34 11c-57.333 44 -120.333 99.333 -189 166c-106 -68.667 -227.5 -103 -364.5 -103
s-246.5 33.333 -328.5 100c-84 -62.667 -162.333 -117 -235 -163c-12 -7.33301 -26.333 -11 -43 -11s-34.167 13.5 -52.5 40.5s-27.5 53.5 -27.5 79.5s14.333 48.333 43 67c72 46 142.333 87.333 211 124c-24.667 57.333 -37 123.666 -37 198.999zM1052 1110
c-64.667 0 -123.332 -13.999 -175.999 -41.999s-95.334 -65.333 -128.001 -112c-68 -98 -102 -211.333 -102 -340c0 -92.667 23.667 -165.834 71 -219.501s115.333 -80.5 204 -80.5s164 22 226 66s109 103 141 177s48 157.5 48 250.5s-23.667 166.333 -71 220
s-118.333 80.5 -213 80.5z" />
    <glyph glyph-name="yen" unicode="&#xa5;" horiz-adv-x="2048" 
d="M1116 -12l-370.997 -5.99707c-74 0 -119 12.667 -135 38c-7.33301 12.667 -11 31.5 -11 56.5s7.33301 67.5 22 127.5c-122 -7.33301 -208.333 -11 -259 -11c-30 0 -45 20.333 -45 61c0 66.667 31.667 100 95 100c31.333 0 113.666 -3.33301 246.999 -10
c17.333 61.333 30 107.333 38 138c-122 -7.33301 -208 -11 -258 -11c-30 0 -45 20.333 -45 61c0 66.667 31.667 100 95 100c38 0 109.667 -3 215 -9c-31.333 111.333 -69 220.833 -113 328.5s-76.333 181.167 -97 220.5s-39.5 65.666 -56.5 78.999s-39.5 22.333 -67.5 27
c-51.333 8 -77 27.333 -77 58c0 48.667 46.333 93 139 133c102.667 44.667 256.334 67 461.001 67c54 0 95.167 -9 123.5 -27s48.166 -45.333 59.499 -82c22.667 -74.667 49.334 -178.334 80.001 -311.001s53 -251.667 67 -357c65.333 122.667 118 236.167 158 340.5
s77 221.833 111 352.5c6.66699 25.333 16.167 42.5 28.5 51.5s31.5 13.5 57.5 13.5l396 9c62 0 93 -32 93 -96c0 -96 -62.333 -206.667 -187 -332c-58.667 -59.333 -149.667 -143.5 -273 -252.5s-202.333 -182.833 -237 -221.5c133.333 5.33301 212.166 8 236.499 8
s36.5 -19.333 36.5 -58c0 -68.667 -31.667 -103 -95 -103c-50.667 0 -143.334 3 -278.001 9c-11.333 -46.667 -21.333 -92 -30 -136c160 6.66699 257 10 291 10c23.333 0 35 -19.333 35 -58c0 -68.667 -31.667 -103 -95 -103c-58 0 -141.333 2.66699 -250 8
c-2.66699 -28.667 -4 -59.334 -4 -92.001l4 -54c0 -20.667 -11.333 -37 -34 -49s-46.334 -18 -71.001 -18z" />
    <glyph glyph-name="brokenbar" unicode="&#xa6;" horiz-adv-x="980" 
d="M398 374h152l-264 -908c-12.667 -43.333 -39 -65 -79 -65c-20 0 -36.667 6.16699 -50 18.5s-20 25.333 -20 39s1.33301 24.5 4 32.5zM662 779h-152l253 866c12.667 43.333 39 65 79 65c20 0 36.667 -6.16699 50 -18.5s20 -25.333 20 -39s-1.33301 -24.5 -4 -32.5z" />
    <glyph glyph-name="section" unicode="&#xa7;" horiz-adv-x="1958" 
d="M38 3c-8 12 -11.999 27.0039 -11.999 45.0039s21.333 46.833 64 86.5s72 59.5 88 59.5s32.5 -5.83301 49.5 -17.5s35.833 -25.834 56.5 -42.501s43.667 -33.334 69 -50.001c60.667 -40 133.667 -60 219 -60c34 0 61.5 8.66699 82.5 26s31.5 39.166 31.5 65.499
s-8.83301 49.166 -26.5 68.499s-40.667 36.166 -69 50.499s-59.5 28.666 -93.5 42.999s-68.167 30 -102.5 47s-65.833 35.5 -94.5 55.5c-63.333 44.667 -95 103.334 -95 176.001c0 138.667 84.667 244 254 316c89.333 38.667 193.666 65 312.999 79
c-10.667 24.667 -16 56.834 -16 96.501s11.5 80.667 34.5 123s54.5 77.833 94.5 106.5s84.5 53.667 133.5 75s101.833 38 158.5 50c112 22.667 217 34 315 34c214.667 0 356 -21 424 -63c10.667 -6 16 -22.167 16 -48.5s-5.66699 -60.333 -17 -102
s-27.5 -80.334 -48.5 -116.001s-42.5 -53.5 -64.5 -53.5c-8.66699 0 -16 3.66699 -22 11c-57.333 68.667 -110.666 118.667 -159.999 150s-102.333 47 -159 47c-53.333 0 -91.5 -10.833 -114.5 -32.5s-34.5 -46 -34.5 -73s18.333 -56.5 55 -88.5s81 -63.333 133 -94
l156.5 -95.5c52.333 -33 96.833 -71.167 133.5 -114.5s55 -88 55 -134c0 -91.333 -40.667 -163 -122 -215s-210 -78 -386 -78c-49.333 0 -86.333 0.666992 -111 2c36 -48 54 -99.5 54 -154.5s-15.167 -103.667 -45.5 -146s-71.833 -76.166 -124.5 -101.499
c-106.667 -50.667 -238 -76 -394 -76s-301.833 14.333 -437.5 43s-215.834 62 -240.501 100zM1237 595.004c0 34.667 -19.668 65.333 -59.001 92c-33.333 22 -91.666 50.333 -174.999 85c-31.333 9.33301 -60.5 14 -87.5 14s-50.833 -2.66699 -71.5 -8
s-39.667 -16.166 -57 -32.499s-26 -36.833 -26 -61.5s14.5 -47.834 43.5 -69.501s73.5 -47.5 133.5 -77.5l3 1c55.333 -26 108 -39 158 -39c92 0 138 32 138 96z" />
    <glyph glyph-name="dieresis" unicode="&#xa8;" horiz-adv-x="1229" 
d="M536 1447c0 -62 -34.502 -116.001 -103.502 -162.001s-141.667 -69 -218 -69s-135.666 15.5 -177.999 46.5s-63.5 68.833 -63.5 113.5s16.333 85.167 49 121.5s74.834 65 126.501 86s108 31.5 169 31.5s112.667 -16.167 155 -48.5s63.5 -72.166 63.5 -119.499zM1207 1331
c-32 -35.333 -73.835 -63.334 -125.502 -84.001s-108.167 -31 -169.5 -31s-113.166 15.5 -155.499 46.5s-63.5 68.833 -63.5 113.5s16.333 85.167 49 121.5s74.834 65 126.501 86s108 31.5 169 31.5s112.667 -16.167 155 -48.5s63.5 -70.666 63.5 -114.999
s-16.333 -84.5 -49 -120.5z" />
    <glyph glyph-name="copyright" unicode="&#xa9;" horiz-adv-x="2190" 
d="M1449 1214c0 32.667 -24.5 49 -73.5 49s-101.167 -30 -156.5 -90s-102.333 -135.167 -141 -225.5s-58 -174 -58 -251s18.5 -138.167 55.5 -183.5s93.833 -68 170.5 -68c74.667 0 151 13.667 229 41c26 8.66699 47.667 13 65 13s26 -7 26 -21
c0 -27.333 -24.333 -55.833 -73 -85.5s-110 -54.334 -184 -74.001s-145 -29.5 -213 -29.5c-138 0 -248.833 34.167 -332.5 102.5s-125.5 159.5 -125.5 273.5c0 71.333 14.833 142.5 44.5 213.5s69.334 134.833 119.001 191.5s105.5 107 167.5 151
c130.667 92.667 255.167 139 373.5 139s205.666 -25.833 261.999 -77.5s84.5 -122.5 84.5 -212.5c0 -106.667 -36 -186.667 -108 -240c-38 -28.667 -77 -43 -117 -43s-73 6.33301 -99 19s-39 32 -39 58c0 10.667 20.5 66.334 61.5 167.001s61.5 161.667 61.5 183zM338 439
c-48.667 114.667 -73.001 235 -73.001 361s24.5 246.333 73.5 361s115.167 213.667 198.5 297s182.333 149.5 297 198.5s235 73.5 361 73.5s246.333 -24.5 361 -73.5s213.667 -115.167 297 -198.5s149.5 -182.333 198.5 -297s73.5 -235 73.5 -361s-24.5 -246.333 -73.5 -361
s-115.167 -213.667 -198.5 -297s-182.333 -149.5 -297 -198.5s-235 -73.5 -361 -73.5s-246.333 24.5 -361 73.5s-213.667 115.167 -297 198.5s-149.666 182.333 -198.999 297zM379.999 801c0 -146.667 36.3301 -282.331 108.997 -406.998s171.334 -223.334 296.001 -296.001
s260.334 -109 407.001 -109c110 0 215.333 21.5 316 64.5s187.334 100.667 260.001 173s130.5 158.666 173.5 258.999s64.5 205.5 64.5 315.5s-21.5 215.333 -64.5 316s-100.833 187.334 -173.5 260.001s-159.334 130.5 -260.001 173.5s-206 64.5 -316 64.5
s-215.167 -21.5 -315.5 -64.5s-186.666 -100.833 -258.999 -173.5s-130 -159.334 -173 -260.001s-64.5 -206 -64.5 -316z" />
    <glyph glyph-name="ordfeminine" unicode="&#xaa;" horiz-adv-x="1505" 
d="M697 1272c0 -27.333 8.66895 -49.668 26.002 -67.001s43.666 -26 78.999 -26c75.333 0 136.666 45 183.999 135c19.333 37.333 29 73.333 29 108c0 52 -26.333 78 -79 78c-64.667 0 -120.667 -22.167 -168 -66.5s-71 -98.166 -71 -161.499zM1121 1645l299 -11.998
c11.333 0 19.833 -3 25.5 -9s8.5 -12.667 8.5 -20c0 -34.667 -26.333 -109.667 -79 -225s-79 -187.333 -79 -216c0 -25.333 13.667 -38 41 -38c15.333 0 37 4.83301 65 14.5s48.333 14.5 61 14.5c18.667 0 28 -10.833 28 -32.5s-20.5 -42.834 -61.5 -63.501
s-87.833 -35 -140.5 -43s-127.834 -12 -225.501 -12s-157.834 30 -180.501 90c-65.333 -60 -156.666 -90 -273.999 -90c-77.333 0 -143.666 16.667 -198.999 50c-59.333 35.333 -89 92.666 -89 171.999c0 102 42.333 194.333 127 277c40.667 39.333 94 71.333 160 96
s143.5 37 232.5 37s161.5 -21.333 217.5 -64v45c0 19.333 21 29 63 29z" />
    <glyph glyph-name="guillemotleft" unicode="&#xab;" horiz-adv-x="2311" 
d="M1001 11c-6 0 -21.499 9.5 -46.499 28.5l-171.5 132.5c-186 143.333 -325.333 247.333 -418 312c-14.667 10 -22 29.167 -22 57.5s13.333 65.5 40 111.5s53.667 74.333 81 85l525 222c210 91.333 317.333 137 322 137c16 0 29.667 -6.33301 41 -19s17 -29 17 -49
c0 -36 -19.167 -67 -57.5 -93l-169.5 -120c-140.667 -100 -273.334 -186.667 -398.001 -260c52 -52 94.667 -98 128 -138l104 -124l88 -104c22.667 -26.667 34 -53.5 34 -80.5s-9.5 -50.167 -28.5 -69.5s-41.833 -29 -68.5 -29zM1801 11c-6 0 -21.499 9.5 -46.499 28.5
l-171.5 132.5c-186 143.333 -325.333 247.333 -418 312c-14.667 10 -22 29.167 -22 57.5s13.333 65.5 40 111.5s53.667 74.333 81 85l525 222c210 91.333 317.333 137 322 137c16 0 29.667 -6.33301 41 -19s17 -29 17 -49c0 -36 -19.167 -67 -57.5 -93l-169.5 -120
c-140.667 -100 -273.334 -186.667 -398.001 -260c52 -52 94.667 -98 128 -138l104 -124l88 -104c22.667 -26.667 34 -53.5 34 -80.5s-9.5 -50.167 -28.5 -69.5s-41.833 -29 -68.5 -29z" />
    <glyph glyph-name="logicalnot" unicode="&#xac;" horiz-adv-x="1479" 
d="M295 475c-34 0 -51.001 19.666 -51.001 58.999c0 58.667 5.33301 96 16 112c21.333 30 48.833 46.833 82.5 50.5s76.5 5.5 128.5 5.5l418 -9l354 10c34 0 51 -19.667 51 -59c0 -80.667 -24 -213 -72 -397c-5.33301 -22.667 -28.666 -34.334 -69.999 -35.001l-120 -14
c-14.667 0 -25 2.83301 -31 8.5s-9 20.334 -9 44.001s8.5 66.334 25.5 128.001s25.833 94.167 26.5 97.5l-395 9z" />
    <glyph glyph-name="uni00AD" unicode="&#xad;" horiz-adv-x="1543" 
d="M400 475c-34 0 -51 19.667 -51 59c0 58.667 5.66699 96 17 112c20.667 30 47.834 46.833 81.501 50.5s76.5 5.5 128.5 5.5l418 -9l354 10c34 0 51 -19.667 51 -59c0 -58.667 -5.66699 -96 -17 -112c-20.667 -30 -47.834 -46.833 -81.501 -50.5s-76.5 -5.5 -128.5 -5.5
l-418 9z" />
    <glyph glyph-name="registered" unicode="&#xae;" horiz-adv-x="2190" 
d="M338 439c-48.667 114.667 -73.001 235 -73.001 361s24.5 246.333 73.5 361s115.167 213.667 198.5 297s182.333 149.5 297 198.5s235 73.5 361 73.5s246.333 -24.5 361 -73.5s213.667 -115.167 297 -198.5s149.5 -182.333 198.5 -297s73.5 -235 73.5 -361
s-24.5 -246.333 -73.5 -361s-115.167 -213.667 -198.5 -297s-182.333 -149.5 -297 -198.5s-235 -73.5 -361 -73.5s-246.333 24.5 -361 73.5s-213.667 115.167 -297 198.5s-149.666 182.333 -198.999 297zM379.999 801c0 -146.667 36.3301 -282.331 108.997 -406.998
s171.334 -223.334 296.001 -296.001s260.334 -109 407.001 -109c110 0 215.333 21.5 316 64.5s187.334 100.667 260.001 173s130.5 158.666 173.5 258.999s64.5 205.5 64.5 315.5s-21.5 215.333 -64.5 316s-100.833 187.334 -173.5 260.001s-159.334 130.5 -260.001 173.5
s-206 64.5 -316 64.5s-215.167 -21.5 -315.5 -64.5s-186.666 -100.833 -258.999 -173.5s-130 -159.334 -173 -260.001s-64.5 -206 -64.5 -316zM1611 662.003l-8.99902 -154.002c0 -19.333 5.66699 -33.166 17 -41.499s24 -12.5 38 -12.5c36.667 1.33301 55 -10.667 55 -36
c0 -28.667 -30 -53.334 -90 -74.001s-125.333 -31 -196 -31c-134.667 0 -202 46 -202 138c0 28 5.83301 67.5 17.5 118.5s17.5 87.333 17.5 109s-12.333 43.334 -37 65.001s-58.334 32.5 -101.001 32.5h-27c-41.333 -188 -64.333 -291.333 -69 -310
c-15.333 -62 -37.5 -102.333 -66.5 -121s-75.833 -28 -140.5 -28s-125 13.167 -181 39.5s-84 52.5 -84 78.5c0 9.33301 3.5 16.833 10.5 22.5s21 8.5 42 8.5s39.333 6 55 18s30.834 36.333 45.501 73s29.834 86.834 45.501 150.501l41.5 171
c12 50.333 29.667 99.666 53 147.999s50.333 81.166 81 98.499c47.333 27.333 115.666 41 204.999 41c43.333 0 65 -10.667 65 -32c0 -12 -7.83301 -34 -23.5 -66s-37.834 -109.667 -66.501 -233c94 12 168.667 39 224 81s83 97.667 83 167c0 103.333 -81.667 155 -245 155
c-110 0 -205 -16 -285 -48l-81 -34c-24 -10 -38.667 -15 -44 -15c-18.667 0 -28 7 -28 21c0 18.667 10 35.334 30 50.001c142.667 107.333 341.667 161 597 161c120 0 218 -26.333 294 -79c61.333 -42 92 -100 92 -174c0 -84 -37 -148.667 -111 -194
c-66 -41.333 -155.333 -72.666 -268 -93.999c70 0 128.5 -15.667 175.5 -47s70.5 -72.333 70.5 -123z" />
    <glyph glyph-name="macron" unicode="&#xaf;" horiz-adv-x="1229" 
d="M215 1304c-30 0 -45 21.5 -45 64.5s9.83301 76.5 29.5 100.5s41.5 36 65.5 36l386 -20c50 0 116.333 3.33301 199 10s140.667 10 174 10c23.333 0 35 -21.333 35 -64s-9.5 -76.167 -28.5 -100.5s-44.333 -36.5 -76 -36.5s-87.5 3.33301 -167.5 10s-146 10 -198 10
s-118.333 -3.33301 -199 -10s-139 -10 -175 -10z" />
    <glyph glyph-name="degree" unicode="&#xb0;" horiz-adv-x="1177" 
d="M1073 1648c0 61.333 -17.834 110.167 -53.501 146.5s-84.167 54.5 -145.5 54.5s-118.333 -25.667 -171 -77s-79 -107.833 -79 -169.5s17.667 -110.167 53 -145.5s83.833 -53 145.5 -53s118.834 25.5 171.501 76.5s79 106.833 79 167.5zM418.999 1561
c0 70 13.833 135.832 41.5 197.499s64.167 113.5 109.5 155.5c98.667 90.667 213 136 343 136c105.333 0 192.333 -34.333 261 -103s103 -150.667 103 -246s-22.5 -180.666 -67.5 -255.999s-105.333 -134.833 -181 -178.5s-161.667 -65.5 -258 -65.5s-179 34.5 -248 103.5
s-103.5 154.5 -103.5 256.5z" />
    <glyph glyph-name="plusminus" unicode="&#xb1;" horiz-adv-x="1479" 
d="M1250 501c-20.667 -13.333 -37.334 -20.501 -50.001 -21.501s-27.5 -1.83301 -44.5 -2.5s-30.5 -1 -40.5 -1h-108l-19 1h-20l-20 1c-14 0 -24.667 0.333008 -32 1l-44 1c-6.66699 0.666992 -16.667 1 -30 1l-5 -21c-10.667 -41.333 -25.667 -111.333 -45 -210
s-31 -155.667 -35 -171c-5.33301 -22.667 -28.666 -34.334 -69.999 -35.001l-120 -14c-14.667 0 -25 2.83301 -31 8.5s-9 20.334 -9 44.001s7.33301 61.167 22 112.5s40 148 76 290l-52 -1l-21 -1c-44 -0.666992 -94.333 -2.33398 -151 -5.00098l-44 -2
c-18 -0.666992 -38.667 -1 -62 -1h-10c-27.333 4.66699 -41 24.334 -41 59.001v21c0 9.33301 0.333008 16.333 1 21c0 73.333 33.333 113.666 100 120.999c32 3.33301 74 5 126 5l79 -1l19 -1h21c6.66699 -0.666992 19.667 -1.33398 39 -2.00098s35.333 -1 48 -1h2l14 56
c10.667 42.667 23 99.834 37 171.501s22.667 113.834 26 126.501c4.66699 21.333 28.334 33.333 71.001 36l116 7c28.667 0 43 -16 43 -48s-12.833 -93.5 -38.5 -184.5s-39 -138.167 -40 -141.5s-2.16699 -7.66602 -3.5 -12.999s-2.66602 -10 -3.99902 -14h45l20 1
c16 0 40 0.666992 72 2l41 1c6.66699 0.666992 16.667 1 30 1l56 3h16c36 1.33301 57 2 63 2l24 -5c9.33301 -4 17.666 -15 24.999 -33l2 -15v-27l-1 -11v-10l-2 -16c-2.66699 -27.333 -11.334 -51 -26.001 -71zM219 -52.001c-34 0 -51 19.667 -51 59
c0 58.667 5.33301 96 16 112c21.333 30 48.833 46.833 82.5 50.5s76.5 5.5 128.5 5.5l418 -9l354 10c34 0 51 -19.667 51 -59c0 -58.667 -5.33301 -96 -16 -112c-21.333 -30 -48.833 -46.833 -82.5 -50.5s-76.5 -5.5 -128.5 -5.5l-418 9z" />
    <glyph glyph-name="twosuperior" unicode="&#xb2;" horiz-adv-x="1330" 
d="M1348 1270c35.333 0 52.999 -9.66504 52.999 -28.998c0 -28 -17.833 -72.167 -53.5 -132.5s-64.834 -91.5 -87.501 -93.5c-49.333 -3.33301 -97.5 -5 -144.5 -5s-127 10 -240 30s-213.167 41.333 -300.5 64c-42 -24.667 -88.333 -42.5 -139 -53.5
s-88.667 -16.5 -114 -16.5s-55.166 12.833 -89.499 38.5s-51.5 46.5 -51.5 62.5c0 35.333 139.333 121 418 257c104 50.667 175.333 91 214 121s58 59.333 58 88c0 37.333 -27.333 56 -82 56c-73.333 0 -130 -3.66699 -170 -11s-75 -14.333 -105 -21
c-48 -10.667 -75.333 -16 -82 -16c-25.333 0 -38 10 -38 30c0 24 16 43.667 48 59c179.333 86 382.333 129 609 129c120.667 0 213.5 -17.167 278.5 -51.5s97.5 -84.5 97.5 -150.5c0 -97.333 -61 -173 -183 -227c-57.333 -24.667 -116 -46.334 -176 -65.001
c-193.333 -60 -319.666 -106 -378.999 -138c96.667 1.33301 226.5 14.166 389.5 38.499s252.833 36.5 269.5 36.5z" />
    <glyph glyph-name="threesuperior" unicode="&#xb3;" horiz-adv-x="1330" 
d="M1014 1827c287.333 0 431.003 -55.834 431.003 -167.501s-144 -182.834 -432 -213.501c142 -8 246.5 -26.833 313.5 -56.5s100.5 -76.5 100.5 -140.5c0 -155.333 -218.333 -233 -655 -233c-126 0 -235.667 6.16699 -329 18.5s-151 23.333 -173 33
s-35.167 16.5 -39.5 20.5s-6.5 13.333 -6.5 28s11.5 47.667 34.5 99s44.5 77 64.5 77c9.33301 0 30.333 -10.667 63 -32c118 -78.667 227.333 -118 328 -118c43.333 0 81 11.333 113 34s48 50.834 48 84.501s-16.833 62 -50.5 85s-75.334 36.333 -125.001 40
s-81.834 8.5 -96.501 14.5s-23.334 11.5 -26.001 16.5s-4 12.833 -4 23.5c0 28 29.667 43.667 89 47c101.333 6.66699 173.5 19.834 216.5 39.501s64.5 44.5 64.5 74.5c0 56.667 -43.333 85 -130 85c-64.667 0 -133.334 -11.167 -206.001 -33.5s-115.667 -33.5 -129 -33.5
s-23.666 4 -30.999 12s-11 19.833 -11 35.5s14 30.167 42 43.5c162 78 340.667 117 536 117z" />
    <glyph glyph-name="acute" unicode="&#xb4;" horiz-adv-x="1229" 
d="M743 1712c14 7.33301 31.001 11 51.001 11c47.333 0 95.166 -18.5 143.499 -55.5s72.5 -76.167 72.5 -117.5c0 -49.333 -37.333 -87.333 -112 -114c-224.667 -82 -415 -160.333 -571 -235c-26 -12.667 -48.333 -19 -67 -19c-27.333 0 -41 12.333 -41 37
s23.333 65.667 70 123s112 121.5 196 192.5s170 130.167 258 177.5z" />
    <glyph glyph-name="mu" unicode="&#xb5;" horiz-adv-x="1479" 
d="M1303 1040c25.333 0 37.999 -14.498 37.999 -43.498s-17.333 -94.333 -52 -196l-104 -315.5c-34.667 -108.667 -52 -181.667 -52 -219c0 -71.333 22.333 -107 67 -107c31.333 0 62.166 8.16699 92.499 24.5s50.166 24.5 59.499 24.5c25.333 0 38 -12 38 -36
c0 -32.667 -20.333 -69.334 -61 -110.001c-68 -68 -148 -102 -240 -102c-123.333 0 -196.666 55.667 -219.999 167c-41.333 -50 -96.833 -90.167 -166.5 -120.5s-144.834 -45.5 -225.501 -45.5s-134 36.667 -160 110c-19.333 -64 -66.666 -237 -141.999 -519
c-6.66699 -22.667 -30 -34.334 -70 -35.001l-130 -14c-14.667 0 -25 2.83301 -31 8.5s-9 20.334 -9 44.001s6.5 58.167 19.5 103.5s52.167 173.333 117.5 384c150 480 225 781.333 225 904c0 30 4.83301 51.167 14.5 63.5s27.5 18.5 53.5 18.5l162 11
c17.333 0 30.333 -5.16699 39 -15.5s13 -28 13 -53s-14.167 -84.333 -42.5 -178l-85 -284c-28.333 -95.667 -42.5 -163.334 -42.5 -203.001s13.333 -70.167 40 -91.5s65.334 -32 116.001 -32c118.667 0 227 49.667 325 149c10 36 39.333 133.833 88 293.5
s83 281.5 103 365.5c6.66699 24.667 24.334 37 53.001 37z" />
    <glyph glyph-name="mu" unicode="&#x3bc;" horiz-adv-x="1479" 
d="M1303 1040c25.333 0 37.999 -14.498 37.999 -43.498s-17.333 -94.333 -52 -196l-104 -315.5c-34.667 -108.667 -52 -181.667 -52 -219c0 -71.333 22.333 -107 67 -107c31.333 0 62.166 8.16699 92.499 24.5s50.166 24.5 59.499 24.5c25.333 0 38 -12 38 -36
c0 -32.667 -20.333 -69.334 -61 -110.001c-68 -68 -148 -102 -240 -102c-123.333 0 -196.666 55.667 -219.999 167c-41.333 -50 -96.833 -90.167 -166.5 -120.5s-144.834 -45.5 -225.501 -45.5s-134 36.667 -160 110c-19.333 -64 -66.666 -237 -141.999 -519
c-6.66699 -22.667 -30 -34.334 -70 -35.001l-130 -14c-14.667 0 -25 2.83301 -31 8.5s-9 20.334 -9 44.001s6.5 58.167 19.5 103.5s52.167 173.333 117.5 384c150 480 225 781.333 225 904c0 30 4.83301 51.167 14.5 63.5s27.5 18.5 53.5 18.5l162 11
c17.333 0 30.333 -5.16699 39 -15.5s13 -28 13 -53s-14.167 -84.333 -42.5 -178l-85 -284c-28.333 -95.667 -42.5 -163.334 -42.5 -203.001s13.333 -70.167 40 -91.5s65.334 -32 116.001 -32c118.667 0 227 49.667 325 149c10 36 39.333 133.833 88 293.5
s83 281.5 103 365.5c6.66699 24.667 24.334 37 53.001 37z" />
    <glyph glyph-name="paragraph" unicode="&#xb6;" horiz-adv-x="2046" 
d="M1979 1280c-16 0 -45.8291 9.33203 -89.4961 27.999s-85.834 35.334 -126.501 50.001c-27.333 -134.667 -99 -443.334 -215 -926.001c-80.667 -333.333 -121 -596 -121 -788c0 -27.333 -5 -45.333 -15 -54c-14.667 -12.667 -75.667 -19 -183 -19
c-1.33301 17.333 -2 33 -2 47c0 136.667 59 413.667 177 831c122 430 192.333 747 211 951c-32.667 8 -66.334 14 -101.001 18c-18 -181.333 -72 -430.666 -162 -747.999c-100.667 -352 -164 -593.667 -190 -725s-39 -222.333 -39 -273s1 -85.667 3 -105
c-40 -4.66699 -78.333 -7 -115 -7s-61.334 6 -74.001 18s-19 37.333 -19 76s9 99.334 27 182.001s37 159.667 57 231l89.5 310.5l87.5 305.5c-89.333 -59.333 -219.666 -89 -390.999 -89c-143.333 0 -268 29.333 -374 88c-53.333 30 -95.833 71 -127.5 123
s-47.5 112.333 -47.5 181c0 118.667 36.667 222.667 110 312s177.166 158 311.499 206s290.166 72 467.499 72c284.667 0 526 -43.667 724 -131c106.667 -46.667 160 -91.334 160 -134.001c0 -20.667 -11 -31 -33 -31z" />
    <glyph glyph-name="periodcentered" unicode="&#xb7;" horiz-adv-x="1198" 
d="M944 632c-38.667 -43.333 -89.502 -77.666 -152.502 -102.999s-131.667 -38 -206 -38s-137.166 19 -188.499 57s-77 84 -77 138s19.833 103.167 59.5 147.5s90.834 79.166 153.501 104.499s131.167 38 205.5 38s137 -19.5 188 -58.5s76.5 -85.333 76.5 -139
s-19.667 -102.5 -59 -146.5z" />
    <glyph glyph-name="cedilla" unicode="&#xb8;" horiz-adv-x="1229" 
d="M768 -112c74.667 0 134.169 -19.8301 178.502 -59.4971s66.5 -91.5 66.5 -155.5s-15 -116.333 -45 -157c-58 -77.333 -152.333 -116 -283 -116s-253 33.667 -367 101c-34.667 20.667 -60.5 40.167 -77.5 58.5s-25.5 37.166 -25.5 56.499c0 39.333 17.667 59 53 59
c14.667 0 36.167 -8.33301 64.5 -25s71.166 -34.167 128.499 -52.5s105.166 -27.5 143.499 -27.5s67.5 8.5 87.5 25.5s30 39.167 30 66.5s-9.66699 49.166 -29 65.499s-50.833 24.5 -94.5 24.5s-77.167 3.5 -100.5 10.5s-35 23 -35 48s15.833 70.167 47.5 135.5
s67.167 116.666 106.5 153.999l72 -35l-57 -193c50.667 10.667 96 16 136 16z" />
    <glyph glyph-name="onesuperior" unicode="&#xb9;" horiz-adv-x="1069" 
d="M622 1624l-190.001 -26.001c-30 0 -45 11.667 -45 35c0 20 18.667 37.333 56 52c243.333 98.667 439.333 148 588 148c106 0 159 -29.333 159 -88c0 -52.667 -21.333 -127.334 -64 -224.001s-71.5 -164.667 -86.5 -204s-29.333 -82.666 -43 -129.999
s-20.5 -77.666 -20.5 -90.999s-5.5 -24.666 -16.5 -33.999s-24.833 -14 -41.5 -14l-343 -7c-59.333 0 -93.666 4.5 -102.999 13.5s-14 20.5 -14 34.5s7.33301 36.5 22 67.5l85 175.5c76 155.333 114 243.666 114 264.999c0 18 -19 27 -57 27z" />
    <glyph glyph-name="ordmasculine" unicode="&#xba;" horiz-adv-x="1505" 
d="M822 1003c-146 0 -259.168 23.5029 -339.501 70.5029s-120.5 109.167 -120.5 186.5s28 144.666 84 201.999c112.667 115.333 293.667 173 543 173c176.667 0 302.334 -35.667 377.001 -107c39.333 -38.667 59 -85.334 59 -140.001s-12.667 -104.834 -38 -150.501
s-62.333 -86.167 -111 -121.5c-104 -75.333 -255.333 -113 -454 -113zM831.999 1115c39.333 0 76.167 16.168 110.5 48.501s61 73.666 80 123.999s28.5 103 28.5 158s-23.333 82.5 -70 82.5c-62.667 0 -118.5 -31 -167.5 -93s-73.5 -130.833 -73.5 -206.5
s30.667 -113.5 92 -113.5z" />
    <glyph glyph-name="guillemotright" unicode="&#xbb;" horiz-adv-x="2311" 
d="M621 1097c6 0 21.5 -9.5 46.5 -28.5l171.5 -132.5c186 -143.333 325.333 -247.333 418 -312c14.667 -10 22 -29.167 22 -57.5s-13.333 -65.5 -40 -111.5s-53.667 -74.333 -81 -85l-525 -222c-210 -91.333 -317.333 -137 -322 -137c-16 0 -29.667 6.33301 -41 19
s-17 29 -17 49c0 36 22.667 69.333 68 100l158 113c141.333 101.333 274 188 398 260c-56 57.333 -98.5 103.333 -127.5 138l-105.5 126l-91 108c-19.333 22.667 -29 47.5 -29 74.5s9.5 50.167 28.5 69.5s41.833 29 68.5 29zM1421 1097c6 0 21.5 -9.5 46.5 -28.5
l171.5 -132.5c186 -143.333 325.333 -247.333 418 -312c14.667 -10 22 -29.167 22 -57.5s-13.333 -65.5 -40 -111.5s-53.667 -74.333 -81 -85l-525 -222c-210 -91.333 -317.333 -137 -322 -137c-16 0 -29.667 6.33301 -41 19s-17 29 -17 49c0 36 22.667 69.333 68 100
l158 113c141.333 101.333 274 188 398 260c-56 57.333 -98.5 103.333 -127.5 138l-105.5 126l-91 108c-19.333 22.667 -29 47.5 -29 74.5s9.5 50.167 28.5 69.5s41.833 29 68.5 29z" />
    <glyph glyph-name="onequarter" unicode="&#xbc;" horiz-adv-x="3008" 
d="M2590 317l145.998 6.99902c22 0 33 -6.66699 33 -20c0 -32.667 -3.33301 -54.167 -10 -64.5s-20.834 -16.666 -42.5 -18.999c-21.667 -2.33301 -71.834 -5.16602 -150.5 -8.49902c-11.333 -54.667 -17.666 -92.667 -19 -114c-1.33301 -21.333 -3 -38 -5 -50
s-3 -20 -3 -24c0 -10 -8.16699 -17.667 -24.5 -23s-34.166 -8 -53.499 -8l-360 -3c-57.333 0 -86 13.333 -86 40c0 19.333 4.66699 38.5 14 57.5s30.333 55.167 62.999 108.5c-232 -8 -390.333 -12 -475 -12s-143 2.66699 -175 8c-83.333 14.667 -125 41.667 -125 81
c0 21.333 21.667 51 65 89c92.667 80.667 193 200 301 358c12.667 18.667 26.334 31.667 41.001 39s37 11 67 11l416 8c40 0 60 -8.33301 60 -25c0 -7.33301 -3 -14.833 -9 -22.5s-50.667 -44.167 -134 -109.5c-242.667 -190 -364 -292.333 -364 -307
c0 -8.66699 48.333 -12 145 -10s151.167 3.16699 163.501 3.5c12.333 0.333008 29.333 0.833008 51 1.5s37.167 1 46.5 1c64 97.333 99.667 155.666 107 174.999s30.666 29 70 29l173 -1c36.667 0 62.5 -4.16699 77.5 -12.5s22.5 -22.5 22.5 -42.5s-8.66699 -67 -26 -141z
M793.998 1364l-190.001 -26.001c-30 0 -45 11.667 -45 35c0 20 18.667 37.333 56 52c243.333 98.667 439.333 148 588 148c106 0 159 -29.333 159 -88c0 -52.667 -21.333 -127.334 -64 -224.001s-71.5 -164.667 -86.5 -204s-29.333 -82.666 -43 -129.999
s-20.5 -77.666 -20.5 -90.999s-5.5 -24.666 -16.5 -33.999s-24.833 -14 -41.5 -14l-343 -7c-59.333 0 -93.666 4.5 -102.999 13.5s-14 20.5 -14 34.5s7.33301 36.5 22 67.5l85 175.5c76 155.333 114 243.666 114 264.999c0 18 -19 27 -57 27zM2310 1485
c0 -32.667 -22.333 -67.667 -67 -105l-1626 -1347c-34 -28 -62.667 -42 -86 -42s-40.833 5.83301 -52.5 17.5s-17.5 26.834 -17.5 45.501c0 31.333 22.333 65.666 67 102.999l1626 1347c34 28 62.667 42 86 42s40.833 -5.83301 52.5 -17.5s17.5 -26.167 17.5 -43.5z" />
    <glyph glyph-name="onehalf" unicode="&#xbd;" horiz-adv-x="3008" 
d="M894 1364l-190.001 -26.001c-30 0 -45 11.667 -45 35c0 20 18.667 37.333 56 52c243.333 98.667 439.333 148 588 148c106 0 159 -29.333 159 -88c0 -52.667 -21.333 -127.334 -64 -224.001s-71.5 -164.667 -86.5 -204s-29.333 -82.666 -43 -129.999
s-20.5 -77.666 -20.5 -90.999s-5.5 -24.666 -16.5 -33.999s-24.833 -14 -41.5 -14l-343 -7c-59.333 0 -93.666 4.5 -102.999 13.5s-14 20.5 -14 34.5s7.33301 36.5 22 67.5l85 175.5c76 155.333 114 243.666 114 264.999c0 18 -19 27 -57 27zM2410 1485
c0 -32.667 -22.333 -67.667 -67 -105l-1626 -1347c-34 -28 -62.667 -42 -86 -42s-40.833 5.83301 -52.5 17.5s-17.5 26.834 -17.5 45.501c0 31.333 22.333 65.666 67 102.999l1626 1347c34 28 62.667 42 86 42s40.833 -5.83301 52.5 -17.5s17.5 -26.167 17.5 -43.5z
M2596 200.999c0 -28 -17.832 -72.166 -53.499 -132.499s-64.834 -91.5 -87.501 -93.5c-49.333 -3.33301 -97.5 -5 -144.5 -5s-127 10 -240 30s-213.167 41.333 -300.5 64c-42 -24.667 -88.333 -42.5 -139 -53.5s-88.667 -16.5 -114 -16.5s-55.166 12.833 -89.499 38.5
s-51.5 46.5 -51.5 62.5c0 35.333 139.333 121 418 257c104 50.667 175.333 91 214 121s58 59.333 58 88c0 37.333 -27.333 56 -82 56c-73.333 0 -140 -5.66699 -200 -17c-20 -3.33301 -49.5 -9.33301 -88.5 -18s-61.833 -13 -68.5 -13c-25.333 0 -38 10 -38 30
c0 24 16 43.667 48 59c179.333 86 382.333 129 609 129c120.667 0 213.5 -17.167 278.5 -51.5s97.5 -84.5 97.5 -150.5c0 -97.333 -61.333 -173 -184 -227c-56.667 -24.667 -148.334 -56.667 -275.001 -96s-219.667 -75 -279 -107c96.667 1.33301 226.5 14.166 389.5 38.499
s252.833 36.5 269.5 36.5c35.333 0 53 -9.66699 53 -29z" />
    <glyph glyph-name="threequarters" unicode="&#xbe;" horiz-adv-x="3008" 
d="M2660 317l145.998 6.99902c22 0 33 -6.66699 33 -20c0 -32.667 -3.33301 -54.167 -10 -64.5s-20.834 -16.666 -42.5 -18.999c-21.667 -2.33301 -71.834 -5.16602 -150.5 -8.49902c-11.333 -54.667 -17.666 -92.667 -19 -114c-1.33301 -21.333 -3 -38 -5 -50
s-3 -20 -3 -24c0 -10 -8.16699 -17.667 -24.5 -23s-34.166 -8 -53.499 -8l-360 -3c-57.333 0 -86 13.333 -86 40c0 19.333 4.66699 38.5 14 57.5s30.333 55.167 63 108.5c-232 -8 -390.333 -12 -475 -12s-143 2.66699 -175 8c-83.333 14.667 -125 41.667 -125 81
c0 21.333 21.667 51 65 89c92.667 80.667 193 200 301 358c12.667 18.667 26.334 31.667 41.001 39s37 11 67 11l416 8c40 0 60 -8.33301 60 -25c0 -7.33301 -3 -14.833 -9 -22.5s-50.667 -44.167 -134 -109.5c-242.667 -190 -364 -292.333 -364 -307
c0 -8.66699 48.333 -12 145 -10s151.167 3.16699 163.5 3.5s29.333 0.833008 51 1.5s37.167 1 46.5 1c64 97.333 99.667 155.666 107 174.999s30.666 29 70 29l173 -1c36.667 0 62.5 -4.16699 77.5 -12.5s22.5 -22.5 22.5 -42.5s-8.66699 -67 -26 -141zM2398 1485
c0 -32.667 -22.333 -67.667 -67 -105l-1626 -1347c-34 -28 -62.667 -42 -86 -42s-40.833 5.83301 -52.5 17.5s-17.5 26.834 -17.5 45.501c0 31.333 22.333 65.666 67 102.999l1626 1347c34 28 62.667 42 86 42s40.833 -5.83301 52.5 -17.5s17.5 -26.167 17.5 -43.5z
M1040 1578c287.333 0 431.003 -55.833 431.003 -167.5s-144 -182.834 -432 -213.501c142 -8 246.5 -26.833 313.5 -56.5s100.5 -76.5 100.5 -140.5c0 -155.333 -218.333 -233 -655 -233c-126 0 -235.667 6.16699 -329 18.5s-151 23.333 -173 33s-35.167 16.5 -39.5 20.5
s-6.5 13.333 -6.5 28s11.5 47.667 34.5 99s44.5 77 64.5 77c9.33301 0 30.333 -11 63 -33c118 -78 227.333 -117 328 -117c43.333 0 81 11.333 113 34s48 50.834 48 84.501s-16.833 62 -50.5 85s-75.334 36.333 -125.001 40s-81.834 8.5 -96.501 14.5
s-23.334 11.5 -26.001 16.5s-4 13.167 -4 24.5c0 27.333 29.667 42.666 89 45.999c101.333 6.66699 173.5 19.834 216.5 39.501s64.5 44.5 64.5 74.5c0 56.667 -43.333 85 -130 85c-64.667 0 -133.334 -11.167 -206.001 -33.5s-115.667 -33.5 -129 -33.5
s-23.666 4 -30.999 12s-11 19.833 -11 35.5s14 30.167 42 43.5c162 78 340.667 117 536 117z" />
    <glyph glyph-name="questiondown" unicode="&#xbf;" horiz-adv-x="1534" 
d="M1200 20c15.333 8.66699 38.0029 13 68.0029 13s45 -12.667 45 -38c0 -49.333 -26.833 -129.833 -80.5 -241.5s-97.334 -176.667 -131.001 -195s-96.834 -34.5 -189.501 -48.5s-186.334 -21 -281.001 -21c-188 0 -346.333 29 -475 87
c-64.667 29.333 -115.667 69.666 -153 120.999s-56 111.333 -56 180c0 111.333 46.333 210.333 139 297c42 39.333 89.167 76.666 141.5 111.999s108.166 69.666 167.499 102.999l169 95c127.333 72 219 142.333 275 211c8 9.33301 22.167 14 42.5 14s53.333 -16.667 99 -50
s68.5 -66.666 68.5 -99.999s-18.5 -73.166 -55.5 -119.499s-81.833 -92.333 -134.5 -138l-157.5 -135c-52.333 -44.333 -97 -86.5 -134 -126.5s-55.5 -71.5 -55.5 -94.5s11.5 -41.333 34.5 -55s55.167 -20.5 96.5 -20.5c127.333 0 231.833 12.833 313.5 38.5
s162.834 62.834 243.501 111.501zM705.003 1143c39.333 44 90.502 78.666 153.502 103.999s131.667 38 206 38s137.166 -19 188.499 -57s77 -84 77 -138s-19.833 -103.167 -59.5 -147.5s-90.834 -79.166 -153.501 -104.499s-131.167 -38 -205.5 -38s-137 19.5 -188 58.5
s-76.5 85.333 -76.5 139s19.333 102.167 58 145.5z" />
    <glyph glyph-name="Agrave" unicode="&#xc0;" horiz-adv-x="1880" 
d="M1183 -40c-222 0 -333 73.666 -333 220.999c0 84 53 251.833 159 503.5s159 426.167 159 523.5c0 54.667 -20.167 93.5 -60.5 116.5s-98.666 34.5 -174.999 34.5s-153.833 -6.66699 -232.5 -20s-129.167 -20 -151.5 -20s-33.5 10 -33.5 30c0 26 47 60.333 141 103
c180.667 82.667 379.667 124 597 124c172 0 300.833 -31 386.5 -93s128.5 -162.667 128.5 -302c0 -82.667 -14.667 -186.167 -44 -310.5s-58.5 -241.166 -87.5 -350.499s-43.5 -184.333 -43.5 -225s7.66699 -69 23 -85c19.333 -20 56.666 -30 111.999 -30
c34 0 53.167 -3.66699 57.5 -11s6.5 -15 6.5 -23c0 -30.667 -14 -55.667 -42 -75c-106 -74 -295 -111 -567 -111zM601 683.999l255.999 5.99902c46.667 0 70 -13.667 70 -41c0 -19.333 -11 -34.666 -33 -45.999c-77.333 -39.333 -210.666 -64.333 -399.999 -75
c-54 -106.667 -81 -200.334 -81 -281.001c0 -36 4.66699 -69.167 14 -99.5s14 -52.166 14 -65.499c0 -35.333 -22.333 -59.166 -67 -71.499s-110.167 -18.5 -196.5 -18.5s-143.166 7.83301 -170.499 23.5s-41 43.5 -41 83.5c0 74.667 21.833 157 65.5 247
s99.5 176.167 167.5 258.5s143.333 163.166 226 242.499s163 147.666 241 204.999c173.333 128.667 291.333 193 354 193c28.667 0 43 -8.66699 43 -26s-14 -36.666 -42 -57.999c-59.333 -43.333 -130.333 -109.333 -213 -198s-156.334 -181.667 -221.001 -279h14z
M1681 1674c0 -25.333 -13.3301 -37.999 -39.9971 -37.999s-77 11.333 -151 34c-130.667 39.333 -283.334 67.666 -458.001 84.999c-38 3.33301 -69.667 18 -95 44s-38 60.833 -38 104.5s18 79 54 106s83.167 40.5 141.5 40.5s124.166 -16 197.499 -48
s137.666 -69.333 192.999 -112s101.833 -84.5 139.5 -125.5s56.5 -71.167 56.5 -90.5z" />
    <glyph glyph-name="Aacute" unicode="&#xc1;" horiz-adv-x="1880" 
d="M1183 -40c-222 0 -333 73.666 -333 220.999c0 84 53 251.833 159 503.5s159 426.167 159 523.5c0 54.667 -20.167 93.5 -60.5 116.5s-98.666 34.5 -174.999 34.5s-153.833 -6.66699 -232.5 -20s-129.167 -20 -151.5 -20s-33.5 10 -33.5 30c0 26 47 60.333 141 103
c180.667 82.667 379.667 124 597 124c172 0 300.833 -31 386.5 -93s128.5 -162.667 128.5 -302c0 -82.667 -14.667 -186.167 -44 -310.5s-58.5 -241.166 -87.5 -350.499s-43.5 -184.333 -43.5 -225s7.66699 -69 23 -85c19.333 -20 56.666 -30 111.999 -30
c34 0 53.167 -3.66699 57.5 -11s6.5 -15 6.5 -23c0 -30.667 -14 -55.667 -42 -75c-106 -74 -295 -111 -567 -111zM601 683.999l255.999 5.99902c46.667 0 70 -13.667 70 -41c0 -19.333 -11 -34.666 -33 -45.999c-77.333 -39.333 -210.666 -64.333 -399.999 -75
c-54 -106.667 -81 -200.334 -81 -281.001c0 -36 4.66699 -69.167 14 -99.5s14 -52.166 14 -65.499c0 -35.333 -22.333 -59.166 -67 -71.499s-110.167 -18.5 -196.5 -18.5s-143.166 7.83301 -170.499 23.5s-41 43.5 -41 83.5c0 74.667 21.833 157 65.5 247
s99.5 176.167 167.5 258.5s143.333 163.166 226 242.499s163 147.666 241 204.999c173.333 128.667 291.333 193 354 193c28.667 0 43 -8.66699 43 -26s-14 -36.666 -42 -57.999c-59.333 -43.333 -130.333 -109.333 -213 -198s-156.334 -181.667 -221.001 -279h14z
M1611 2013c65.333 24.667 124.832 36.998 178.499 36.998s102.334 -16.5 146.001 -49.5s65.5 -71.167 65.5 -114.5c0 -26 -9 -50.167 -27 -72.5s-46.667 -36.166 -86 -41.499c-6 -0.666992 -28.333 -3.66699 -67 -9l-88.5 -12c-20.333 -2.66699 -51 -7 -92 -13
s-76.333 -11.667 -106 -17s-63 -11.666 -100 -18.999s-72 -15 -105 -23s-63.5 -16.333 -91.5 -25s-53 -13 -75 -13s-33 13 -33 39c0 38 48.333 91 145 159s208.667 126 336 174z" />
    <glyph glyph-name="Acircumflex" unicode="&#xc2;" horiz-adv-x="1880" 
d="M1183 -40c-222 0 -333 73.666 -333 220.999c0 84 53 251.833 159 503.5s159 426.167 159 523.5c0 54.667 -20.167 93.5 -60.5 116.5s-98.666 34.5 -174.999 34.5s-153.833 -6.66699 -232.5 -20s-129.167 -20 -151.5 -20s-33.5 10 -33.5 30c0 26 47 60.333 141 103
c180.667 82.667 379.667 124 597 124c172 0 300.833 -31 386.5 -93s128.5 -162.667 128.5 -302c0 -82.667 -14.667 -186.167 -44 -310.5s-58.5 -241.166 -87.5 -350.499s-43.5 -184.333 -43.5 -225s7.66699 -69 23 -85c19.333 -20 56.666 -30 111.999 -30
c34 0 53.167 -3.66699 57.5 -11s6.5 -15 6.5 -23c0 -30.667 -14 -55.667 -42 -75c-106 -74 -295 -111 -567 -111zM601 683.999l255.999 5.99902c46.667 0 70 -13.667 70 -41c0 -19.333 -11 -34.666 -33 -45.999c-77.333 -39.333 -210.666 -64.333 -399.999 -75
c-54 -106.667 -81 -200.334 -81 -281.001c0 -36 4.66699 -69.167 14 -99.5s14 -52.166 14 -65.499c0 -35.333 -22.333 -59.166 -67 -71.499s-110.167 -18.5 -196.5 -18.5s-143.166 7.83301 -170.499 23.5s-41 43.5 -41 83.5c0 74.667 21.833 157 65.5 247
s99.5 176.167 167.5 258.5s143.333 163.166 226 242.499s163 147.666 241 204.999c173.333 128.667 291.333 193 354 193c28.667 0 43 -8.66699 43 -26s-14 -36.666 -42 -57.999c-59.333 -43.333 -130.333 -109.333 -213 -198s-156.334 -181.667 -221.001 -279h14z
M1419 1782c-269.333 -103.333 -426.001 -154.999 -470.001 -154.999c-13.333 0 -24.666 4 -33.999 12s-14 19 -14 33c0 28 36 69.833 108 125.5s174.667 125.5 308 209.5c26.667 16.667 49.834 27.834 69.501 33.501s46.167 8.5 79.5 8.5s60 -5 80 -15
s39.333 -24.333 58 -43c87.333 -86.667 153.5 -156.834 198.5 -210.501s67.5 -93.834 67.5 -120.501s-15.833 -40 -47.5 -40s-74.834 11 -129.501 33c-94 38 -185.333 81 -274 129z" />
    <glyph glyph-name="Atilde" unicode="&#xc3;" horiz-adv-x="1880" 
d="M1183 -40c-222 0 -333 73.666 -333 220.999c0 84 53 251.833 159 503.5s159 426.167 159 523.5c0 54.667 -20.167 93.5 -60.5 116.5s-98.666 34.5 -174.999 34.5s-153.833 -6.66699 -232.5 -20s-129.167 -20 -151.5 -20s-33.5 10 -33.5 30c0 26 47 60.333 141 103
c180.667 82.667 379.667 124 597 124c172 0 300.833 -31 386.5 -93s128.5 -162.667 128.5 -302c0 -82.667 -14.667 -186.167 -44 -310.5s-58.5 -241.166 -87.5 -350.499s-43.5 -184.333 -43.5 -225s7.66699 -69 23 -85c19.333 -20 56.666 -30 111.999 -30
c34 0 53.167 -3.66699 57.5 -11s6.5 -15 6.5 -23c0 -30.667 -14 -55.667 -42 -75c-106 -74 -295 -111 -567 -111zM601 683.999l255.999 5.99902c46.667 0 70 -13.667 70 -41c0 -19.333 -11 -34.666 -33 -45.999c-77.333 -39.333 -210.666 -64.333 -399.999 -75
c-54 -106.667 -81 -200.334 -81 -281.001c0 -36 4.66699 -69.167 14 -99.5s14 -52.166 14 -65.499c0 -35.333 -22.333 -59.166 -67 -71.499s-110.167 -18.5 -196.5 -18.5s-143.166 7.83301 -170.499 23.5s-41 43.5 -41 83.5c0 74.667 21.833 157 65.5 247
s99.5 176.167 167.5 258.5s143.333 163.166 226 242.499s163 147.666 241 204.999c173.333 128.667 291.333 193 354 193c28.667 0 43 -8.66699 43 -26s-14 -36.666 -42 -57.999c-59.333 -43.333 -130.333 -109.333 -213 -198s-156.334 -181.667 -221.001 -279h14z
M942.999 1705c-46 0 -69.001 16.332 -69.001 48.999c0 21.333 8.5 42 25.5 62l49.5 56c92.667 101.333 197.334 152 314.001 152c68.667 0 142 -16.833 220 -50.5s133.333 -50.5 166 -50.5s79.334 10.333 140.001 31s101.167 31 121.5 31s37 -4.33301 50 -13
s19.5 -23.167 19.5 -43.5s-25 -57.166 -75 -110.499c-92.667 -102 -197.667 -153 -315 -153c-46.667 0 -95.167 8.5 -145.5 25.5s-97.833 34 -142.5 51s-80.167 25.5 -106.5 25.5s-69.833 -10.333 -130.5 -31s-101.334 -31 -122.001 -31z" />
    <glyph glyph-name="Adieresis" unicode="&#xc4;" horiz-adv-x="1880" 
d="M1183 -40c-222 0 -333 73.666 -333 220.999c0 84 53 251.833 159 503.5s159 426.167 159 523.5c0 54.667 -20.167 93.5 -60.5 116.5s-98.666 34.5 -174.999 34.5s-153.833 -6.66699 -232.5 -20s-129.167 -20 -151.5 -20s-33.5 10 -33.5 30c0 26 47 60.333 141 103
c180.667 82.667 379.667 124 597 124c172 0 300.833 -31 386.5 -93s128.5 -162.667 128.5 -302c0 -82.667 -14.667 -186.167 -44 -310.5s-58.5 -241.166 -87.5 -350.499s-43.5 -184.333 -43.5 -225s7.66699 -69 23 -85c19.333 -20 56.666 -30 111.999 -30
c34 0 53.167 -3.66699 57.5 -11s6.5 -15 6.5 -23c0 -30.667 -14 -55.667 -42 -75c-106 -74 -295 -111 -567 -111zM601 683.999l255.999 5.99902c46.667 0 70 -13.667 70 -41c0 -19.333 -11 -34.666 -33 -45.999c-77.333 -39.333 -210.666 -64.333 -399.999 -75
c-54 -106.667 -81 -200.334 -81 -281.001c0 -36 4.66699 -69.167 14 -99.5s14 -52.166 14 -65.499c0 -35.333 -22.333 -59.166 -67 -71.499s-110.167 -18.5 -196.5 -18.5s-143.166 7.83301 -170.499 23.5s-41 43.5 -41 83.5c0 74.667 21.833 157 65.5 247
s99.5 176.167 167.5 258.5s143.333 163.166 226 242.499s163 147.666 241 204.999c173.333 128.667 291.333 193 354 193c28.667 0 43 -8.66699 43 -26s-14 -36.666 -42 -57.999c-59.333 -43.333 -130.333 -109.333 -213 -198s-156.334 -181.667 -221.001 -279h14z
M1279 1749c-34 -34.667 -77.5 -61.332 -130.5 -79.999s-110.5 -28 -172.5 -28s-115.5 14.167 -160.5 42.5s-67.5 64.333 -67.5 108s17.167 83 51.5 118s78 62.167 131 81.5s110.667 29 173 29s115.833 -14.667 160.5 -44s67 -65.833 67 -109.5s-17.333 -82.834 -52 -117.501
zM2071 1862c0 -61.333 -35.667 -113.5 -107 -156.5s-146 -64.5 -224 -64.5s-139.5 14.167 -184.5 42.5s-67.5 64.333 -67.5 108s17.167 83 51.5 118s78 62.167 131 81.5s110.667 29 173 29s115.833 -14.667 160.5 -44s67 -67.333 67 -114z" />
    <glyph glyph-name="Aring" unicode="&#xc5;" horiz-adv-x="1880" 
d="M1183 -40c-222 0 -333 73.666 -333 220.999c0 84 53 251.833 159 503.5s159 426.167 159 523.5c0 54.667 -20.167 93.5 -60.5 116.5s-98.666 34.5 -174.999 34.5s-153.833 -6.66699 -232.5 -20s-129.167 -20 -151.5 -20s-33.5 10 -33.5 30c0 26 47 60.333 141 103
c180.667 82.667 379.667 124 597 124c172 0 300.833 -31 386.5 -93s128.5 -162.667 128.5 -302c0 -82.667 -14.667 -186.167 -44 -310.5s-58.5 -241.166 -87.5 -350.499s-43.5 -184.333 -43.5 -225s7.66699 -69 23 -85c19.333 -20 56.666 -30 111.999 -30
c34 0 53.167 -3.66699 57.5 -11s6.5 -15 6.5 -23c0 -30.667 -14 -55.667 -42 -75c-106 -74 -295 -111 -567 -111zM601 683.999l255.999 5.99902c46.667 0 70 -13.667 70 -41c0 -19.333 -11 -34.666 -33 -45.999c-77.333 -39.333 -210.666 -64.333 -399.999 -75
c-54 -106.667 -81 -200.334 -81 -281.001c0 -36 4.66699 -69.167 14 -99.5s14 -52.166 14 -65.499c0 -35.333 -22.333 -59.166 -67 -71.499s-110.167 -18.5 -196.5 -18.5s-143.166 7.83301 -170.499 23.5s-41 43.5 -41 83.5c0 74.667 21.833 157 65.5 247
s99.5 176.167 167.5 258.5s143.333 163.166 226 242.499s163 147.666 241 204.999c173.333 128.667 291.333 193 354 193c28.667 0 43 -8.66699 43 -26s-14 -36.666 -42 -57.999c-59.333 -43.333 -130.333 -109.333 -213 -198s-156.334 -181.667 -221.001 -279h14z
M1424 1899c-54.667 0 -98.832 -7.50098 -132.499 -22.501s-57.334 -31.5 -71.001 -49.5s-20.5 -41.667 -20.5 -71s14.667 -52.666 44 -69.999s69 -26 119 -26s95.333 11.167 136 33.5s61 53.5 61 93.5c0 74.667 -45.333 112 -136 112zM952.001 1742
c0 88.667 45.333 160.5 136 215.5s202.667 82.5 336 82.5c257.333 0 386 -71.333 386 -214c0 -84 -46 -153.5 -138 -208.5s-203.333 -82.5 -334 -82.5c-257.333 0 -386 69 -386 207z" />
    <glyph glyph-name="AE" unicode="&#xc6;" horiz-adv-x="2613" 
d="M2121 919c25.333 0 38.0049 -19.5039 38.0049 -58.5039s-12.667 -72.5 -38 -100.5s-51.833 -43 -79.5 -45s-56.5 -4.83301 -86.5 -8.5s-64.333 -9.5 -103 -17.5s-75.167 -17.333 -109.5 -28s-68.5 -24.667 -102.5 -42s-63.333 -36.333 -88 -57c-54 -46 -81 -103 -81 -171
c0 -137.333 144.667 -206 434 -206c78 0 167.5 8.83301 268.5 26.5s169.5 32.834 205.5 45.501s59.667 19 71 19c25.333 0 38 -12.667 38 -38c0 -48 -50.5 -93.5 -151.5 -136.5s-235.833 -77.333 -404.5 -103s-334.667 -38.5 -498 -38.5s-285.333 8.16699 -366 24.5
s-137.167 40.166 -169.5 71.499s-48.5 71.333 -48.5 120s18.167 121.834 54.5 219.501s76.166 193.834 119.499 288.501c116 254.667 174 429.334 174 524.001c0 53.333 -24.5 91.833 -73.5 115.5s-112.333 35.5 -190 35.5s-155.834 -6.66699 -234.501 -20
s-129.167 -20 -151.5 -20s-33.5 10 -33.5 30c0 26 47 60.333 141 103c180.667 82.667 379.667 124 597 124c143.333 0 245.666 -23 306.999 -69c126.667 46 272.667 69 438 69c312.667 0 527.334 -35 644 -105c25.333 -15.333 38 -37.833 38 -67.5
s-21.833 -78.5 -65.5 -146.5s-79 -115 -106 -141s-52 -39 -75 -39s-43.833 8.33301 -62.5 25s-33.334 37.334 -44.001 62.001c-72.667 163.333 -184.667 245 -336 245c-114.667 0 -203.334 -41.667 -266.001 -125c-32 -42 -48 -90.667 -48 -146c0 -150 120 -225 360 -225z
M601.005 683.996l255.999 5.99902c46.667 0 70 -13.667 70 -41c0 -19.333 -11 -34.666 -33 -45.999c-77.333 -39.333 -210.666 -64.333 -399.999 -75c-54 -106.667 -81 -200.334 -81 -281.001c0 -36 4.66699 -69.167 14 -99.5s14 -52.166 14 -65.499
c0 -35.333 -22.333 -59.166 -67 -71.499s-110.167 -18.5 -196.5 -18.5s-143.166 7.83301 -170.499 23.5s-41 43.5 -41 83.5c0 74.667 21.833 157 65.5 247s99.5 176.167 167.5 258.5s143.333 163.166 226 242.499s163 147.666 241 204.999
c173.333 128.667 291.333 193 354 193c28.667 0 43 -8.66699 43 -26s-14 -36.666 -42 -57.999c-59.333 -43.333 -130.333 -109.333 -213 -198s-156.334 -181.667 -221.001 -279h14z" />
    <glyph glyph-name="Ccedilla" unicode="&#xc7;" 
d="M861 322c63.333 -76 162.67 -113.999 298.003 -113.999c126.667 0 258 21.333 394 64c44.667 14 77.667 21 99 21c38.667 0 58 -11 58 -33c0 -32 -25.333 -66.167 -76 -102.5s-114.667 -68.833 -192 -97.5s-164.833 -52.5 -262.5 -71.5s-190.5 -28.5 -278.5 -28.5
c-156 0 -293.333 24.333 -412 73s-210.667 118.167 -276 208.5s-98 189 -98 296s18 206 54 297s84.833 173.167 146.5 246.5s133.667 141.333 216 204s169.166 115 260.499 157c195.333 89.333 382.666 134 561.999 134s318.666 -36.833 417.999 -110.5
s149 -163.834 149 -270.501c0 -116 -34.333 -217.667 -103 -305c-32.667 -42.667 -76.167 -76.667 -130.5 -102s-115.5 -38 -183.5 -38c-45.333 0 -84 6.33301 -116 19c-60.667 24 -91 58.333 -91 103c0 15.333 17.5 58.666 52.5 129.999l105.5 220.5
c35.333 75.667 53 127.667 53 156s-12 47.833 -36 58.5s-58.167 16 -102.5 16s-94.5 -16.833 -150.5 -50.5s-110 -79.667 -162 -138s-99.667 -123.166 -143 -194.499s-78 -148.5 -104 -231.5s-39 -157.5 -39 -223.5s7.5 -122.333 22.5 -169s37.5 -88 67.5 -124z
M1092 -111.999c74.667 0 134.169 -19.8301 178.502 -59.4971s66.5 -91.5 66.5 -155.5s-15 -116.333 -45 -157c-58 -77.333 -152.333 -116 -283 -116s-253 33.667 -367 101c-34.667 20.667 -60.5 40.167 -77.5 58.5s-25.5 37.166 -25.5 56.499c0 39.333 17.667 59 53 59
c14.667 0 36.167 -8.33301 64.5 -25s71.166 -34.167 128.499 -52.5s105.166 -27.5 143.499 -27.5s67.5 8.5 87.5 25.5s30 39.167 30 66.5s-9.66699 49.166 -29 65.499s-50.833 24.5 -94.5 24.5s-77.167 3.5 -100.5 10.5s-35 23 -35 48s15.833 70.167 47.5 135.5
s67.167 116.666 106.5 153.999l72 -35l-57 -193c50.667 10.667 96 16 136 16z" />
    <glyph glyph-name="Egrave" unicode="&#xc8;" 
d="M1386 919c25.333 0 37.999 -19.5039 37.999 -58.5039s-12.667 -72.5 -38 -100.5s-52.833 -43 -82.5 -45s-60.334 -5.33301 -92.001 -10s-67.667 -11.167 -108 -19.5s-77.166 -19.5 -110.499 -33.5s-64.333 -30.333 -93 -49c-62.667 -40 -94 -94.667 -94 -164
c0 -46 11.5 -86.167 34.5 -120.5s53.167 -60.833 90.5 -79.5c72 -36 151.667 -54 239 -54c134 0 305.333 28.667 514 86c12 3.33301 22.333 5 31 5c25.333 0 38 -12.667 38 -38c0 -46.667 -47.5 -92 -142.5 -136s-210.833 -78.667 -347.5 -104s-265.834 -38 -387.501 -38
s-230.5 7.66699 -326.5 23s-181 38.5 -255 69.5s-131.5 72.333 -172.5 124s-61.5 111.167 -61.5 178.5s20.167 127.833 60.5 181.5s93.5 98 159.5 133s142.667 64.5 230 88.5c164.667 44 346.334 66 545.001 66c-141.333 7.33301 -246.833 19.333 -316.5 36
s-124.667 32.834 -165 48.501s-74.166 33.5 -101.499 53.5c-62.667 45.333 -94 102 -94 170s25.5 130.833 76.5 188.5s118.5 104.834 202.5 141.501c174 76 376 114 606 114c312.667 0 527.334 -35 644.001 -105c25.333 -15.333 38 -37.833 38 -67.5
s-21.833 -78.5 -65.5 -146.5s-79 -115 -106 -141s-52 -39 -75 -39s-43.833 8.33301 -62.5 25s-33.334 37.334 -44.001 62.001c-72.667 163.333 -184.667 245 -336 245c-88 0 -162.167 -23.833 -222.5 -71.5s-90.5 -105.667 -90.5 -174s34.833 -127.166 104.5 -176.499
s154.5 -74 254.5 -74zM1620 1674c0 -25.333 -13.3311 -37.999 -39.998 -37.999s-76.667 11.333 -150 34c-131.333 39.333 -284.333 67.666 -459 84.999c-38 3.33301 -69.667 18 -95 44s-38 60.833 -38 104.5s18 79 54 106s83.167 40.5 141.5 40.5s124.166 -16 197.499 -48
s137.666 -69.333 192.999 -112s101.833 -84.5 139.5 -125.5s56.5 -71.167 56.5 -90.5z" />
    <glyph glyph-name="Eacute" unicode="&#xc9;" 
d="M1386 919c25.333 0 37.999 -19.5039 37.999 -58.5039s-12.667 -72.5 -38 -100.5s-52.833 -43 -82.5 -45s-60.334 -5.33301 -92.001 -10s-67.667 -11.167 -108 -19.5s-77.166 -19.5 -110.499 -33.5s-64.333 -30.333 -93 -49c-62.667 -40 -94 -94.667 -94 -164
c0 -46 11.5 -86.167 34.5 -120.5s53.167 -60.833 90.5 -79.5c72 -36 151.667 -54 239 -54c134 0 305.333 28.667 514 86c12 3.33301 22.333 5 31 5c25.333 0 38 -12.667 38 -38c0 -46.667 -47.5 -92 -142.5 -136s-210.833 -78.667 -347.5 -104s-265.834 -38 -387.501 -38
s-230.5 7.66699 -326.5 23s-181 38.5 -255 69.5s-131.5 72.333 -172.5 124s-61.5 111.167 -61.5 178.5s20.167 127.833 60.5 181.5s93.5 98 159.5 133s142.667 64.5 230 88.5c164.667 44 346.334 66 545.001 66c-141.333 7.33301 -246.833 19.333 -316.5 36
s-124.667 32.834 -165 48.501s-74.166 33.5 -101.499 53.5c-62.667 45.333 -94 102 -94 170s25.5 130.833 76.5 188.5s118.5 104.834 202.5 141.501c174 76 376 114 606 114c312.667 0 527.334 -35 644.001 -105c25.333 -15.333 38 -37.833 38 -67.5
s-21.833 -78.5 -65.5 -146.5s-79 -115 -106 -141s-52 -39 -75 -39s-43.833 8.33301 -62.5 25s-33.334 37.334 -44.001 62.001c-72.667 163.333 -184.667 245 -336 245c-88 0 -162.167 -23.833 -222.5 -71.5s-90.5 -105.667 -90.5 -174s34.833 -127.166 104.5 -176.499
s154.5 -74 254.5 -74zM1550 2013c65.333 24.667 124.832 36.998 178.499 36.998s102.334 -16.5 146.001 -49.5s65.5 -71.167 65.5 -114.5c0 -26 -9 -50.167 -27 -72.5s-46.667 -36.166 -86 -41.499c-6 -0.666992 -28.333 -3.66699 -67 -9l-88.5 -12
c-20.333 -2.66699 -51 -7 -92 -13s-76.333 -11.667 -106 -17s-63 -11.666 -100 -18.999s-72 -15 -105 -23s-63.5 -16.333 -91.5 -25s-53 -13 -75 -13s-33 13 -33 39c0 38 48.333 91 145 159s208.667 126 336 174z" />
    <glyph glyph-name="Ecircumflex" unicode="&#xca;" 
d="M1386 919c25.333 0 37.999 -19.5039 37.999 -58.5039s-12.667 -72.5 -38 -100.5s-52.833 -43 -82.5 -45s-60.334 -5.33301 -92.001 -10s-67.667 -11.167 -108 -19.5s-77.166 -19.5 -110.499 -33.5s-64.333 -30.333 -93 -49c-62.667 -40 -94 -94.667 -94 -164
c0 -46 11.5 -86.167 34.5 -120.5s53.167 -60.833 90.5 -79.5c72 -36 151.667 -54 239 -54c134 0 305.333 28.667 514 86c12 3.33301 22.333 5 31 5c25.333 0 38 -12.667 38 -38c0 -46.667 -47.5 -92 -142.5 -136s-210.833 -78.667 -347.5 -104s-265.834 -38 -387.501 -38
s-230.5 7.66699 -326.5 23s-181 38.5 -255 69.5s-131.5 72.333 -172.5 124s-61.5 111.167 -61.5 178.5s20.167 127.833 60.5 181.5s93.5 98 159.5 133s142.667 64.5 230 88.5c164.667 44 346.334 66 545.001 66c-141.333 7.33301 -246.833 19.333 -316.5 36
s-124.667 32.834 -165 48.501s-74.166 33.5 -101.499 53.5c-62.667 45.333 -94 102 -94 170s25.5 130.833 76.5 188.5s118.5 104.834 202.5 141.501c174 76 376 114 606 114c312.667 0 527.334 -35 644.001 -105c25.333 -15.333 38 -37.833 38 -67.5
s-21.833 -78.5 -65.5 -146.5s-79 -115 -106 -141s-52 -39 -75 -39s-43.833 8.33301 -62.5 25s-33.334 37.334 -44.001 62.001c-72.667 163.333 -184.667 245 -336 245c-88 0 -162.167 -23.833 -222.5 -71.5s-90.5 -105.667 -90.5 -174s34.833 -127.166 104.5 -176.499
s154.5 -74 254.5 -74zM1358 1782c-269.333 -103.333 -426.001 -154.999 -470.001 -154.999c-13.333 0 -24.666 4 -33.999 12s-14 19 -14 33c0 28 36 69.833 108 125.5s174.667 125.5 308 209.5c26.667 16.667 49.834 27.834 69.501 33.501s46.167 8.5 79.5 8.5s60 -5 80 -15
s39.333 -24.333 58 -43c87.333 -86.667 153.5 -156.834 198.5 -210.501s67.5 -93.834 67.5 -120.501s-15.833 -40 -47.5 -40s-74.834 11 -129.501 33c-94 38 -185.333 81 -274 129z" />
    <glyph glyph-name="Edieresis" unicode="&#xcb;" 
d="M1386 919c25.333 0 37.999 -19.5039 37.999 -58.5039s-12.667 -72.5 -38 -100.5s-52.833 -43 -82.5 -45s-60.334 -5.33301 -92.001 -10s-67.667 -11.167 -108 -19.5s-77.166 -19.5 -110.499 -33.5s-64.333 -30.333 -93 -49c-62.667 -40 -94 -94.667 -94 -164
c0 -46 11.5 -86.167 34.5 -120.5s53.167 -60.833 90.5 -79.5c72 -36 151.667 -54 239 -54c134 0 305.333 28.667 514 86c12 3.33301 22.333 5 31 5c25.333 0 38 -12.667 38 -38c0 -46.667 -47.5 -92 -142.5 -136s-210.833 -78.667 -347.5 -104s-265.834 -38 -387.501 -38
s-230.5 7.66699 -326.5 23s-181 38.5 -255 69.5s-131.5 72.333 -172.5 124s-61.5 111.167 -61.5 178.5s20.167 127.833 60.5 181.5s93.5 98 159.5 133s142.667 64.5 230 88.5c164.667 44 346.334 66 545.001 66c-141.333 7.33301 -246.833 19.333 -316.5 36
s-124.667 32.834 -165 48.501s-74.166 33.5 -101.499 53.5c-62.667 45.333 -94 102 -94 170s25.5 130.833 76.5 188.5s118.5 104.834 202.5 141.501c174 76 376 114 606 114c312.667 0 527.334 -35 644.001 -105c25.333 -15.333 38 -37.833 38 -67.5
s-21.833 -78.5 -65.5 -146.5s-79 -115 -106 -141s-52 -39 -75 -39s-43.833 8.33301 -62.5 25s-33.334 37.334 -44.001 62.001c-72.667 163.333 -184.667 245 -336 245c-88 0 -162.167 -23.833 -222.5 -71.5s-90.5 -105.667 -90.5 -174s34.833 -127.166 104.5 -176.499
s154.5 -74 254.5 -74zM1218 1749c-34 -34.667 -77.5 -61.332 -130.5 -79.999s-110.5 -28 -172.5 -28s-115.5 14.167 -160.5 42.5s-67.5 64.333 -67.5 108s17.167 83 51.5 118s78 62.167 131 81.5s110.667 29 173 29s115.833 -14.667 160.5 -44s67 -65.833 67 -109.5
s-17.333 -82.834 -52 -117.501zM2010 1862c0 -61.333 -35.667 -113.5 -107 -156.5s-146 -64.5 -224 -64.5s-139.5 14.167 -184.5 42.5s-67.5 64.333 -67.5 108s17.167 83 51.5 118s78 62.167 131 81.5s110.667 29 173 29s115.833 -14.667 160.5 -44s67 -67.333 67 -114z" />
    <glyph glyph-name="Igrave" unicode="&#xcc;" horiz-adv-x="1366" 
d="M466 594c-162 100 -243.001 229.333 -243.001 388c0 70.667 17.667 136.667 53 198s82 113.333 140 156s124 79.334 198 110.001c146 60 300 90 462 90c100.667 0 169.334 -21.333 206.001 -64c32 -38 48 -87.5 48 -148.5s-14.5 -140.333 -43.5 -238
s-74.667 -233.667 -137 -408s-109.5 -311.333 -141.5 -411s-82 -172.334 -150 -218.001s-162.833 -68.5 -284.5 -68.5s-235.667 15.167 -342 45.5s-159.5 65.166 -159.5 104.499c0 30 22.333 47.333 67 52c66 8 113.833 22.667 143.5 44s57.5 59.333 83.5 114
s59.333 139.334 100 254.001zM647.999 1221c0 16 -4.83105 29 -14.498 39s-21.834 15 -36.501 15s-30.334 -5.5 -47.001 -16.5s-34 -27.833 -52 -50.5c-44.667 -54 -67 -128.667 -67 -224s25.667 -184.333 77 -267c93.333 277.333 140 445.333 140 504zM1377 1674
c0 -25.333 -13.3301 -37.999 -39.9971 -37.999s-77 11.333 -151 34c-130.667 39.333 -283.334 67.666 -458.001 84.999c-38 3.33301 -69.667 18 -95 44s-38 60.833 -38 104.5s18 79 54 106s83.167 40.5 141.5 40.5s124.166 -16 197.499 -48s137.666 -69.333 192.999 -112
s101.833 -84.5 139.5 -125.5s56.5 -71.167 56.5 -90.5z" />
    <glyph glyph-name="Iacute" unicode="&#xcd;" horiz-adv-x="1366" 
d="M466 594c-162 100 -243.001 229.333 -243.001 388c0 70.667 17.667 136.667 53 198s82 113.333 140 156s124 79.334 198 110.001c146 60 300 90 462 90c100.667 0 169.334 -21.333 206.001 -64c32 -38 48 -87.5 48 -148.5s-14.5 -140.333 -43.5 -238
s-74.667 -233.667 -137 -408s-109.5 -311.333 -141.5 -411s-82 -172.334 -150 -218.001s-162.833 -68.5 -284.5 -68.5s-235.667 15.167 -342 45.5s-159.5 65.166 -159.5 104.499c0 30 22.333 47.333 67 52c66 8 113.833 22.667 143.5 44s57.5 59.333 83.5 114
s59.333 139.334 100 254.001zM647.999 1221c0 16 -4.83105 29 -14.498 39s-21.834 15 -36.501 15s-30.334 -5.5 -47.001 -16.5s-34 -27.833 -52 -50.5c-44.667 -54 -67 -128.667 -67 -224s25.667 -184.333 77 -267c93.333 277.333 140 445.333 140 504zM1307 2013
c65.333 24.667 124.832 36.998 178.499 36.998s102.334 -16.5 146.001 -49.5s65.5 -71.167 65.5 -114.5c0 -26 -9 -50.167 -27 -72.5s-46.667 -36.166 -86 -41.499c-6 -0.666992 -28.333 -3.66699 -67 -9l-88.5 -12c-20.333 -2.66699 -51 -7 -92 -13
s-76.333 -11.667 -106 -17s-63 -11.666 -100 -18.999s-72 -15 -105 -23s-63.5 -16.333 -91.5 -25s-53 -13 -75 -13s-33 13 -33 39c0 38 48.333 91 145 159s208.667 126 336 174z" />
    <glyph glyph-name="Icircumflex" unicode="&#xce;" horiz-adv-x="1366" 
d="M466 594c-162 100 -243.001 229.333 -243.001 388c0 70.667 17.667 136.667 53 198s82 113.333 140 156s124 79.334 198 110.001c146 60 300 90 462 90c100.667 0 169.334 -21.333 206.001 -64c32 -38 48 -87.5 48 -148.5s-14.5 -140.333 -43.5 -238
s-74.667 -233.667 -137 -408s-109.5 -311.333 -141.5 -411s-82 -172.334 -150 -218.001s-162.833 -68.5 -284.5 -68.5s-235.667 15.167 -342 45.5s-159.5 65.166 -159.5 104.499c0 30 22.333 47.333 67 52c66 8 113.833 22.667 143.5 44s57.5 59.333 83.5 114
s59.333 139.334 100 254.001zM647.999 1221c0 16 -4.83105 29 -14.498 39s-21.834 15 -36.501 15s-30.334 -5.5 -47.001 -16.5s-34 -27.833 -52 -50.5c-44.667 -54 -67 -128.667 -67 -224s25.667 -184.333 77 -267c93.333 277.333 140 445.333 140 504zM1115 1782
c-269.333 -103.333 -426.001 -154.999 -470.001 -154.999c-13.333 0 -24.666 4 -33.999 12s-14 19 -14 33c0 28 36 69.833 108 125.5s174.667 125.5 308 209.5c26.667 16.667 49.834 27.834 69.501 33.501s46.167 8.5 79.5 8.5s60 -5 80 -15s39.333 -24.333 58 -43
c87.333 -86.667 153.5 -156.834 198.5 -210.501s67.5 -93.834 67.5 -120.501s-15.833 -40 -47.5 -40s-74.834 11 -129.501 33c-94 38 -185.333 81 -274 129z" />
    <glyph glyph-name="Idieresis" unicode="&#xcf;" horiz-adv-x="1366" 
d="M466 594c-162 100 -243.001 229.333 -243.001 388c0 70.667 17.667 136.667 53 198s82 113.333 140 156s124 79.334 198 110.001c146 60 300 90 462 90c100.667 0 169.334 -21.333 206.001 -64c32 -38 48 -87.5 48 -148.5s-14.5 -140.333 -43.5 -238
s-74.667 -233.667 -137 -408s-109.5 -311.333 -141.5 -411s-82 -172.334 -150 -218.001s-162.833 -68.5 -284.5 -68.5s-235.667 15.167 -342 45.5s-159.5 65.166 -159.5 104.499c0 30 22.333 47.333 67 52c66 8 113.833 22.667 143.5 44s57.5 59.333 83.5 114
s59.333 139.334 100 254.001zM647.999 1221c0 16 -4.83105 29 -14.498 39s-21.834 15 -36.501 15s-30.334 -5.5 -47.001 -16.5s-34 -27.833 -52 -50.5c-44.667 -54 -67 -128.667 -67 -224s25.667 -184.333 77 -267c93.333 277.333 140 445.333 140 504zM975.001 1749
c-34 -34.667 -77.5 -61.332 -130.5 -79.999s-110.5 -28 -172.5 -28s-115.5 14.167 -160.5 42.5s-67.5 64.333 -67.5 108s17.167 83 51.5 118s78 62.167 131 81.5s110.667 29 173 29s115.833 -14.667 160.5 -44s67 -65.833 67 -109.5s-17.333 -82.834 -52 -117.501z
M1767 1862c0 -61.333 -35.667 -113.5 -107 -156.5s-146 -64.5 -224 -64.5s-139.5 14.167 -184.5 42.5s-67.5 64.333 -67.5 108s17.167 83 51.5 118s78 62.167 131 81.5s110.667 29 173 29s115.833 -14.667 160.5 -44s67 -67.333 67 -114z" />
    <glyph glyph-name="Eth" unicode="&#xd0;" horiz-adv-x="2046" 
d="M1063 598l-260.999 2c-65.333 0 -176 -8 -332 -24s-262 -24 -318 -24c-32.667 0 -49 21.833 -49 65.5s9 77.167 27 100.5s42.667 35.833 74 37.5s67.333 2.5 108 2.5l214 -1c83.333 0 203 7.66699 359 23s250.667 24 284 26c26 0 39 -25.333 39 -76
c0 -56.667 -14.667 -93.667 -44 -111c-24.667 -14 -58.334 -21 -101.001 -21zM1041 1360c-84.667 0 -174.834 -8.16797 -270.501 -24.501s-176.167 -34.5 -241.5 -54.5l-178 -54.5c-53.333 -16.333 -85.333 -24.5 -96 -24.5c-36.667 0 -55 12.833 -55 38.5
s20 51.834 60 78.501c128.667 86 274.5 150.333 437.5 193s319 64 468 64s271 -12.333 366 -37s173.5 -58.334 235.5 -101.001s113 -94.667 153 -156c74.667 -114 112 -256.333 112 -427c0 -180 -49.333 -345.667 -148 -497c-108.667 -166 -252.334 -281.333 -431.001 -346
c-97.333 -34.667 -201.666 -52 -312.999 -52c-177.333 0 -316 28 -416 84c-28 -27.333 -62 -44.833 -102 -52.5s-95.333 -11.5 -166 -11.5s-138.167 5.66699 -202.5 17s-120.5 25.833 -168.5 43.5s-87.333 37.334 -118 59.001s-46 41.167 -46 58.5s6.83301 30.833 20.5 40.5
s29.167 14.5 46.5 14.5c60 0 104.167 9.5 132.5 28.5s57.333 54.833 87 107.5s57.167 112.667 82.5 180l71.5 194c22.333 62 47.833 124.667 76.5 188c62 139.333 139.667 231 233 275c46 21.333 104.667 37.833 176 49.5s143 17.5 215 17.5s108 -16.667 108 -50
c0 -25.333 -15.167 -62 -45.5 -110s-62.833 -122.333 -97.5 -223s-73.167 -220.667 -115.5 -360s-75.166 -241.333 -98.499 -306l-17 -44c20.667 -2 53 -3 97 -3s93.167 9.33301 147.5 28s101.5 44.167 141.5 76.5s76.167 70.5 108.5 114.5s59 90.833 80 140.5
s38.5 102.167 52.5 157.5c26 102 39 211.333 39 328c0 238.667 -140.333 358 -421 358z" />
    <glyph glyph-name="Ntilde" unicode="&#xd1;" horiz-adv-x="2218" 
d="M444 1227l-117.999 -24.001c-14.667 0 -25.667 2 -33 6s-11 12.333 -11 25c0 30.667 31 71 93 121s146.833 96 254.5 138s204.667 63 291 63s148 -15 185 -45s55.5 -88.333 55.5 -175l-3 -45c132.667 102.667 251.667 176 357 220s208.5 66 309.5 66
s178.833 -21.167 233.5 -63.5s82 -103.5 82 -183.5c0 -82 -38.667 -213.333 -116 -394l-96 -222c-77.333 -178.667 -116 -295 -116 -349c0 -96 47.667 -152.333 143 -169c51.333 -8.66699 81 -18.167 89 -28.5s12 -20.5 12 -30.5c0 -47.333 -51.5 -88.666 -154.5 -123.999
s-218.167 -53 -345.5 -53c-250.667 0 -376 74.333 -376 223c0 104 36 241 108 411l90 209c72 163.333 108 277.5 108 342.5s-50.333 97.5 -151 97.5c-58.667 0 -124.667 -20.667 -198 -62c-32.667 -128.667 -103 -320 -211 -574c-98.667 -230.667 -148 -392.667 -148 -486
l3 -66c0 -20.667 -11.333 -37 -34 -49s-46.334 -18 -71.001 -18l-401 -6c-74 0 -119 12.667 -135 38c-7.33301 12.667 -11 32.167 -11 58.5s5.66699 64 17 113s47.5 145.333 108.5 289l167 401.5c50.333 124 75.5 205.833 75.5 245.5s-4.33301 66.167 -13 79.5
s-22 20 -40 20zM999.001 1705c-46 0 -69.001 16.332 -69.001 48.999c0 21.333 8.5 42 25.5 62l49.5 56c92.667 101.333 197.334 152 314.001 152c68.667 0 142 -16.833 220 -50.5s133.333 -50.5 166 -50.5s79.334 10.333 140.001 31s101.167 31 121.5 31s37 -4.33301 50 -13
s19.5 -23.167 19.5 -43.5s-25 -57.166 -75 -110.499c-92.667 -102 -197.667 -153 -315 -153c-46.667 0 -95.167 8.5 -145.5 25.5s-97.833 34 -142.5 51s-80.167 25.5 -106.5 25.5s-69.833 -10.333 -130.5 -31s-101.334 -31 -122.001 -31z" />
    <glyph glyph-name="Ograve" unicode="&#xd2;" horiz-adv-x="2048" 
d="M1041 1087c-110.667 -90 -194.999 -223.666 -252.999 -400.999c-30.667 -96 -46 -193.333 -46 -292c0 -172.667 56.333 -259 169 -259c57.333 0 116.666 23.667 177.999 71s116.5 108.833 165.5 184.5s89.333 165.5 121 269.5s47.5 208 47.5 312
c0 146.667 -26 251 -78 313s-139.333 93 -262 93c-68 0 -141.333 -7.33301 -220 -22s-145.167 -30.834 -199.5 -48.501l-146.5 -48.5c-43.333 -14.667 -68.333 -22 -75 -22c-24.667 0 -37 10 -37 30c0 16 16.5 36.833 49.5 62.5s78.833 52.667 137.5 81
s123.667 54.833 195 79.5c166 57.333 328.333 86 487 86c304.667 0 520 -88.667 646 -266c74 -104.667 111 -234 111 -388c0 -116.667 -20.333 -226.167 -61 -328.5s-97.334 -191.833 -170.001 -268.5s-158 -142.667 -256 -198c-198 -111.333 -422.333 -167 -673 -167
c-490.667 0 -736 167.667 -736 503c0 94 20.333 184.167 61 270.5s94.167 161.333 160.5 225s140.833 119.5 223.5 167.5c168 96 336.667 144 506 144c26.667 0 45.834 -4.83301 57.501 -14.5s17.5 -19.5 17.5 -29.5s-1.5 -18.5 -4.5 -25.5s-8.83301 -15.167 -17.5 -24.5
l-23 -24zM1714 1674c0 -25.333 -13.3311 -37.999 -39.998 -37.999s-76.667 11.333 -150 34c-131.333 39.333 -284.333 67.666 -459 84.999c-38 3.33301 -69.667 18 -95 44s-38 60.833 -38 104.5s18 79 54 106s83.167 40.5 141.5 40.5s124.166 -16 197.499 -48
s137.666 -69.333 192.999 -112s101.833 -84.5 139.5 -125.5s56.5 -71.167 56.5 -90.5z" />
    <glyph glyph-name="Oacute" unicode="&#xd3;" horiz-adv-x="2048" 
d="M1041 1087c-110.667 -90 -194.999 -223.666 -252.999 -400.999c-30.667 -96 -46 -193.333 -46 -292c0 -172.667 56.333 -259 169 -259c57.333 0 116.666 23.667 177.999 71s116.5 108.833 165.5 184.5s89.333 165.5 121 269.5s47.5 208 47.5 312
c0 146.667 -26 251 -78 313s-139.333 93 -262 93c-68 0 -141.333 -7.33301 -220 -22s-145.167 -30.834 -199.5 -48.501l-146.5 -48.5c-43.333 -14.667 -68.333 -22 -75 -22c-24.667 0 -37 10 -37 30c0 16 16.5 36.833 49.5 62.5s78.833 52.667 137.5 81
s123.667 54.833 195 79.5c166 57.333 328.333 86 487 86c304.667 0 520 -88.667 646 -266c74 -104.667 111 -234 111 -388c0 -116.667 -20.333 -226.167 -61 -328.5s-97.334 -191.833 -170.001 -268.5s-158 -142.667 -256 -198c-198 -111.333 -422.333 -167 -673 -167
c-490.667 0 -736 167.667 -736 503c0 94 20.333 184.167 61 270.5s94.167 161.333 160.5 225s140.833 119.5 223.5 167.5c168 96 336.667 144 506 144c26.667 0 45.834 -4.83301 57.501 -14.5s17.5 -19.5 17.5 -29.5s-1.5 -18.5 -4.5 -25.5s-8.83301 -15.167 -17.5 -24.5
l-23 -24zM1644 2013c65.333 24.667 124.832 36.998 178.499 36.998s102.334 -16.5 146.001 -49.5s65.5 -71.167 65.5 -114.5c0 -26 -9 -50.167 -27 -72.5s-46.667 -36.166 -86 -41.499c-6 -0.666992 -28.333 -3.66699 -67 -9l-88.5 -12c-20.333 -2.66699 -51 -7 -92 -13
s-76.333 -11.667 -106 -17s-63 -11.666 -100 -18.999s-72 -15 -105 -23s-63.5 -16.333 -91.5 -25s-53 -13 -75 -13s-33 13 -33 39c0 38 48.333 91 145 159s208.667 126 336 174z" />
    <glyph glyph-name="Ocircumflex" unicode="&#xd4;" horiz-adv-x="2048" 
d="M1041 1087c-110.667 -90 -194.999 -223.666 -252.999 -400.999c-30.667 -96 -46 -193.333 -46 -292c0 -172.667 56.333 -259 169 -259c57.333 0 116.666 23.667 177.999 71s116.5 108.833 165.5 184.5s89.333 165.5 121 269.5s47.5 208 47.5 312
c0 146.667 -26 251 -78 313s-139.333 93 -262 93c-68 0 -141.333 -7.33301 -220 -22s-145.167 -30.834 -199.5 -48.501l-146.5 -48.5c-43.333 -14.667 -68.333 -22 -75 -22c-24.667 0 -37 10 -37 30c0 16 16.5 36.833 49.5 62.5s78.833 52.667 137.5 81
s123.667 54.833 195 79.5c166 57.333 328.333 86 487 86c304.667 0 520 -88.667 646 -266c74 -104.667 111 -234 111 -388c0 -116.667 -20.333 -226.167 -61 -328.5s-97.334 -191.833 -170.001 -268.5s-158 -142.667 -256 -198c-198 -111.333 -422.333 -167 -673 -167
c-490.667 0 -736 167.667 -736 503c0 94 20.333 184.167 61 270.5s94.167 161.333 160.5 225s140.833 119.5 223.5 167.5c168 96 336.667 144 506 144c26.667 0 45.834 -4.83301 57.501 -14.5s17.5 -19.5 17.5 -29.5s-1.5 -18.5 -4.5 -25.5s-8.83301 -15.167 -17.5 -24.5
l-23 -24zM1452 1782c-269.333 -103.333 -426.001 -154.999 -470.001 -154.999c-13.333 0 -24.666 4 -33.999 12s-14 19 -14 33c0 28 36 69.833 108 125.5s174.667 125.5 308 209.5c26.667 16.667 49.834 27.834 69.501 33.501s46.167 8.5 79.5 8.5s60 -5 80 -15
s39.333 -24.333 58 -43c87.333 -86.667 153.5 -156.834 198.5 -210.501s67.5 -93.834 67.5 -120.501s-15.833 -40 -47.5 -40s-74.834 11 -129.501 33c-94 38 -185.333 81 -274 129z" />
    <glyph glyph-name="Otilde" unicode="&#xd5;" horiz-adv-x="2048" 
d="M1041 1087c-110.667 -90 -194.999 -223.666 -252.999 -400.999c-30.667 -96 -46 -193.333 -46 -292c0 -172.667 56.333 -259 169 -259c57.333 0 116.666 23.667 177.999 71s116.5 108.833 165.5 184.5s89.333 165.5 121 269.5s47.5 208 47.5 312
c0 146.667 -26 251 -78 313s-139.333 93 -262 93c-68 0 -141.333 -7.33301 -220 -22s-145.167 -30.834 -199.5 -48.501l-146.5 -48.5c-43.333 -14.667 -68.333 -22 -75 -22c-24.667 0 -37 10 -37 30c0 16 16.5 36.833 49.5 62.5s78.833 52.667 137.5 81
s123.667 54.833 195 79.5c166 57.333 328.333 86 487 86c304.667 0 520 -88.667 646 -266c74 -104.667 111 -234 111 -388c0 -116.667 -20.333 -226.167 -61 -328.5s-97.334 -191.833 -170.001 -268.5s-158 -142.667 -256 -198c-198 -111.333 -422.333 -167 -673 -167
c-490.667 0 -736 167.667 -736 503c0 94 20.333 184.167 61 270.5s94.167 161.333 160.5 225s140.833 119.5 223.5 167.5c168 96 336.667 144 506 144c26.667 0 45.834 -4.83301 57.501 -14.5s17.5 -19.5 17.5 -29.5s-1.5 -18.5 -4.5 -25.5s-8.83301 -15.167 -17.5 -24.5
l-23 -24zM976.001 1705c-46 0 -69.001 16.332 -69.001 48.999c0 21.333 8.5 42 25.5 62l49.5 56c92.667 101.333 197.334 152 314.001 152c68.667 0 142 -16.833 220 -50.5s133.333 -50.5 166 -50.5s79.334 10.333 140.001 31s101.167 31 121.5 31s37 -4.33301 50 -13
s19.5 -23.167 19.5 -43.5s-25 -57.166 -75 -110.499c-92.667 -102 -197.667 -153 -315 -153c-46.667 0 -95.167 8.5 -145.5 25.5s-97.833 34 -142.5 51s-80.167 25.5 -106.5 25.5s-69.833 -10.333 -130.5 -31s-101.334 -31 -122.001 -31z" />
    <glyph glyph-name="Odieresis" unicode="&#xd6;" horiz-adv-x="2048" 
d="M1041 1087c-110.667 -90 -194.999 -223.666 -252.999 -400.999c-30.667 -96 -46 -193.333 -46 -292c0 -172.667 56.333 -259 169 -259c57.333 0 116.666 23.667 177.999 71s116.5 108.833 165.5 184.5s89.333 165.5 121 269.5s47.5 208 47.5 312
c0 146.667 -26 251 -78 313s-139.333 93 -262 93c-68 0 -141.333 -7.33301 -220 -22s-145.167 -30.834 -199.5 -48.501l-146.5 -48.5c-43.333 -14.667 -68.333 -22 -75 -22c-24.667 0 -37 10 -37 30c0 16 16.5 36.833 49.5 62.5s78.833 52.667 137.5 81
s123.667 54.833 195 79.5c166 57.333 328.333 86 487 86c304.667 0 520 -88.667 646 -266c74 -104.667 111 -234 111 -388c0 -116.667 -20.333 -226.167 -61 -328.5s-97.334 -191.833 -170.001 -268.5s-158 -142.667 -256 -198c-198 -111.333 -422.333 -167 -673 -167
c-490.667 0 -736 167.667 -736 503c0 94 20.333 184.167 61 270.5s94.167 161.333 160.5 225s140.833 119.5 223.5 167.5c168 96 336.667 144 506 144c26.667 0 45.834 -4.83301 57.501 -14.5s17.5 -19.5 17.5 -29.5s-1.5 -18.5 -4.5 -25.5s-8.83301 -15.167 -17.5 -24.5
l-23 -24zM1312 1749c-34 -34.667 -77.5 -61.332 -130.5 -79.999s-110.5 -28 -172.5 -28s-115.5 14.167 -160.5 42.5s-67.5 64.333 -67.5 108s17.167 83 51.5 118s78 62.167 131 81.5s110.667 29 173 29s115.833 -14.667 160.5 -44s67 -65.833 67 -109.5
s-17.333 -82.834 -52 -117.501zM2104 1862c0 -61.333 -35.667 -113.5 -107 -156.5s-146 -64.5 -224 -64.5s-139.5 14.167 -184.5 42.5s-67.5 64.333 -67.5 108s17.167 83 51.5 118s78 62.167 131 81.5s110.667 29 173 29s115.833 -14.667 160.5 -44s67 -67.333 67 -114z" />
    <glyph glyph-name="multiply" unicode="&#xd7;" horiz-adv-x="1479" 
d="M369 994c66 64 105.331 96.0049 117.998 96.0049s24.334 -6 35.001 -18s29.334 -34.667 56.001 -68l106 -134l113 -143l375 326c9.33301 9.33301 21 14 35 14s39.667 -19.833 77 -59.5s56 -65.667 56 -78s-3.16699 -23.833 -9.5 -34.5s-15.5 -22 -27.5 -34
s-23.667 -22.833 -35 -32.5l-42.5 -36l-66.5 -58c-27.333 -24.333 -100 -85.833 -218 -184.5l44 -50c28 -32 64.333 -70.833 109 -116.5s78.334 -81.334 101.001 -107.001s34 -45 34 -58s-25 -40.667 -75 -83s-81.333 -63.5 -94 -63.5s-25.5 4.83301 -38.5 14.5
s-27.5 24.167 -43.5 43.5c-23.333 29.333 -52.833 68.833 -88.5 118.5l-118.5 159.5c-190 -159.333 -315.333 -267 -376 -323c-10.667 -9.33301 -23.167 -14 -37.5 -14s-38 18.167 -71 54.5s-49.5 62.333 -49.5 78s5.66699 31.667 17 48s22.666 29.666 33.999 39.999
s28.833 25.166 52.5 44.499s38.5 31.666 44.5 36.999l243 208l-66 71c-51.333 52 -102 108.667 -152 170s-75 99.666 -75 114.999s11.333 34.333 34 57z" />
    <glyph glyph-name="Oslash" unicode="&#xd8;" horiz-adv-x="2048" 
d="M429 196l48 -161c-41.333 -27.333 -94 -66.333 -158 -117c-94.667 -74 -150.334 -111 -167.001 -111s-34.167 14.167 -52.5 42.5s-27.5 58 -27.5 89s12.833 54.833 38.5 71.5s76.334 46.167 152.001 88.5s131.167 74.833 166.5 97.5zM1808 1352
c40.667 27.333 95.333 67.3311 164 119.998c98.667 76.667 155 115 169 115s30.167 -15.833 48.5 -47.5s27.5 -62.167 27.5 -91.5s-14.167 -53.166 -42.5 -71.499s-77.5 -46.666 -147.5 -84.999s-127 -71.833 -171 -100.5zM1041 1087
c-110.667 -90 -194.999 -223.666 -252.999 -400.999c-30.667 -96 -46 -193.333 -46 -292c0 -172.667 56.333 -259 169 -259c57.333 0 116.666 23.667 177.999 71s116.5 108.833 165.5 184.5s89.333 165.5 121 269.5s47.5 208 47.5 312c0 146.667 -26 251 -78 313
s-139.333 93 -262 93c-68 0 -141.333 -7.33301 -220 -22s-145.167 -30.834 -199.5 -48.501l-146.5 -48.5c-43.333 -14.667 -68.333 -22 -75 -22c-24.667 0 -37 10 -37 30c0 16 16.5 36.833 49.5 62.5s78.833 52.667 137.5 81s123.667 54.833 195 79.5
c166 57.333 328.333 86 487 86c304.667 0 520 -88.667 646 -266c74 -104.667 111 -234 111 -388c0 -116.667 -20.333 -226.167 -61 -328.5s-97.334 -191.833 -170.001 -268.5s-158 -142.667 -256 -198c-198 -111.333 -422.333 -167 -673 -167
c-490.667 0 -736 167.667 -736 503c0 94 20.333 184.167 61 270.5s94.167 161.333 160.5 225s140.833 119.5 223.5 167.5c168 96 336.667 144 506 144c26.667 0 45.834 -4.83301 57.501 -14.5s17.5 -19.5 17.5 -29.5s-1.5 -18.5 -4.5 -25.5s-8.83301 -15.167 -17.5 -24.5
l-23 -24z" />
    <glyph glyph-name="Ugrave" unicode="&#xd9;" horiz-adv-x="2223" 
d="M1702 1527l313.999 -4.00098c37.333 0 71 -10.833 101 -32.5s45 -49.167 45 -82.5s-8.33301 -69.333 -25 -108c-84 -190 -156.667 -377 -218 -561s-92 -315.333 -92 -394c0 -32.667 7.66699 -59.167 23 -79.5s34.166 -34.333 56.499 -42s44.5 -14.167 66.5 -19.5
c52.667 -11.333 79 -28.333 79 -51c0 -35.333 -37.667 -68.666 -113 -99.999s-158.666 -54.666 -249.999 -69.999s-171 -23 -239 -23c-189.333 0 -284 77 -284 231c0 13.333 0.333008 23.666 1 30.999c-64.667 -72 -149 -133.667 -253 -185s-204.333 -77 -301 -77
c-200.667 0 -325.667 73 -375 219c-14.667 43.333 -22 96.5 -22 159.5s12.833 137.5 38.5 223.5s54 161.333 85 226l102.5 210c54 108 81 173 81 195c0 44 -40.667 72.667 -122 86c-21.333 3.33301 -38 10.166 -50 20.499s-18 23.5 -18 39.5s10.167 33.333 30.5 52
s50.833 36.5 91.5 53.5s88.334 32.167 143.001 45.5c121.333 30.667 264 46 428 46c122 0 183 -37.333 183 -112c0 -13.333 -20 -62.166 -60 -146.499l-131.5 -276.5c-47.667 -100 -91.5 -209 -131.5 -327s-60 -206.5 -60 -265.5s11.5 -97.167 34.5 -114.5
s49.833 -26 80.5 -26s55 1.16699 73 3.5s35.833 5.83301 53.5 10.5s32 8.66699 43 12s25 8 42 14l28.5 10c30 145.333 101.333 352 214 620c106 253.333 159 412.333 159 477c0 74.667 49.333 112 148 112zM1776 1674c0 -25.333 -13.3311 -37.999 -39.998 -37.999
s-76.667 11.333 -150 34c-131.333 39.333 -284.333 67.666 -459 84.999c-38 3.33301 -69.667 18 -95 44s-38 60.833 -38 104.5s18 79 54 106s83.167 40.5 141.5 40.5s124.166 -16 197.499 -48s137.666 -69.333 192.999 -112s101.833 -84.5 139.5 -125.5
s56.5 -71.167 56.5 -90.5z" />
    <glyph glyph-name="Uacute" unicode="&#xda;" horiz-adv-x="2223" 
d="M1702 1527l313.999 -4.00098c37.333 0 71 -10.833 101 -32.5s45 -49.167 45 -82.5s-8.33301 -69.333 -25 -108c-84 -190 -156.667 -377 -218 -561s-92 -315.333 -92 -394c0 -32.667 7.66699 -59.167 23 -79.5s34.166 -34.333 56.499 -42s44.5 -14.167 66.5 -19.5
c52.667 -11.333 79 -28.333 79 -51c0 -35.333 -37.667 -68.666 -113 -99.999s-158.666 -54.666 -249.999 -69.999s-171 -23 -239 -23c-189.333 0 -284 77 -284 231c0 13.333 0.333008 23.666 1 30.999c-64.667 -72 -149 -133.667 -253 -185s-204.333 -77 -301 -77
c-200.667 0 -325.667 73 -375 219c-14.667 43.333 -22 96.5 -22 159.5s12.833 137.5 38.5 223.5s54 161.333 85 226l102.5 210c54 108 81 173 81 195c0 44 -40.667 72.667 -122 86c-21.333 3.33301 -38 10.166 -50 20.499s-18 23.5 -18 39.5s10.167 33.333 30.5 52
s50.833 36.5 91.5 53.5s88.334 32.167 143.001 45.5c121.333 30.667 264 46 428 46c122 0 183 -37.333 183 -112c0 -13.333 -20 -62.166 -60 -146.499l-131.5 -276.5c-47.667 -100 -91.5 -209 -131.5 -327s-60 -206.5 -60 -265.5s11.5 -97.167 34.5 -114.5
s49.833 -26 80.5 -26s55 1.16699 73 3.5s35.833 5.83301 53.5 10.5s32 8.66699 43 12s25 8 42 14l28.5 10c30 145.333 101.333 352 214 620c106 253.333 159 412.333 159 477c0 74.667 49.333 112 148 112zM1706 2013c65.333 24.667 124.832 36.998 178.499 36.998
s102.334 -16.5 146.001 -49.5s65.5 -71.167 65.5 -114.5c0 -26 -9 -50.167 -27 -72.5s-46.667 -36.166 -86 -41.499c-6 -0.666992 -28.333 -3.66699 -67 -9l-88.5 -12c-20.333 -2.66699 -51 -7 -92 -13s-76.333 -11.667 -106 -17s-63 -11.666 -100 -18.999s-72 -15 -105 -23
s-63.5 -16.333 -91.5 -25s-53 -13 -75 -13s-33 13 -33 39c0 38 48.333 91 145 159s208.667 126 336 174z" />
    <glyph glyph-name="Ucircumflex" unicode="&#xdb;" horiz-adv-x="2223" 
d="M1702 1527l313.999 -4.00098c37.333 0 71 -10.833 101 -32.5s45 -49.167 45 -82.5s-8.33301 -69.333 -25 -108c-84 -190 -156.667 -377 -218 -561s-92 -315.333 -92 -394c0 -32.667 7.66699 -59.167 23 -79.5s34.166 -34.333 56.499 -42s44.5 -14.167 66.5 -19.5
c52.667 -11.333 79 -28.333 79 -51c0 -35.333 -37.667 -68.666 -113 -99.999s-158.666 -54.666 -249.999 -69.999s-171 -23 -239 -23c-189.333 0 -284 77 -284 231c0 13.333 0.333008 23.666 1 30.999c-64.667 -72 -149 -133.667 -253 -185s-204.333 -77 -301 -77
c-200.667 0 -325.667 73 -375 219c-14.667 43.333 -22 96.5 -22 159.5s12.833 137.5 38.5 223.5s54 161.333 85 226l102.5 210c54 108 81 173 81 195c0 44 -40.667 72.667 -122 86c-21.333 3.33301 -38 10.166 -50 20.499s-18 23.5 -18 39.5s10.167 33.333 30.5 52
s50.833 36.5 91.5 53.5s88.334 32.167 143.001 45.5c121.333 30.667 264 46 428 46c122 0 183 -37.333 183 -112c0 -13.333 -20 -62.166 -60 -146.499l-131.5 -276.5c-47.667 -100 -91.5 -209 -131.5 -327s-60 -206.5 -60 -265.5s11.5 -97.167 34.5 -114.5
s49.833 -26 80.5 -26s55 1.16699 73 3.5s35.833 5.83301 53.5 10.5s32 8.66699 43 12s25 8 42 14l28.5 10c30 145.333 101.333 352 214 620c106 253.333 159 412.333 159 477c0 74.667 49.333 112 148 112zM1514 1782
c-269.333 -103.333 -426.001 -154.999 -470.001 -154.999c-13.333 0 -24.666 4 -33.999 12s-14 19 -14 33c0 28 36 69.833 108 125.5s174.667 125.5 308 209.5c26.667 16.667 49.834 27.834 69.501 33.501s46.167 8.5 79.5 8.5s60 -5 80 -15s39.333 -24.333 58 -43
c87.333 -86.667 153.5 -156.834 198.5 -210.501s67.5 -93.834 67.5 -120.501s-15.833 -40 -47.5 -40s-74.834 11 -129.501 33c-94 38 -185.333 81 -274 129z" />
    <glyph glyph-name="Udieresis" unicode="&#xdc;" horiz-adv-x="2223" 
d="M1702 1527l313.999 -4.00098c37.333 0 71 -10.833 101 -32.5s45 -49.167 45 -82.5s-8.33301 -69.333 -25 -108c-84 -190 -156.667 -377 -218 -561s-92 -315.333 -92 -394c0 -32.667 7.66699 -59.167 23 -79.5s34.166 -34.333 56.499 -42s44.5 -14.167 66.5 -19.5
c52.667 -11.333 79 -28.333 79 -51c0 -35.333 -37.667 -68.666 -113 -99.999s-158.666 -54.666 -249.999 -69.999s-171 -23 -239 -23c-189.333 0 -284 77 -284 231c0 13.333 0.333008 23.666 1 30.999c-64.667 -72 -149 -133.667 -253 -185s-204.333 -77 -301 -77
c-200.667 0 -325.667 73 -375 219c-14.667 43.333 -22 96.5 -22 159.5s12.833 137.5 38.5 223.5s54 161.333 85 226l102.5 210c54 108 81 173 81 195c0 44 -40.667 72.667 -122 86c-21.333 3.33301 -38 10.166 -50 20.499s-18 23.5 -18 39.5s10.167 33.333 30.5 52
s50.833 36.5 91.5 53.5s88.334 32.167 143.001 45.5c121.333 30.667 264 46 428 46c122 0 183 -37.333 183 -112c0 -13.333 -20 -62.166 -60 -146.499l-131.5 -276.5c-47.667 -100 -91.5 -209 -131.5 -327s-60 -206.5 -60 -265.5s11.5 -97.167 34.5 -114.5
s49.833 -26 80.5 -26s55 1.16699 73 3.5s35.833 5.83301 53.5 10.5s32 8.66699 43 12s25 8 42 14l28.5 10c30 145.333 101.333 352 214 620c106 253.333 159 412.333 159 477c0 74.667 49.333 112 148 112zM1374 1749c-34 -34.667 -77.5 -61.332 -130.5 -79.999
s-110.5 -28 -172.5 -28s-115.5 14.167 -160.5 42.5s-67.5 64.333 -67.5 108s17.167 83 51.5 118s78 62.167 131 81.5s110.667 29 173 29s115.833 -14.667 160.5 -44s67 -65.833 67 -109.5s-17.333 -82.834 -52 -117.501zM2166 1862c0 -61.333 -35.667 -113.5 -107 -156.5
s-146 -64.5 -224 -64.5s-139.5 14.167 -184.5 42.5s-67.5 64.333 -67.5 108s17.167 83 51.5 118s78 62.167 131 81.5s110.667 29 173 29s115.833 -14.667 160.5 -44s67 -67.333 67 -114z" />
    <glyph glyph-name="Yacute" unicode="&#xdd;" horiz-adv-x="2048" 
d="M1704 1526l270 -2.99902c36 0 68.833 -8.66699 98.5 -26s44.5 -39.666 44.5 -66.999c0 -12 -5 -28 -15 -48c-43.333 -86.667 -118.166 -304.5 -224.499 -653.5s-172.333 -556 -198 -621s-55 -127.167 -88 -186.5s-66.833 -110.833 -101.5 -154.5
s-72.334 -81.667 -113.001 -114s-81.167 -58.833 -121.5 -79.5s-84.5 -37 -132.5 -49c-86.667 -22.667 -185.334 -34 -296.001 -34c-66 0 -99 17.667 -99 53c0 21.333 19.167 51.5 57.5 90.5s60.5 62.5 66.5 70.5c80.667 104 169.667 276.667 267 518
c-68 -50 -148.167 -91.667 -240.5 -125s-174.5 -50 -246.5 -50s-130.667 6.66699 -176 20s-86.666 33 -123.999 59c-82 57.333 -123 144.333 -123 261c0 56 13 127 39 213s54.5 164.333 85.5 235l92.5 207c30.667 67.333 47.834 106.666 51.501 117.999s5.5 22.333 5.5 33
c0 44 -40.667 72.667 -122 86c-21.333 3.33301 -38 10.166 -50 20.499s-18 24.666 -18 42.999s15 39 45 62s72 44.167 126 63.5c123.333 45.333 287.333 68 492 68c122 0 183 -36.333 183 -109c0 -53.333 -57.167 -208.166 -171.5 -464.499s-171.5 -431.5 -171.5 -525.5
c0 -89.333 56.667 -134 170 -134c60 0 126.333 11.667 199 35c126 332.667 239.667 709 341 1129c5.33301 24 23.166 39.833 53.499 47.5s78.5 11.5 144.5 11.5zM1602 2013c65.333 24.667 124.832 36.998 178.499 36.998s102.334 -16.5 146.001 -49.5
s65.5 -71.167 65.5 -114.5c0 -26 -9 -50.167 -27 -72.5s-46.667 -36.166 -86 -41.499c-6 -0.666992 -28.333 -3.66699 -67 -9l-88.5 -12c-20.333 -2.66699 -51 -7 -92 -13s-76.333 -11.667 -106 -17s-63 -11.666 -100 -18.999s-72 -15 -105 -23s-63.5 -16.333 -91.5 -25
s-53 -13 -75 -13s-33 13 -33 39c0 38 48.333 91 145 159s208.667 126 336 174z" />
    <glyph glyph-name="Thorn" unicode="&#xde;" horiz-adv-x="2046" 
d="M434 1227l-117.999 -23.998c-14.667 0 -25.667 2 -33 6s-11 12.333 -11 25c0 30 30.667 70.167 92 120.5s146 96.5 254 138.5s205.333 63 292 63s148.5 -15 185.5 -45s55.5 -82.833 55.5 -158.5s-17.833 -167 -53.5 -274s-83.834 -234.5 -144.501 -382.5
s-102.334 -254.333 -125.001 -319c40.667 -4 88.334 -6 143.001 -6s112.667 7.66699 174 23s118 39 170 71s93.333 75.833 124 131.5s46 120.167 46 193.5c0 133.333 -61 204.666 -183 213.999c-75.333 6 -113 20.667 -113 44c0 12.667 11.333 28 34 46
c80.667 64 194.334 96 341.001 96c76.667 0 147.667 -16.5 213 -49.5s118.5 -81.5 159.5 -145.5s61.5 -137.667 61.5 -221s-14.333 -156.833 -43 -220.5s-68.167 -116 -118.5 -157s-113.5 -74.5 -189.5 -100.5c-136.667 -46.667 -316 -70 -538 -70
c-114 0 -220.333 9.66699 -319 29c-14.667 -54.667 -22 -99.334 -22 -134.001l3 -66c0 -20.667 -11.333 -37 -34 -49s-46.334 -18 -71.001 -18l-401 -6c-74 0 -119 12.667 -135 38c-7.33301 12.667 -11 32.167 -11 58.5s5.66699 64 17 113s47.5 145.333 108.5 289l167 401.5
c50.333 124 75.5 205.833 75.5 245.5s-4.33301 66.167 -13 79.5s-22 20 -40 20z" />
    <glyph glyph-name="germandbls" unicode="&#xdf;" horiz-adv-x="2047" 
d="M1448 -39l-73.999 -0.999023c-143.333 0 -278 14 -404 42c-154 33.333 -231 74.666 -231 123.999c0 32.667 16.5 68.834 49.5 108.501s66.167 59.5 99.5 59.5c15.333 0 36 -14.167 62 -42.5s48.667 -50.833 68 -67.5c47.333 -40 102.333 -60 165 -60
c116.667 0 175 45.333 175 136c0 53.333 -46 105 -138 155l-115.5 64.5c-38.333 22.333 -71 50.666 -98 84.999s-40.5 70.5 -40.5 108.5s7.5 71.167 22.5 99.5s34.333 53 58 74s49.834 41.5 78.501 61.5l86.5 62c29 21.333 55.167 44.333 78.5 69c54 56 81 124.667 81 206
c0 52.667 -15.5 94.5 -46.5 125.5s-67.833 46.5 -110.5 46.5c-73.333 0 -139.666 -41.833 -198.999 -125.5s-122.833 -231.334 -190.5 -443.001s-127.167 -417.5 -178.5 -617.5s-91.333 -407.333 -120 -622c-2 -14 -8.16699 -26.167 -18.5 -36.5s-19.833 -15.5 -28.5 -15.5
s-72.334 2.66699 -191.001 8s-209 8 -271 8c-9.33301 0 -17.333 3.5 -24 10.5s-10 14.5 -10 22.5c17.333 186.667 47.333 382.334 90 587.001c-26.667 14.667 -56.334 32.834 -89.001 54.501s-49 44.167 -49 67.5s14.333 35 43 35c12 0 25.667 -3.5 41 -10.5
s41.666 -17.833 78.999 -32.5c92 404 199.667 691 323 861c62.667 85.333 128 153.333 196 204c138 104 331.667 156 581 156c190 0 343 -26.167 459 -78.5s174 -123.5 174 -213.5c0 -39.333 -11.333 -76 -34 -110s-50.834 -62.333 -84.501 -85
s-70.334 -44.5 -110.001 -65.5s-76.5 -38.833 -110.5 -53.5c-78.667 -35.333 -118 -68 -118 -98c0 -35.333 40.333 -68 121 -98l118.5 -44c43 -15.333 86.167 -33.166 129.5 -53.499s83 -43.166 119 -68.499c80.667 -56 121 -125.167 121 -207.5
s-20.667 -151.833 -62 -208.5c147.333 32 263.333 74.667 348 128c17.333 8.66699 31.333 13 42 13s19.5 -3.33301 26.5 -10s10.5 -18.334 10.5 -35.001s-12.333 -33.834 -37 -51.501s-64.167 -39 -118.5 -64s-119.166 -50.167 -194.499 -75.5
c-174.667 -58.667 -361 -88 -559 -88l244 156c77.333 0 156.666 9 237.999 27c-43.333 -58.667 -105.666 -103.834 -186.999 -135.501s-176.666 -47.5 -285.999 -47.5z" />
    <glyph glyph-name="agrave" unicode="&#xe0;" 
d="M787 214c125.333 0 230 95.998 314 287.998c38.667 88 58 159.333 58 214s-9.16699 92.334 -27.5 113.001s-54.333 31 -108 31s-111.667 -24.833 -174 -74.5s-112.5 -112.167 -150.5 -187.5s-57 -143.166 -57 -203.499s13.333 -105.5 40 -135.5s61.667 -45 105 -45z
M1307 1061l457.998 -21.001c17.333 0 30.333 -5.16699 39 -15.5s13 -21.833 13 -34.5c0 -48.667 -20.167 -126.167 -60.5 -232.5l-121 -316c-40.333 -104.333 -60.5 -173.333 -60.5 -207s5.16699 -55.167 15.5 -64.5s30.166 -14 59.499 -14s82.833 14.167 160.5 42.5
s130.334 49.833 158.001 64.5s48.834 22 63.501 22c26 0 39 -11.667 39 -35c0 -49.333 -100 -114 -300 -194c-67.333 -27.333 -148.5 -50.166 -243.5 -68.499s-191.5 -27.5 -289.5 -27.5c-163.333 0 -261.666 52 -294.999 156c-104 -104 -244 -156 -420 -156
c-120.667 0 -222.667 29 -306 87c-90.667 63.333 -136 163 -136 299c0 143.333 42.333 275.333 127 396c92.667 134 216.667 226.333 372 277c86 28 178.333 42 277 42c151.333 0 269 -37.333 353 -112c0.666992 4 1 10.333 1 19l-1 43c0 33.333 32.333 50 97 50z
M971.998 1716c79.333 -44.667 158.499 -102.332 237.499 -172.999s141.333 -135.167 187 -193.5s68.5 -96.833 68.5 -115.5s-4.16699 -32 -12.5 -40s-16.333 -12 -24 -12s-65 22.833 -172 68.5s-236.5 94.5 -388.5 146.5c-87.333 29.333 -131 72.666 -131 129.999
c0 44 22.333 87.667 67 131s88.334 65 131.001 65c16 0 28.333 -2.33301 37 -7z" />
    <glyph glyph-name="aacute" unicode="&#xe1;" 
d="M787 214c125.333 0 230 95.998 314 287.998c38.667 88 58 159.333 58 214s-9.16699 92.334 -27.5 113.001s-54.333 31 -108 31s-111.667 -24.833 -174 -74.5s-112.5 -112.167 -150.5 -187.5s-57 -143.166 -57 -203.499s13.333 -105.5 40 -135.5s61.667 -45 105 -45z
M1307 1061l457.998 -21.001c17.333 0 30.333 -5.16699 39 -15.5s13 -21.833 13 -34.5c0 -48.667 -20.167 -126.167 -60.5 -232.5l-121 -316c-40.333 -104.333 -60.5 -173.333 -60.5 -207s5.16699 -55.167 15.5 -64.5s30.166 -14 59.499 -14s82.833 14.167 160.5 42.5
s130.334 49.833 158.001 64.5s48.834 22 63.501 22c26 0 39 -11.667 39 -35c0 -49.333 -100 -114 -300 -194c-67.333 -27.333 -148.5 -50.166 -243.5 -68.499s-191.5 -27.5 -289.5 -27.5c-163.333 0 -261.666 52 -294.999 156c-104 -104 -244 -156 -420 -156
c-120.667 0 -222.667 29 -306 87c-90.667 63.333 -136 163 -136 299c0 143.333 42.333 275.333 127 396c92.667 134 216.667 226.333 372 277c86 28 178.333 42 277 42c151.333 0 269 -37.333 353 -112c0.666992 4 1 10.333 1 19l-1 43c0 33.333 32.333 50 97 50zM1320 1712
c14 7.33301 31.001 11 51.001 11c47.333 0 95.166 -18.5 143.499 -55.5s72.5 -76.167 72.5 -117.5c0 -49.333 -37.333 -87.333 -112 -114c-224.667 -82 -415 -160.333 -571 -235c-26 -12.667 -48.333 -19 -67 -19c-27.333 0 -41 12.333 -41 37s23.333 65.667 70 123
s112 121.5 196 192.5s170 130.167 258 177.5z" />
    <glyph glyph-name="acircumflex" unicode="&#xe2;" 
d="M787 214c125.333 0 230 95.998 314 287.998c38.667 88 58 159.333 58 214s-9.16699 92.334 -27.5 113.001s-54.333 31 -108 31s-111.667 -24.833 -174 -74.5s-112.5 -112.167 -150.5 -187.5s-57 -143.166 -57 -203.499s13.333 -105.5 40 -135.5s61.667 -45 105 -45z
M1307 1061l457.998 -21.001c17.333 0 30.333 -5.16699 39 -15.5s13 -21.833 13 -34.5c0 -48.667 -20.167 -126.167 -60.5 -232.5l-121 -316c-40.333 -104.333 -60.5 -173.333 -60.5 -207s5.16699 -55.167 15.5 -64.5s30.166 -14 59.499 -14s82.833 14.167 160.5 42.5
s130.334 49.833 158.001 64.5s48.834 22 63.501 22c26 0 39 -11.667 39 -35c0 -49.333 -100 -114 -300 -194c-67.333 -27.333 -148.5 -50.166 -243.5 -68.499s-191.5 -27.5 -289.5 -27.5c-163.333 0 -261.666 52 -294.999 156c-104 -104 -244 -156 -420 -156
c-120.667 0 -222.667 29 -306 87c-90.667 63.333 -136 163 -136 299c0 143.333 42.333 275.333 127 396c92.667 134 216.667 226.333 372 277c86 28 178.333 42 277 42c151.333 0 269 -37.333 353 -112c0.666992 4 1 10.333 1 19l-1 43c0 33.333 32.333 50 97 50zM1393 1669
c190.667 -226 286 -368.999 286 -428.999c0 -28 -14.5 -42 -43.5 -42s-61.833 12.333 -98.5 37c-103.333 70.667 -209.666 139 -318.999 205c-112.667 -50.667 -249 -119 -409 -205c-36.667 -20 -64.334 -30 -83.001 -30c-37.333 0 -56 15.667 -56 47s45.333 91.5 136 180.5
s194 173.167 310 252.5c25.333 17.333 48 28.666 68 33.999s51.833 8 95.5 8s81.5 -19.333 113.5 -58z" />
    <glyph glyph-name="atilde" unicode="&#xe3;" 
d="M787 214c125.333 0 230 95.998 314 287.998c38.667 88 58 159.333 58 214s-9.16699 92.334 -27.5 113.001s-54.333 31 -108 31s-111.667 -24.833 -174 -74.5s-112.5 -112.167 -150.5 -187.5s-57 -143.166 -57 -203.499s13.333 -105.5 40 -135.5s61.667 -45 105 -45z
M1307 1061l457.998 -21.001c17.333 0 30.333 -5.16699 39 -15.5s13 -21.833 13 -34.5c0 -48.667 -20.167 -126.167 -60.5 -232.5l-121 -316c-40.333 -104.333 -60.5 -173.333 -60.5 -207s5.16699 -55.167 15.5 -64.5s30.166 -14 59.499 -14s82.833 14.167 160.5 42.5
s130.334 49.833 158.001 64.5s48.834 22 63.501 22c26 0 39 -11.667 39 -35c0 -49.333 -100 -114 -300 -194c-67.333 -27.333 -148.5 -50.166 -243.5 -68.499s-191.5 -27.5 -289.5 -27.5c-163.333 0 -261.666 52 -294.999 156c-104 -104 -244 -156 -420 -156
c-120.667 0 -222.667 29 -306 87c-90.667 63.333 -136 163 -136 299c0 143.333 42.333 275.333 127 396c92.667 134 216.667 226.333 372 277c86 28 178.333 42 277 42c151.333 0 269 -37.333 353 -112c0.666992 4 1 10.333 1 19l-1 43c0 33.333 32.333 50 97 50z
M719.998 1291c-46 0 -68.9961 16.332 -68.9961 48.999c0 21.333 8.5 42 25.5 62l49.5 56c105.333 114.667 206.666 172 303.999 172c70 0 146.667 -20.833 230 -62.5s148.666 -62.5 195.999 -62.5c18.667 0 55.834 14.333 111.501 43s94.5 43 116.5 43
c48.667 0 73 -16.333 73 -49c0 -25.333 -25 -64.666 -75 -117.999c-104.667 -115.333 -206.334 -173 -305.001 -173c-46.667 0 -96.834 10.5 -150.501 31.5s-104.5 42 -152.5 63s-85 31.5 -111 31.5s-66.833 -14.333 -122.5 -43s-95.834 -43 -120.501 -43z" />
    <glyph glyph-name="adieresis" unicode="&#xe4;" 
d="M787 214c125.333 0 230 95.998 314 287.998c38.667 88 58 159.333 58 214s-9.16699 92.334 -27.5 113.001s-54.333 31 -108 31s-111.667 -24.833 -174 -74.5s-112.5 -112.167 -150.5 -187.5s-57 -143.166 -57 -203.499s13.333 -105.5 40 -135.5s61.667 -45 105 -45z
M1307 1061l457.998 -21.001c17.333 0 30.333 -5.16699 39 -15.5s13 -21.833 13 -34.5c0 -48.667 -20.167 -126.167 -60.5 -232.5l-121 -316c-40.333 -104.333 -60.5 -173.333 -60.5 -207s5.16699 -55.167 15.5 -64.5s30.166 -14 59.499 -14s82.833 14.167 160.5 42.5
s130.334 49.833 158.001 64.5s48.834 22 63.501 22c26 0 39 -11.667 39 -35c0 -49.333 -100 -114 -300 -194c-67.333 -27.333 -148.5 -50.166 -243.5 -68.499s-191.5 -27.5 -289.5 -27.5c-163.333 0 -261.666 52 -294.999 156c-104 -104 -244 -156 -420 -156
c-120.667 0 -222.667 29 -306 87c-90.667 63.333 -136 163 -136 299c0 143.333 42.333 275.333 127 396c92.667 134 216.667 226.333 372 277c86 28 178.333 42 277 42c151.333 0 269 -37.333 353 -112c0.666992 4 1 10.333 1 19l-1 43c0 33.333 32.333 50 97 50zM1133 1447
c0 -62 -34.502 -116.001 -103.502 -162.001s-141.667 -69 -218 -69s-135.666 15.5 -177.999 46.5s-63.5 68.833 -63.5 113.5s16.333 85.167 49 121.5s74.834 65 126.501 86s108 31.5 169 31.5s112.667 -16.167 155 -48.5s63.5 -72.166 63.5 -119.499zM1804 1331
c-32 -35.333 -73.835 -63.334 -125.502 -84.001s-108.167 -31 -169.5 -31s-113.166 15.5 -155.499 46.5s-63.5 68.833 -63.5 113.5s16.333 85.167 49 121.5s74.834 65 126.501 86s108 31.5 169 31.5s112.667 -16.167 155 -48.5s63.5 -70.666 63.5 -114.999
s-16.333 -84.5 -49 -120.5z" />
    <glyph glyph-name="aring" unicode="&#xe5;" 
d="M787 214c125.333 0 230 95.998 314 287.998c38.667 88 58 159.333 58 214s-9.16699 92.334 -27.5 113.001s-54.333 31 -108 31s-111.667 -24.833 -174 -74.5s-112.5 -112.167 -150.5 -187.5s-57 -143.166 -57 -203.499s13.333 -105.5 40 -135.5s61.667 -45 105 -45z
M1307 1061l457.998 -21.001c17.333 0 30.333 -5.16699 39 -15.5s13 -21.833 13 -34.5c0 -48.667 -20.167 -126.167 -60.5 -232.5l-121 -316c-40.333 -104.333 -60.5 -173.333 -60.5 -207s5.16699 -55.167 15.5 -64.5s30.166 -14 59.499 -14s82.833 14.167 160.5 42.5
s130.334 49.833 158.001 64.5s48.834 22 63.501 22c26 0 39 -11.667 39 -35c0 -49.333 -100 -114 -300 -194c-67.333 -27.333 -148.5 -50.166 -243.5 -68.499s-191.5 -27.5 -289.5 -27.5c-163.333 0 -261.666 52 -294.999 156c-104 -104 -244 -156 -420 -156
c-120.667 0 -222.667 29 -306 87c-90.667 63.333 -136 163 -136 299c0 143.333 42.333 275.333 127 396c92.667 134 216.667 226.333 372 277c86 28 178.333 42 277 42c151.333 0 269 -37.333 353 -112c0.666992 4 1 10.333 1 19l-1 43c0 33.333 32.333 50 97 50zM1403 1435
c0 31.333 -11.6699 56 -35.0029 74s-53.666 27 -90.999 27s-71.166 -4.16699 -101.499 -12.5s-56.666 -23.833 -78.999 -46.5s-33.5 -51.667 -33.5 -87s13.667 -63 41 -83s65 -30 113 -30s91 13.667 129 41s57 66.333 57 117zM1278 1677c250 0 375 -74.667 375 -224
c0 -85.333 -44.833 -156.833 -134.5 -214.5s-198.5 -86.5 -326.5 -86.5c-251.333 0 -377 72.333 -377 217c0 89.333 44.167 163 132.5 221s198.5 87 330.5 87z" />
    <glyph glyph-name="ae" unicode="&#xe6;" horiz-adv-x="2554" 
d="M1241 1004l-0.998047 37c0 33.333 32.333 50 97 50c29.333 0 92.333 -10 189 -30s166.667 -30.333 210 -31c92 20.667 186.667 31 284 31c165.333 0 287.5 -26.333 366.5 -79s118.5 -125 118.5 -217c0 -94.667 -37.833 -172 -113.5 -232s-176.167 -104.667 -301.5 -134
c-126 -29.333 -270.333 -50 -433 -62c10.667 -103.333 85 -167.666 223 -192.999c34.667 -6 71.667 -9 111 -9c156 0 381 47 675 141c18 6 31.667 9 41 9c23.333 0 35 -11.333 35 -34c0 -20.667 -15.833 -40.167 -47.5 -58.5s-70.834 -38 -117.5 -59
c-46.667 -21 -111 -45.833 -193 -74.5c-188.667 -66 -401.667 -99 -639 -99c-254.667 0 -426.667 45.333 -516 136c-42 42.667 -70 97.334 -84 164.001c-94 -116.667 -186 -196 -276 -238c-86.667 -41.333 -185.667 -62 -297 -62c-152.667 0 -266 25.333 -340 76
c-100.667 68.667 -151 177.334 -151 326.001c0 89.333 21 174.5 63 255.5s100.167 152 174.5 213s166.166 109.667 275.499 146s227.666 54.5 354.999 54.5c66.667 0 112.667 -4.83301 138 -14.5s38 -23.834 38 -42.501s-8 -33.834 -24 -45.501s-52.667 -29.5 -110 -53.5
c-95.333 -40.667 -177.333 -107.334 -246 -200.001s-103 -192 -103 -298c0 -48.667 13.333 -88 40 -118s61.667 -45 105 -45c74.667 0 147 36.333 217 109s127 170.5 171 293.5s66 252.167 66 387.5zM1658 447c116 32 207.667 80.999 275 146.999s101 145.667 101 239
c0 24.667 -8 44.334 -24 59.001s-40.167 22 -72.5 22s-66 -14 -101 -42s-64.5 -64.667 -88.5 -110c-50.667 -94 -80.667 -199 -90 -315z" />
    <glyph glyph-name="ccedilla" unicode="&#xe7;" horiz-adv-x="1537" 
d="M692 653c-30.667 -82 -46.002 -157.328 -46.002 -225.995s7 -119.834 21 -153.501s35 -59.5 63 -77.5c95.333 -60 284 -63.333 566 -10c134 25.333 231.5 48.166 292.5 68.499s96.833 30.5 107.5 30.5c23.333 0 35 -11.333 35 -34s-17.667 -45.667 -53 -69
c-93.333 -60.667 -225 -112.834 -395 -156.501s-359.833 -65.5 -569.5 -65.5s-368.834 37.333 -477.501 112s-163 178 -163 310c0 82 17.167 159.333 51.5 232s81.333 135.834 141 189.501s129.167 100.167 208.5 139.5c158.667 78.667 338.667 118 540 118
c234.667 0 399.334 -27 494.001 -81c10.667 -8.66699 16 -24.834 16 -48.501s-10.333 -62.834 -31 -117.501s-47.834 -105.334 -81.501 -152.001s-64.5 -70 -92.5 -70s-50.333 15 -67 45l-42 73.5c-11.333 19 -27 41.5 -47 67.5s-38.833 45.667 -56.5 59
s-39.167 25 -64.5 35s-56.166 15 -92.499 15s-72.666 -10.833 -108.999 -32.5s-66.166 -49.667 -89.499 -84s-43 -73.5 -59 -117.5zM958.998 -111.995c74.667 0 134.169 -19.8301 178.502 -59.4971s66.5 -91.5 66.5 -155.5s-15 -116.333 -45 -157
c-58 -77.333 -152.333 -116 -283 -116s-253 33.667 -367 101c-34.667 20.667 -60.5 40.167 -77.5 58.5s-25.5 37.166 -25.5 56.499c0 39.333 17.667 59 53 59c14.667 0 36.167 -8.33301 64.5 -25s71.166 -34.167 128.499 -52.5s105.166 -27.5 143.499 -27.5
s67.5 8.5 87.5 25.5s30 39.167 30 66.5s-9.66699 49.166 -29 65.499s-50.833 24.5 -94.5 24.5s-77.167 3.5 -100.5 10.5s-35 23 -35 48s15.833 70.167 47.5 135.5s67.167 116.666 106.5 153.999l72 -35l-57 -193c50.667 10.667 96 16 136 16z" />
    <glyph glyph-name="egrave" unicode="&#xe8;" horiz-adv-x="1537" 
d="M1696 285c23.333 0 35.002 -10.834 35.002 -32.501s-15.833 -41.667 -47.5 -60s-70.834 -38 -117.501 -59s-111 -45.833 -193 -74.5c-188.667 -66 -401.667 -99 -639 -99c-450.667 0 -676 138.667 -676 416c0 135.333 42.833 255.5 128.5 360.5s200.5 185.333 344.5 241
s301 83.5 471 83.5s294.5 -26.333 373.5 -79s118.5 -125 118.5 -217c0 -94.667 -37.833 -172 -113.5 -232s-176.167 -104.667 -301.5 -134c-126 -29.333 -270.333 -50 -433 -62c10.667 -103.333 84.667 -167.666 222 -192.999c35.333 -6 72.666 -9 111.999 -9
c156 0 381 47 675 141c18 6 31.667 9 41 9zM647.002 446.999c116 32 207.667 80.999 275 146.999s101 145.667 101 239c0 24.667 -8 44.334 -24 59.001s-40.167 22 -72.5 22s-66 -14 -101 -42s-64.5 -64.667 -88.5 -110c-50.667 -94 -80.667 -199 -90 -315zM802.002 1716
c79.333 -44.667 158.499 -102.332 237.499 -172.999s141.333 -135.167 187 -193.5s68.5 -96.833 68.5 -115.5s-4.16699 -32 -12.5 -40s-16.333 -12 -24 -12s-65 22.833 -172 68.5s-236.5 94.5 -388.5 146.5c-87.333 29.333 -131 72.666 -131 129.999
c0 44 22.333 87.667 67 131s88.334 65 131.001 65c16 0 28.333 -2.33301 37 -7z" />
    <glyph glyph-name="eacute" unicode="&#xe9;" horiz-adv-x="1537" 
d="M1696 285c23.333 0 35.002 -10.834 35.002 -32.501s-15.833 -41.667 -47.5 -60s-70.834 -38 -117.501 -59s-111 -45.833 -193 -74.5c-188.667 -66 -401.667 -99 -639 -99c-450.667 0 -676 138.667 -676 416c0 135.333 42.833 255.5 128.5 360.5s200.5 185.333 344.5 241
s301 83.5 471 83.5s294.5 -26.333 373.5 -79s118.5 -125 118.5 -217c0 -94.667 -37.833 -172 -113.5 -232s-176.167 -104.667 -301.5 -134c-126 -29.333 -270.333 -50 -433 -62c10.667 -103.333 84.667 -167.666 222 -192.999c35.333 -6 72.666 -9 111.999 -9
c156 0 381 47 675 141c18 6 31.667 9 41 9zM647.002 446.999c116 32 207.667 80.999 275 146.999s101 145.667 101 239c0 24.667 -8 44.334 -24 59.001s-40.167 22 -72.5 22s-66 -14 -101 -42s-64.5 -64.667 -88.5 -110c-50.667 -94 -80.667 -199 -90 -315zM1150 1712
c14 7.33301 31.001 11 51.001 11c47.333 0 95.166 -18.5 143.499 -55.5s72.5 -76.167 72.5 -117.5c0 -49.333 -37.333 -87.333 -112 -114c-224.667 -82 -415 -160.333 -571 -235c-26 -12.667 -48.333 -19 -67 -19c-27.333 0 -41 12.333 -41 37s23.333 65.667 70 123
s112 121.5 196 192.5s170 130.167 258 177.5z" />
    <glyph glyph-name="ecircumflex" unicode="&#xea;" horiz-adv-x="1537" 
d="M1696 285c23.333 0 35.002 -10.834 35.002 -32.501s-15.833 -41.667 -47.5 -60s-70.834 -38 -117.501 -59s-111 -45.833 -193 -74.5c-188.667 -66 -401.667 -99 -639 -99c-450.667 0 -676 138.667 -676 416c0 135.333 42.833 255.5 128.5 360.5s200.5 185.333 344.5 241
s301 83.5 471 83.5s294.5 -26.333 373.5 -79s118.5 -125 118.5 -217c0 -94.667 -37.833 -172 -113.5 -232s-176.167 -104.667 -301.5 -134c-126 -29.333 -270.333 -50 -433 -62c10.667 -103.333 84.667 -167.666 222 -192.999c35.333 -6 72.666 -9 111.999 -9
c156 0 381 47 675 141c18 6 31.667 9 41 9zM647.002 446.999c116 32 207.667 80.999 275 146.999s101 145.667 101 239c0 24.667 -8 44.334 -24 59.001s-40.167 22 -72.5 22s-66 -14 -101 -42s-64.5 -64.667 -88.5 -110c-50.667 -94 -80.667 -199 -90 -315zM1223 1669
c190.667 -226 286 -368.999 286 -428.999c0 -28 -14.5 -42 -43.5 -42s-61.833 12.333 -98.5 37c-103.333 70.667 -209.666 139 -318.999 205c-112.667 -50.667 -249 -119 -409 -205c-36.667 -20 -64.334 -30 -83.001 -30c-37.333 0 -56 15.667 -56 47s45.333 91.5 136 180.5
s194 173.167 310 252.5c25.333 17.333 48 28.666 68 33.999s51.833 8 95.5 8s81.5 -19.333 113.5 -58z" />
    <glyph glyph-name="edieresis" unicode="&#xeb;" horiz-adv-x="1537" 
d="M1696 285c23.333 0 35.002 -10.834 35.002 -32.501s-15.833 -41.667 -47.5 -60s-70.834 -38 -117.501 -59s-111 -45.833 -193 -74.5c-188.667 -66 -401.667 -99 -639 -99c-450.667 0 -676 138.667 -676 416c0 135.333 42.833 255.5 128.5 360.5s200.5 185.333 344.5 241
s301 83.5 471 83.5s294.5 -26.333 373.5 -79s118.5 -125 118.5 -217c0 -94.667 -37.833 -172 -113.5 -232s-176.167 -104.667 -301.5 -134c-126 -29.333 -270.333 -50 -433 -62c10.667 -103.333 84.667 -167.666 222 -192.999c35.333 -6 72.666 -9 111.999 -9
c156 0 381 47 675 141c18 6 31.667 9 41 9zM647.002 446.999c116 32 207.667 80.999 275 146.999s101 145.667 101 239c0 24.667 -8 44.334 -24 59.001s-40.167 22 -72.5 22s-66 -14 -101 -42s-64.5 -64.667 -88.5 -110c-50.667 -94 -80.667 -199 -90 -315zM963.002 1447
c0 -62 -34.502 -116.001 -103.502 -162.001s-141.667 -69 -218 -69s-135.666 15.5 -177.999 46.5s-63.5 68.833 -63.5 113.5s16.333 85.167 49 121.5s74.834 65 126.501 86s108 31.5 169 31.5s112.667 -16.167 155 -48.5s63.5 -72.166 63.5 -119.499zM1634 1331
c-32 -35.333 -73.835 -63.334 -125.502 -84.001s-108.167 -31 -169.5 -31s-113.166 15.5 -155.499 46.5s-63.5 68.833 -63.5 113.5s16.333 85.167 49 121.5s74.834 65 126.501 86s108 31.5 169 31.5s112.667 -16.167 155 -48.5s63.5 -70.666 63.5 -114.999
s-16.333 -84.5 -49 -120.5z" />
    <glyph glyph-name="igrave" unicode="&#xec;" horiz-adv-x="1027" 
d="M771 169c45.333 0 106.834 10.835 184.501 32.502s134.167 41 169.5 58s60 25.5 74 25.5c28 0 42 -14 42 -42c0 -12.667 -10.333 -27 -31 -43c-68 -50.667 -190.333 -103.334 -367 -158.001s-334.334 -82 -473.001 -82c-86 0 -158 13.667 -216 41s-87 69 -87 125
c0 34 29 117.333 87 250c109.333 251.333 164 440.666 164 567.999l-1 38c0 33.333 32.333 50 97 50l494 11c17.333 0 30.333 -5.16699 39 -15.5s13 -21.833 13 -34.5c0 -46 -21 -121.833 -63 -227.5l-126 -311.5c-42 -102 -63 -175 -63 -219s21 -66 63 -66zM537.001 1716
c79.333 -44.667 158.499 -102.332 237.499 -172.999s141.333 -135.167 187 -193.5s68.5 -96.833 68.5 -115.5s-4.16699 -32 -12.5 -40s-16.333 -12 -24 -12s-65 22.833 -172 68.5s-236.5 94.5 -388.5 146.5c-87.333 29.333 -131 72.666 -131 129.999
c0 44 22.333 87.667 67 131s88.334 65 131.001 65c16 0 28.333 -2.33301 37 -7z" />
    <glyph glyph-name="iacute" unicode="&#xed;" horiz-adv-x="1027" 
d="M771 169c45.333 0 106.834 10.835 184.501 32.502s134.167 41 169.5 58s60 25.5 74 25.5c28 0 42 -14 42 -42c0 -12.667 -10.333 -27 -31 -43c-68 -50.667 -190.333 -103.334 -367 -158.001s-334.334 -82 -473.001 -82c-86 0 -158 13.667 -216 41s-87 69 -87 125
c0 34 29 117.333 87 250c109.333 251.333 164 440.666 164 567.999l-1 38c0 33.333 32.333 50 97 50l494 11c17.333 0 30.333 -5.16699 39 -15.5s13 -21.833 13 -34.5c0 -46 -21 -121.833 -63 -227.5l-126 -311.5c-42 -102 -63 -175 -63 -219s21 -66 63 -66zM851.001 1712
c14 7.33301 31.001 11 51.001 11c47.333 0 95.166 -18.5 143.499 -55.5s72.5 -76.167 72.5 -117.5c0 -49.333 -37.333 -87.333 -112 -114c-224.667 -82 -415 -160.333 -571 -235c-26 -12.667 -48.333 -19 -67 -19c-27.333 0 -41 12.333 -41 37s23.333 65.667 70 123
s112 121.5 196 192.5s170 130.167 258 177.5z" />
    </font>
</defs>
</svg>
